<?xml version="1.0" encoding="UTF-8" standalone="no"?>
<!-- Created with Inkscape (http://www.inkscape.org/) -->

<svg
   xmlns:dc="http://purl.org/dc/elements/1.1/"
   xmlns:cc="http://creativecommons.org/ns#"
   xmlns:rdf="http://www.w3.org/1999/02/22-rdf-syntax-ns#"
   xmlns:svg="http://www.w3.org/2000/svg"
   xmlns="http://www.w3.org/2000/svg"
   xmlns:sodipodi="http://sodipodi.sourceforge.net/DTD/sodipodi-0.dtd"
   xmlns:inkscape="http://www.inkscape.org/namespaces/inkscape"
   width="197.76227mm"
   height="65.145378mm"
   viewBox="0 0 197.76227 65.145378"
   version="1.1"
   id="svg3736"
   inkscape:version="0.92.2 (30a58d1, 2017-08-07)"
   sodipodi:docname="MAME-ROW.svg">
  <defs
     id="defs3730" />
  <sodipodi:namedview
     id="base"
     pagecolor="#ffffff"
     bordercolor="#666666"
     borderopacity="1.0"
     inkscape:pageopacity="0.0"
     inkscape:pageshadow="2"
     inkscape:zoom="0.7"
     inkscape:cx="18.658522"
     inkscape:cy="-107.44342"
     inkscape:document-units="mm"
     inkscape:current-layer="layer1"
     showgrid="false"
     inkscape:pagecheckerboard="true"
     inkscape:snap-global="true"
     inkscape:window-width="1280"
     inkscape:window-height="740"
     inkscape:window-x="0"
     inkscape:window-y="28"
     inkscape:window-maximized="1" />
  <metadata
     id="metadata3733">
    <rdf:RDF>
      <cc:Work
         rdf:about="">
        <dc:format>image/svg+xml</dc:format>
        <dc:type
           rdf:resource="http://purl.org/dc/dcmitype/StillImage" />
        <dc:title />
      </cc:Work>
    </rdf:RDF>
  </metadata>
  <g
     inkscape:label="Layer 1"
     inkscape:groupmode="layer"
     id="layer1"
     transform="translate(-7.5595241,-4.0932524)">
    <g
       id="g257">
      <g
         aria-label="MAME"
         style="font-style:normal;font-weight:normal;font-size:10.58333302px;line-height:1.25;font-family:sans-serif;letter-spacing:0px;word-spacing:0px;fill:#ffffff;fill-opacity:1;stroke:none;stroke-width:0.26458332"
         id="text3740">
        <path
           d="m 64.247884,48.667275 v 4.911328 H 59.36136 v -4.911328 z m -4.886524,0 v -4.861719 h 4.886524 v 4.861719 z m 0,-4.861719 v -4.985742 h 4.886524 v 4.985742 z m 0,-4.985742 v -4.960937 h 4.886524 v 4.960937 z m 0,-4.960937 v -4.985742 h 4.886524 v 4.985742 z m 0,-4.985742 v -4.960938 h 4.886524 v 4.960938 z m 0,-4.960938 v -4.985742 h 4.886524 v 4.985742 z m 0,-4.985742 v -4.985742 h 4.886524 v 4.985742 z m 0,-4.985742 V 9.0789945 h 4.886524 V 13.940713 Z M 54.400423,9.0789945 V 4.0932524 H 59.36136 V 9.0789945 Z M 59.36136,48.667275 v 4.911328 h -4.960937 v -4.911328 z m -4.960937,0 v -4.861719 h 4.960937 v 4.861719 z m 0,-4.861719 v -4.985742 h 4.960937 v 4.985742 z m 0,-4.985742 v -4.960937 h 4.960937 v 4.960937 z m 0,-4.960937 v -4.985742 h 4.960937 v 4.985742 z m 0,-4.985742 v -4.960938 h 4.960937 v 4.960938 z m 0,-4.960938 v -4.985742 h 4.960937 v 4.985742 z m 0,-4.985742 v -4.985742 h 4.960937 v 4.985742 z m 0,-4.985742 V 9.0789945 H 59.36136 V 13.940713 Z M 49.414681,9.0789945 V 4.0932524 h 4.985742 v 4.9857421 z m 4.985742,39.5882805 v 4.911328 h -4.985742 v -4.911328 z m -4.985742,0 v -4.861719 h 4.985742 v 4.861719 z M 44.453743,9.0789945 V 4.0932524 h 4.960938 v 4.9857421 z m 4.960938,39.5882805 v 4.911328 h -4.960938 v -4.911328 z m -4.960938,0 v -4.861719 h 4.960938 v 4.861719 z M 39.468001,9.0789945 V 4.0932524 h 4.985742 v 4.9857421 z m 0,39.5882805 v -4.861719 h 4.985742 v 4.861719 z m 0,-4.861719 v -4.985742 h 4.985742 v 4.985742 z m 0,-4.985742 v -4.960937 h 4.985742 v 4.960937 z m 0,-4.960937 v -4.985742 h 4.985742 v 4.985742 z m 0,-4.985742 v -4.960938 h 4.985742 v 4.960938 z m 0,-14.932422 V 9.0789945 h 4.985742 v 4.8617185 z m 0,34.726562 v 4.911328 h -4.985742 v -4.911328 z m -4.985742,0 v -4.861719 h 4.985742 v 4.861719 z m 0,-4.861719 v -4.985742 h 4.985742 v 4.985742 z m 0,-4.985742 v -4.960937 h 4.985742 v 4.960937 z m 0,-4.960937 v -4.985742 h 4.985742 v 4.985742 z m 0,-14.932422 v -4.985742 h 4.985742 v 4.985742 z m 0,-4.985742 V 9.0789945 h 4.985742 V 13.940713 Z M 29.620541,9.0789945 V 4.0932524 h 4.861718 v 4.9857421 z m 4.861718,39.5882805 v 4.911328 h -4.861718 v -4.911328 z m -4.861718,0 v -4.861719 h 4.861718 v 4.861719 z m 0,-4.861719 v -4.985742 h 4.861718 v 4.985742 z m 0,-4.985742 v -4.960937 h 4.861718 v 4.960937 z m 0,-4.960937 v -4.985742 h 4.861718 v 4.985742 z m 0,-4.985742 v -4.960938 h 4.861718 v 4.960938 z m 0,-14.932422 V 9.0789945 h 4.861718 V 13.940713 Z M 24.634798,9.0789945 V 4.0932524 h 4.985743 v 4.9857421 z m 4.985743,39.5882805 v 4.911328 h -4.985743 v -4.911328 z m -4.985743,0 v -4.861719 h 4.985743 v 4.861719 z M 19.673861,9.0789945 V 4.0932524 h 4.960937 v 4.9857421 z m 4.960937,39.5882805 v 4.911328 h -4.960937 v -4.911328 z m -4.960937,0 v -4.861719 h 4.960937 v 4.861719 z M 14.688119,9.0789945 V 4.0932524 h 4.985742 v 4.9857421 z m 0,39.5882805 v -4.861719 h 4.985742 v 4.861719 z m 0,-4.861719 v -4.985742 h 4.985742 v 4.985742 z m 0,-4.985742 v -4.960937 h 4.985742 v 4.960937 z m 0,-4.960937 v -4.985742 h 4.985742 v 4.985742 z m 0,-4.985742 v -4.960938 h 4.985742 v 4.960938 z m 0,-4.960938 v -4.985742 h 4.985742 v 4.985742 z m 0,-4.985742 v -4.985742 h 4.985742 v 4.985742 z m 0,-4.985742 V 9.0789945 h 4.985742 v 4.8617185 z"
           style="font-style:normal;font-variant:normal;font-weight:normal;font-stretch:normal;font-size:50.79999924px;line-height:0px;font-family:'Karmatic Arcade';-inkscape-font-specification:'Karmatic Arcade';fill:#ffffff;stroke-width:0.26458332"
           id="path259"
           inkscape:connector-curvature="0" />
        <path
           d="m 108.89632,48.667275 v 4.911328 h -4.88652 v -4.911328 z m -4.88652,0 v -4.861719 h 4.88652 v 4.861719 z m 0,-4.861719 v -4.985742 h 4.88652 v 4.985742 z m 0,-4.985742 v -4.960937 h 4.88652 v 4.960937 z m 0,-4.960937 v -4.985742 h 4.88652 v 4.985742 z m 0,-4.985742 v -4.960938 h 4.88652 v 4.960938 z m 0,-4.960938 v -4.985742 h 4.88652 v 4.985742 z m 0,-4.985742 v -4.985742 h 4.88652 v 4.985742 z m 0,29.74082 v 4.911328 h -4.960939 v -4.911328 z m -4.960939,0 v -4.861719 h 4.960939 v 4.861719 z m 0,-4.861719 v -4.985742 h 4.960939 v 4.985742 z m 0,-4.985742 v -4.960937 h 4.960939 v 4.960937 z m 0,-4.960937 v -4.985742 h 4.960939 v 4.985742 z m 0,-4.985742 v -4.960938 h 4.960939 v 4.960938 z m 0,-4.960938 v -4.985742 h 4.960939 v 4.985742 z m 0,-4.985742 v -4.985742 h 4.960939 v 4.985742 z m 0,-4.985742 V 9.0789945 H 104.0098 V 13.940713 Z M 94.063118,9.0789945 V 4.0932524 h 4.985743 v 4.9857421 z m 4.985743,39.5882805 v 4.911328 h -4.985743 v -4.911328 z m -4.985743,0 v -4.861719 h 4.985743 v 4.861719 z m 0,-34.726562 V 9.0789945 h 4.985743 V 13.940713 Z M 89.102181,9.0789945 V 4.0932524 h 4.960937 v 4.9857421 z m 4.960937,39.5882805 v 4.911328 h -4.960937 v -4.911328 z m -4.960937,0 v -4.861719 h 4.960937 v 4.861719 z M 84.116439,9.0789945 V 4.0932524 h 4.985742 v 4.9857421 z m 0,39.5882805 v -4.861719 h 4.985742 v 4.861719 z m 0,-4.861719 v -4.985742 h 4.985742 v 4.985742 z m 0,-4.985742 v -4.960937 h 4.985742 v 4.960937 z m 0,-9.946679 v -4.960938 h 4.985742 v 4.960938 z m 0,-4.960938 v -4.985742 h 4.985742 v 4.985742 z m 0,-4.985742 v -4.985742 h 4.985742 v 4.985742 z M 79.130697,9.0789945 V 4.0932524 h 4.985742 v 4.9857421 z m 4.985742,39.5882805 v 4.911328 h -4.985742 v -4.911328 z m -4.985742,0 v -4.861719 h 4.985742 v 4.861719 z m 0,-4.861719 v -4.985742 h 4.985742 v 4.985742 z m 0,-4.985742 v -4.960937 h 4.985742 v 4.960937 z m 0,-9.946679 v -4.960938 h 4.985742 v 4.960938 z m 0,-4.960938 v -4.985742 h 4.985742 v 4.985742 z m 0,-4.985742 v -4.985742 h 4.985742 v 4.985742 z M 74.268978,9.0789945 V 4.0932524 h 4.861719 v 4.9857421 z m 4.861719,39.5882805 v 4.911328 h -4.861719 v -4.911328 z m -4.861719,0 v -4.861719 h 4.861719 v 4.861719 z m 0,-4.861719 v -4.985742 h 4.861719 v 4.985742 z m 0,-4.985742 v -4.960937 h 4.861719 v 4.960937 z m 0,-9.946679 v -4.960938 h 4.861719 v 4.960938 z m 0,-4.960938 v -4.985742 h 4.861719 v 4.985742 z m 0,-4.985742 v -4.985742 h 4.861719 v 4.985742 z M 69.283236,9.0789945 V 4.0932524 h 4.985742 v 4.9857421 z m 4.985742,39.5882805 v 4.911328 h -4.985742 v -4.911328 z m -4.985742,0 v -4.861719 h 4.985742 v 4.861719 z M 64.322299,9.0789945 V 4.0932524 h 4.960937 v 4.9857421 z m 4.960937,39.5882805 v 4.911328 h -4.960937 v -4.911328 z m -4.960937,0 v -4.861719 h 4.960937 v 4.861719 z m 0,-34.726562 V 9.0789945 h 4.960937 v 4.8617185 z m -4.985743,34.726562 v -4.861719 h 4.985743 v 4.861719 z m 0,-4.861719 v -4.985742 h 4.985743 v 4.985742 z m 0,-4.985742 v -4.960937 h 4.985743 v 4.960937 z m 0,-4.960937 v -4.985742 h 4.985743 v 4.985742 z m 0,-4.985742 v -4.960938 h 4.985743 v 4.960938 z m 0,-4.960938 v -4.985742 h 4.985743 v 4.985742 z m 0,-4.985742 v -4.985742 h 4.985743 v 4.985742 z m 0,-4.985742 V 9.0789945 h 4.985743 v 4.8617185 z"
           style="font-style:normal;font-variant:normal;font-weight:normal;font-stretch:normal;font-size:50.79999924px;line-height:0px;font-family:'Karmatic Arcade';-inkscape-font-specification:'Karmatic Arcade';fill:#ffffff;stroke-width:0.26458332"
           id="path261"
           inkscape:connector-curvature="0" />
        <path
           d="m 153.54476,48.667275 v 4.911328 h -4.88652 v -4.911328 z m -4.88652,0 v -4.861719 h 4.88652 v 4.861719 z m 0,-4.861719 v -4.985742 h 4.88652 v 4.985742 z m 0,-4.985742 v -4.960937 h 4.88652 v 4.960937 z m 0,-4.960937 v -4.985742 h 4.88652 v 4.985742 z m 0,-4.985742 v -4.960938 h 4.88652 v 4.960938 z m 0,-4.960938 v -4.985742 h 4.88652 v 4.985742 z m 0,-4.985742 v -4.985742 h 4.88652 v 4.985742 z m 0,-4.985742 V 9.0789945 h 4.88652 V 13.940713 Z M 143.6973,9.0789945 V 4.0932524 h 4.96094 v 4.9857421 z m 4.96094,39.5882805 v 4.911328 h -4.96094 v -4.911328 z m -4.96094,0 v -4.861719 h 4.96094 v 4.861719 z m 0,-4.861719 v -4.985742 h 4.96094 v 4.985742 z m 0,-4.985742 v -4.960937 h 4.96094 v 4.960937 z m 0,-4.960937 v -4.985742 h 4.96094 v 4.985742 z m 0,-4.985742 v -4.960938 h 4.96094 v 4.960938 z m 0,-4.960938 v -4.985742 h 4.96094 v 4.985742 z m 0,-4.985742 v -4.985742 h 4.96094 v 4.985742 z m 0,-4.985742 V 9.0789945 h 4.96094 V 13.940713 Z M 138.71156,9.0789945 V 4.0932524 h 4.98574 v 4.9857421 z m 4.98574,39.5882805 v 4.911328 h -4.98574 v -4.911328 z m -4.98574,0 v -4.861719 h 4.98574 v 4.861719 z M 133.75062,9.0789945 V 4.0932524 h 4.96094 v 4.9857421 z m 4.96094,39.5882805 v 4.911328 h -4.96094 v -4.911328 z m -4.96094,0 v -4.861719 h 4.96094 v 4.861719 z M 128.76488,9.0789945 V 4.0932524 h 4.98574 v 4.9857421 z m 0,39.5882805 v -4.861719 h 4.98574 v 4.861719 z m 0,-4.861719 v -4.985742 h 4.98574 v 4.985742 z m 0,-4.985742 v -4.960937 h 4.98574 v 4.960937 z m 0,-4.960937 v -4.985742 h 4.98574 v 4.985742 z m 0,-4.985742 v -4.960938 h 4.98574 v 4.960938 z m 0,-14.932422 V 9.0789945 h 4.98574 v 4.8617185 z m 0,34.726562 v 4.911328 h -4.98575 v -4.911328 z m -4.98575,0 v -4.861719 h 4.98575 v 4.861719 z m 0,-4.861719 v -4.985742 h 4.98575 v 4.985742 z m 0,-4.985742 v -4.960937 h 4.98575 v 4.960937 z m 0,-4.960937 v -4.985742 h 4.98575 v 4.985742 z m 0,-14.932422 v -4.985742 h 4.98575 v 4.985742 z m 0,-4.985742 V 9.0789945 h 4.98575 V 13.940713 Z M 118.91742,9.0789945 V 4.0932524 h 4.86171 v 4.9857421 z m 4.86171,39.5882805 v 4.911328 h -4.86171 v -4.911328 z m -4.86171,0 v -4.861719 h 4.86171 v 4.861719 z m 0,-4.861719 v -4.985742 h 4.86171 v 4.985742 z m 0,-4.985742 v -4.960937 h 4.86171 v 4.960937 z m 0,-4.960937 v -4.985742 h 4.86171 v 4.985742 z m 0,-4.985742 v -4.960938 h 4.86171 v 4.960938 z m 0,-14.932422 V 9.0789945 h 4.86171 V 13.940713 Z M 113.93167,9.0789945 V 4.0932524 h 4.98575 v 4.9857421 z m 4.98575,39.5882805 v 4.911328 h -4.98575 v -4.911328 z m -4.98575,0 v -4.861719 h 4.98575 v 4.861719 z M 108.97074,9.0789945 V 4.0932524 h 4.96093 v 4.9857421 z m 4.96093,39.5882805 v 4.911328 h -4.96093 v -4.911328 z m -4.96093,0 v -4.861719 h 4.96093 v 4.861719 z M 103.98499,9.0789945 V 4.0932524 h 4.98575 v 4.9857421 z m 0,39.5882805 v -4.861719 h 4.98575 v 4.861719 z m 0,-4.861719 v -4.985742 h 4.98575 v 4.985742 z m 0,-4.985742 v -4.960937 h 4.98575 v 4.960937 z m 0,-4.960937 v -4.985742 h 4.98575 v 4.985742 z m 0,-4.985742 v -4.960938 h 4.98575 v 4.960938 z m 0,-4.960938 v -4.985742 h 4.98575 v 4.985742 z m 0,-4.985742 v -4.985742 h 4.98575 v 4.985742 z m 0,-4.985742 V 9.0789945 h 4.98575 v 4.8617185 z"
           style="font-style:normal;font-variant:normal;font-weight:normal;font-stretch:normal;font-size:50.79999924px;line-height:0px;font-family:'Karmatic Arcade';-inkscape-font-specification:'Karmatic Arcade';fill:#ffffff;stroke-width:0.26458332"
           id="path263"
           inkscape:connector-curvature="0" />
        <path
           d="m 198.1932,48.667275 v 4.911328 h -4.88653 v -4.911328 z m -4.88653,0 v -4.861719 h 4.88653 v 4.861719 z m 0,-4.861719 v -4.985742 h 4.88653 v 4.985742 z m 0,-19.893359 v -4.985742 h 4.88653 v 4.985742 z m 0,-4.985742 v -4.985742 h 4.88653 v 4.985742 z m 0,-4.985742 V 9.0789945 h 4.88653 V 13.940713 Z M 188.34574,9.0789945 V 4.0932524 h 4.96093 v 4.9857421 z m 4.96093,39.5882805 v 4.911328 h -4.96093 v -4.911328 z m -4.96093,0 v -4.861719 h 4.96093 v 4.861719 z m 0,-4.861719 v -4.985742 h 4.96093 v 4.985742 z m 0,-4.985742 v -4.960937 h 4.96093 v 4.960937 z m 0,-4.960937 v -4.985742 h 4.96093 v 4.985742 z m 0,-4.985742 v -4.960938 h 4.96093 v 4.960938 z m 0,-4.960938 v -4.985742 h 4.96093 v 4.985742 z m 0,-4.985742 v -4.985742 h 4.96093 v 4.985742 z m 0,-4.985742 V 9.0789945 h 4.96093 V 13.940713 Z M 183.35999,9.0789945 V 4.0932524 h 4.98575 v 4.9857421 z m 4.98575,39.5882805 v 4.911328 h -4.98575 v -4.911328 z m -4.98575,0 v -4.861719 h 4.98575 v 4.861719 z m 0,-9.847461 v -4.960937 h 4.98575 v 4.960937 z m 0,-4.960937 v -4.985742 h 4.98575 v 4.985742 z m 0,-4.985742 v -4.960938 h 4.98575 v 4.960938 z m 0,-4.960938 v -4.985742 h 4.98575 v 4.985742 z m 0,-4.985742 v -4.985742 h 4.98575 v 4.985742 z M 178.39906,9.0789945 V 4.0932524 h 4.96093 v 4.9857421 z m 4.96093,39.5882805 v 4.911328 h -4.96093 v -4.911328 z m -4.96093,0 v -4.861719 h 4.96093 v 4.861719 z m 0,-9.847461 v -4.960937 h 4.96093 v 4.960937 z m 0,-4.960937 v -4.985742 h 4.96093 v 4.985742 z m 0,-9.94668 v -4.985742 h 4.96093 v 4.985742 z m 0,-4.985742 v -4.985742 h 4.96093 v 4.985742 z M 173.41331,9.0789945 V 4.0932524 h 4.98575 v 4.9857421 z m 4.98575,39.5882805 v 4.911328 h -4.98575 v -4.911328 z m -4.98575,0 v -4.861719 h 4.98575 v 4.861719 z m 0,-9.847461 v -4.960937 h 4.98575 v 4.960937 z m 0,-4.960937 v -4.985742 h 4.98575 v 4.985742 z m 0,-9.94668 v -4.985742 h 4.98575 v 4.985742 z m 0,-4.985742 v -4.985742 h 4.98575 v 4.985742 z M 168.42757,9.0789945 V 4.0932524 h 4.98574 v 4.9857421 z m 4.98574,39.5882805 v 4.911328 h -4.98574 v -4.911328 z m -4.98574,0 v -4.861719 h 4.98574 v 4.861719 z m 0,-9.847461 v -4.960937 h 4.98574 v 4.960937 z m 0,-4.960937 v -4.985742 h 4.98574 v 4.985742 z m 0,-9.94668 v -4.985742 h 4.98574 v 4.985742 z m 0,-4.985742 v -4.985742 h 4.98574 v 4.985742 z M 163.56585,9.0789945 V 4.0932524 h 4.86172 v 4.9857421 z m 4.86172,39.5882805 v 4.911328 h -4.86172 v -4.911328 z m -4.86172,0 v -4.861719 h 4.86172 v 4.861719 z m 0,-9.847461 v -4.960937 h 4.86172 v 4.960937 z m 0,-4.960937 v -4.985742 h 4.86172 v 4.985742 z m 0,-9.94668 v -4.985742 h 4.86172 v 4.985742 z m 0,-4.985742 v -4.985742 h 4.86172 v 4.985742 z M 158.58011,9.0789945 V 4.0932524 h 4.98574 v 4.9857421 z m 4.98574,39.5882805 v 4.911328 h -4.98574 v -4.911328 z m -4.98574,0 v -4.861719 h 4.98574 v 4.861719 z M 153.61917,9.0789945 V 4.0932524 h 4.96094 v 4.9857421 z m 4.96094,39.5882805 v 4.911328 h -4.96094 v -4.911328 z m -4.96094,0 v -4.861719 h 4.96094 v 4.861719 z M 148.63343,9.0789945 V 4.0932524 h 4.98574 v 4.9857421 z m 0,39.5882805 v -4.861719 h 4.98574 v 4.861719 z m 0,-4.861719 v -4.985742 h 4.98574 v 4.985742 z m 0,-4.985742 v -4.960937 h 4.98574 v 4.960937 z m 0,-4.960937 v -4.985742 h 4.98574 v 4.985742 z m 0,-4.985742 v -4.960938 h 4.98574 v 4.960938 z m 0,-4.960938 v -4.985742 h 4.98574 v 4.985742 z m 0,-4.985742 v -4.985742 h 4.98574 v 4.985742 z m 0,-4.985742 V 9.0789945 h 4.98574 v 4.8617185 z"
           style="font-style:normal;font-variant:normal;font-weight:normal;font-stretch:normal;font-size:50.79999924px;line-height:0px;font-family:'Karmatic Arcade';-inkscape-font-specification:'Karmatic Arcade';fill:#ffffff;stroke-width:0.26458332"
           id="path265"
           inkscape:connector-curvature="0" />
      </g>
      <g
         aria-label="RANDOM OF THE WEEK"
         style="font-style:normal;font-weight:normal;font-size:10.58333302px;line-height:1.25;font-family:sans-serif;letter-spacing:0px;word-spacing:0px;fill:#ffffff;fill-opacity:1;stroke:none;stroke-width:0.26458332"
         id="text3744">
        <path
           d="m 21.326125,67.874374 v 1.364258 h -1.357367 v -1.364258 z m -1.357367,0 v -1.350477 h 1.357367 v 1.350477 z m 0,-1.350477 v -1.384928 h 1.357367 v 1.384928 z m 0,-1.384928 V 63.76093 h 1.357367 v 1.378039 z m 0,-1.378039 v -1.384928 h 1.357367 v 1.384928 z m 0,-1.384928 v -1.378038 h 1.357367 v 1.378038 z m 0,-1.378038 v -1.384928 h 1.357367 v 1.384928 z m 0,-1.384928 v -1.384929 h 1.357367 v 1.384929 z m 0,8.261338 v 1.364258 h -1.378039 v -1.364258 z m -1.378039,0 v -1.350477 h 1.378039 v 1.350477 z m 0,-1.350477 v -1.384928 h 1.378039 v 1.384928 z m 0,-1.384928 V 63.76093 h 1.378039 v 1.378039 z m 0,-1.378039 v -1.384928 h 1.378039 v 1.384928 z m 0,-1.384928 v -1.378038 h 1.378039 v 1.378038 z m 0,-1.378038 v -1.384928 h 1.378039 v 1.384928 z m 0,-1.384928 v -1.384929 h 1.378039 v 1.384929 z m 0,-1.384929 V 56.87763 h 1.378039 v 1.350477 z M 17.205791,56.87763 v -1.384928 h 1.384928 v 1.384928 z m 1.384928,10.996744 v 1.364258 h -1.384928 v -1.364258 z m -1.384928,0 v -1.350477 h 1.384928 v 1.350477 z m 0,-5.498372 v -1.378038 h 1.384928 v 1.378038 z m 0,-4.147895 V 56.87763 h 1.384928 v 1.350477 z M 15.827753,56.87763 v -1.384928 h 1.378038 v 1.384928 z m 1.378038,10.996744 v 1.364258 h -1.378038 v -1.364258 z m -1.378038,0 v -1.350477 h 1.378038 v 1.350477 z M 14.442825,56.87763 v -1.384928 h 1.384928 v 1.384928 z m 0,10.996744 v -1.350477 h 1.384928 v 1.350477 z m 0,-1.350477 v -1.384928 h 1.384928 v 1.384928 z m 0,-1.384928 V 63.76093 h 1.384928 v 1.378039 z m 0,-1.378039 v -1.384928 h 1.384928 v 1.384928 z m 0,-2.762966 v -1.384928 h 1.384928 v 1.384928 z m 0,-1.384928 v -1.384929 h 1.384928 v 1.384929 z M 13.057896,56.87763 v -1.384928 h 1.384929 v 1.384928 z m 1.384929,10.996744 v 1.364258 h -1.384929 v -1.364258 z m -1.384929,0 v -1.350477 h 1.384929 v 1.350477 z m 0,-1.350477 v -1.384928 h 1.384929 v 1.384928 z m 0,-1.384928 V 63.76093 h 1.384929 v 1.378039 z m 0,-1.378039 v -1.384928 h 1.384929 v 1.384928 z m 0,-2.762966 v -1.384928 h 1.384929 v 1.384928 z m 0,-1.384928 v -1.384929 h 1.384929 v 1.384929 z M 11.707419,56.87763 v -1.384928 h 1.350477 v 1.384928 z m 1.350477,10.996744 v 1.364258 h -1.350477 v -1.364258 z m -1.350477,0 v -1.350477 h 1.350477 v 1.350477 z m 0,-1.350477 v -1.384928 h 1.350477 v 1.384928 z m 0,-1.384928 V 63.76093 h 1.350477 v 1.378039 z m 0,-1.378039 v -1.384928 h 1.350477 v 1.384928 z m 0,-2.762966 v -1.384928 h 1.350477 v 1.384928 z m 0,-1.384928 v -1.384929 h 1.350477 v 1.384929 z M 10.322491,56.87763 v -1.384928 h 1.384928 v 1.384928 z m 1.384928,10.996744 v 1.364258 h -1.384928 v -1.364258 z m -1.384928,0 v -1.350477 h 1.384928 v 1.350477 z M 8.9444524,56.87763 v -1.384928 h 1.3780386 v 1.384928 z m 1.3780386,10.996744 v 1.364258 H 8.9444524 v -1.364258 z m -1.3780386,0 v -1.350477 h 1.3780386 v 1.350477 z M 7.5595241,56.87763 v -1.384928 h 1.3849283 v 1.384928 z m 0,10.996744 v -1.350477 h 1.3849283 v 1.350477 z m 0,-1.350477 v -1.384928 h 1.3849283 v 1.384928 z m 0,-1.384928 V 63.76093 h 1.3849283 v 1.378039 z m 0,-1.378039 v -1.384928 h 1.3849283 v 1.384928 z m 0,-1.384928 v -1.378038 h 1.3849283 v 1.378038 z m 0,-1.378038 v -1.384928 h 1.3849283 v 1.384928 z m 0,-1.384928 v -1.384929 h 1.3849283 v 1.384929 z m 0,-1.384929 V 56.87763 h 1.3849283 v 1.350477 z"
           style="font-style:normal;font-variant:normal;font-weight:normal;font-stretch:normal;font-size:14.11111069px;line-height:0px;font-family:'Karmatic Arcade';-inkscape-font-specification:'Karmatic Arcade';fill:#ffffff;stroke-width:0.26458332"
           id="path268"
           inkscape:connector-curvature="0" />
        <path
           d="m 33.728469,67.874374 v 1.364258 h -1.357368 v -1.364258 z m -1.357368,0 v -1.350477 h 1.357368 v 1.350477 z m 0,-1.350477 v -1.384928 h 1.357368 v 1.384928 z m 0,-1.384928 V 63.76093 h 1.357368 v 1.378039 z m 0,-1.378039 v -1.384928 h 1.357368 v 1.384928 z m 0,-1.384928 v -1.378038 h 1.357368 v 1.378038 z m 0,-1.378038 v -1.384928 h 1.357368 v 1.384928 z m 0,-1.384928 v -1.384929 h 1.357368 v 1.384929 z m 0,8.261338 v 1.364258 h -1.378038 v -1.364258 z m -1.378038,0 v -1.350477 h 1.378038 v 1.350477 z m 0,-1.350477 v -1.384928 h 1.378038 v 1.384928 z m 0,-1.384928 V 63.76093 h 1.378038 v 1.378039 z m 0,-1.378039 v -1.384928 h 1.378038 v 1.384928 z m 0,-1.384928 v -1.378038 h 1.378038 v 1.378038 z m 0,-1.378038 v -1.384928 h 1.378038 v 1.384928 z m 0,-1.384928 v -1.384929 h 1.378038 v 1.384929 z m 0,-1.384929 V 56.87763 h 1.378038 v 1.350477 z M 29.608135,56.87763 v -1.384928 h 1.384928 v 1.384928 z m 1.384928,10.996744 v 1.364258 h -1.384928 v -1.364258 z m -1.384928,0 v -1.350477 h 1.384928 v 1.350477 z m 0,-9.646267 V 56.87763 h 1.384928 v 1.350477 z M 28.230097,56.87763 v -1.384928 h 1.378038 v 1.384928 z m 1.378038,10.996744 v 1.364258 h -1.378038 v -1.364258 z m -1.378038,0 v -1.350477 h 1.378038 v 1.350477 z M 26.845168,56.87763 v -1.384928 h 1.384929 v 1.384928 z m 0,10.996744 v -1.350477 h 1.384929 v 1.350477 z m 0,-1.350477 v -1.384928 h 1.384929 v 1.384928 z m 0,-1.384928 V 63.76093 h 1.384929 v 1.378039 z m 0,-2.762967 v -1.378038 h 1.384929 v 1.378038 z m 0,-1.378038 v -1.384928 h 1.384929 v 1.384928 z m 0,-1.384928 v -1.384929 h 1.384929 v 1.384929 z M 25.46024,56.87763 v -1.384928 h 1.384928 v 1.384928 z m 1.384928,10.996744 v 1.364258 H 25.46024 v -1.364258 z m -1.384928,0 v -1.350477 h 1.384928 v 1.350477 z m 0,-1.350477 v -1.384928 h 1.384928 v 1.384928 z m 0,-1.384928 V 63.76093 h 1.384928 v 1.378039 z m 0,-2.762967 v -1.378038 h 1.384928 v 1.378038 z m 0,-1.378038 v -1.384928 h 1.384928 v 1.384928 z m 0,-1.384928 v -1.384929 h 1.384928 v 1.384929 z M 24.109763,56.87763 v -1.384928 h 1.350477 v 1.384928 z m 1.350477,10.996744 v 1.364258 h -1.350477 v -1.364258 z m -1.350477,0 v -1.350477 h 1.350477 v 1.350477 z m 0,-1.350477 v -1.384928 h 1.350477 v 1.384928 z m 0,-1.384928 V 63.76093 h 1.350477 v 1.378039 z m 0,-2.762967 v -1.378038 h 1.350477 v 1.378038 z m 0,-1.378038 v -1.384928 h 1.350477 v 1.384928 z m 0,-1.384928 v -1.384929 h 1.350477 v 1.384929 z M 22.724834,56.87763 v -1.384928 h 1.384929 v 1.384928 z m 1.384929,10.996744 v 1.364258 h -1.384929 v -1.364258 z m -1.384929,0 v -1.350477 h 1.384929 v 1.350477 z M 21.346796,56.87763 v -1.384928 h 1.378038 v 1.384928 z m 1.378038,10.996744 v 1.364258 h -1.378038 v -1.364258 z m -1.378038,0 v -1.350477 h 1.378038 v 1.350477 z m 0,-9.646267 V 56.87763 h 1.378038 v 1.350477 z m -1.384928,9.646267 v -1.350477 h 1.384928 v 1.350477 z m 0,-1.350477 v -1.384928 h 1.384928 v 1.384928 z m 0,-1.384928 V 63.76093 h 1.384928 v 1.378039 z m 0,-1.378039 v -1.384928 h 1.384928 v 1.384928 z m 0,-1.384928 v -1.378038 h 1.384928 v 1.378038 z m 0,-1.378038 v -1.384928 h 1.384928 v 1.384928 z m 0,-1.384928 v -1.384929 h 1.384928 v 1.384929 z m 0,-1.384929 V 56.87763 h 1.384928 v 1.350477 z"
           style="font-style:normal;font-variant:normal;font-weight:normal;font-stretch:normal;font-size:14.11111069px;line-height:0px;font-family:'Karmatic Arcade';-inkscape-font-specification:'Karmatic Arcade';fill:#ffffff;stroke-width:0.26458332"
           id="path270"
           inkscape:connector-curvature="0" />
        <path
           d="m 46.130813,67.874374 v 1.364258 h -1.357368 v -1.364258 z m -1.357368,0 v -1.350477 h 1.357368 v 1.350477 z m 0,-1.350477 v -1.384928 h 1.357368 v 1.384928 z m 0,-1.384928 V 63.76093 h 1.357368 v 1.378039 z m 0,-1.378039 v -1.384928 h 1.357368 v 1.384928 z m 0,-1.384928 v -1.378038 h 1.357368 v 1.378038 z m 0,-1.378038 v -1.384928 h 1.357368 v 1.384928 z m 0,-1.384928 v -1.384929 h 1.357368 v 1.384929 z m 0,-1.384929 V 56.87763 h 1.357368 v 1.350477 z M 43.395407,56.87763 v -1.384928 h 1.378038 v 1.384928 z m 1.378038,10.996744 v 1.364258 h -1.378038 v -1.364258 z m -1.378038,0 v -1.350477 h 1.378038 v 1.350477 z m 0,-1.350477 v -1.384928 h 1.378038 v 1.384928 z m 0,-1.384928 V 63.76093 h 1.378038 v 1.378039 z m 0,-1.378039 v -1.384928 h 1.378038 v 1.384928 z m 0,-1.384928 v -1.378038 h 1.378038 v 1.378038 z m 0,-1.378038 v -1.384928 h 1.378038 v 1.384928 z m 0,-1.384928 v -1.384929 h 1.378038 v 1.384929 z m 0,-1.384929 V 56.87763 h 1.378038 v 1.350477 z M 42.010479,56.87763 v -1.384928 h 1.384928 v 1.384928 z m 1.384928,10.996744 v 1.364258 h -1.384928 v -1.364258 z m -1.384928,0 v -1.350477 h 1.384928 v 1.350477 z M 40.63244,56.87763 v -1.384928 h 1.378039 v 1.384928 z m 1.378039,10.996744 v 1.364258 H 40.63244 v -1.364258 z m -1.378039,0 v -1.350477 h 1.378039 v 1.350477 z M 39.247512,56.87763 v -1.384928 h 1.384928 v 1.384928 z m 0,10.996744 v -1.350477 h 1.384928 v 1.350477 z m 0,-1.350477 v -1.384928 h 1.384928 v 1.384928 z m 0,-1.384928 V 63.76093 h 1.384928 v 1.378039 z m 0,-4.141005 v -1.384928 h 1.384928 v 1.384928 z m 0,-1.384928 v -1.384929 h 1.384928 v 1.384929 z m 0,-1.384929 V 56.87763 h 1.384928 v 1.350477 z m 0,9.646267 v 1.364258 h -1.384928 v -1.364258 z m -1.384928,0 v -1.350477 h 1.384928 v 1.350477 z m 0,-1.350477 v -1.384928 h 1.384928 v 1.384928 z m 0,-1.384928 V 63.76093 h 1.384928 v 1.378039 z m 0,-1.378039 v -1.384928 h 1.384928 v 1.384928 z m 0,-4.147894 v -1.384929 h 1.384928 v 1.384929 z m 0,-1.384929 V 56.87763 h 1.384928 v 1.350477 z M 36.512106,56.87763 v -1.384928 h 1.350478 v 1.384928 z m 1.350478,10.996744 v 1.364258 h -1.350478 v -1.364258 z m -1.350478,0 v -1.350477 h 1.350478 v 1.350477 z m 0,-1.350477 v -1.384928 h 1.350478 v 1.384928 z m 0,-1.384928 V 63.76093 h 1.350478 v 1.378039 z m 0,-1.378039 v -1.384928 h 1.350478 v 1.384928 z m 0,-1.384928 v -1.378038 h 1.350478 v 1.378038 z m 0,-4.147895 V 56.87763 h 1.350478 v 1.350477 z M 35.127178,56.87763 v -1.384928 h 1.384928 v 1.384928 z m 1.384928,10.996744 v 1.364258 h -1.384928 v -1.364258 z m -1.384928,0 v -1.350477 h 1.384928 v 1.350477 z M 33.74914,56.87763 v -1.384928 h 1.378038 v 1.384928 z m 1.378038,10.996744 v 1.364258 H 33.74914 v -1.364258 z m -1.378038,0 v -1.350477 h 1.378038 v 1.350477 z M 32.364212,56.87763 v -1.384928 h 1.384928 v 1.384928 z m 0,10.996744 v -1.350477 h 1.384928 v 1.350477 z m 0,-1.350477 v -1.384928 h 1.384928 v 1.384928 z m 0,-1.384928 V 63.76093 h 1.384928 v 1.378039 z m 0,-1.378039 v -1.384928 h 1.384928 v 1.384928 z m 0,-1.384928 v -1.378038 h 1.384928 v 1.378038 z m 0,-1.378038 v -1.384928 h 1.384928 v 1.384928 z m 0,-1.384928 v -1.384929 h 1.384928 v 1.384929 z m 0,-1.384929 V 56.87763 h 1.384928 v 1.350477 z"
           style="font-style:normal;font-variant:normal;font-weight:normal;font-stretch:normal;font-size:14.11111069px;line-height:0px;font-family:'Karmatic Arcade';-inkscape-font-specification:'Karmatic Arcade';fill:#ffffff;stroke-width:0.26458332"
           id="path272"
           inkscape:connector-curvature="0" />
        <path
           d="m 57.175789,66.523897 v -1.384928 h 1.357367 v 1.384928 z m 0,-1.384928 V 63.76093 h 1.357367 v 1.378039 z m 0,-1.378039 v -1.384928 h 1.357367 v 1.384928 z m 0,-1.384928 v -1.378038 h 1.357367 v 1.378038 z m 0,-1.378038 v -1.384928 h 1.357367 v 1.384928 z m -1.378038,6.87641 v -1.350477 h 1.378038 v 1.350477 z m 0,-1.350477 v -1.384928 h 1.378038 v 1.384928 z m 0,-1.384928 V 63.76093 h 1.378038 v 1.378039 z m 0,-1.378039 v -1.384928 h 1.378038 v 1.384928 z m 0,-1.384928 v -1.378038 h 1.378038 v 1.378038 z m 0,-1.378038 v -1.384928 h 1.378038 v 1.384928 z m 0,-1.384928 v -1.384929 h 1.378038 v 1.384929 z m 0,8.261338 v 1.364258 h -1.384929 v -1.364258 z m -1.384929,0 v -1.350477 h 1.384929 v 1.350477 z m 0,-1.350477 v -1.384928 h 1.384929 v 1.384928 z m 0,-1.384928 V 63.76093 h 1.384929 v 1.378039 z m 0,-5.525933 v -1.384929 h 1.384929 v 1.384929 z m 0,-1.384929 V 56.87763 h 1.384929 v 1.350477 z M 53.034784,56.87763 v -1.384928 h 1.378038 v 1.384928 z m 1.378038,10.996744 v 1.364258 h -1.378038 v -1.364258 z m -1.378038,0 v -1.350477 h 1.378038 v 1.350477 z m 0,-1.350477 v -1.384928 h 1.378038 v 1.384928 z m 0,-8.29579 V 56.87763 h 1.378038 v 1.350477 z M 51.649856,56.87763 v -1.384928 h 1.384928 v 1.384928 z m 1.384928,10.996744 v 1.364258 h -1.384928 v -1.364258 z m -1.384928,0 v -1.350477 h 1.384928 v 1.350477 z m 0,-4.113444 v -1.384928 h 1.384928 v 1.384928 z m 0,-1.384928 v -1.378038 h 1.384928 v 1.378038 z m 0,-1.378038 v -1.384928 h 1.384928 v 1.384928 z M 50.264928,56.87763 v -1.384928 h 1.384928 v 1.384928 z m 1.384928,10.996744 v 1.364258 h -1.384928 v -1.364258 z m -1.384928,0 v -1.350477 h 1.384928 v 1.350477 z m 0,-2.735405 V 63.76093 h 1.384928 v 1.378039 z m 0,-1.378039 v -1.384928 h 1.384928 v 1.384928 z m 0,-1.384928 v -1.378038 h 1.384928 v 1.378038 z m 0,-1.378038 v -1.384928 h 1.384928 v 1.384928 z m 0,-1.384928 v -1.384929 h 1.384928 v 1.384929 z M 48.91445,56.87763 v -1.384928 h 1.350478 v 1.384928 z m 1.350478,10.996744 v 1.364258 H 48.91445 v -1.364258 z m -1.350478,0 v -1.350477 h 1.350478 v 1.350477 z m 0,-2.735405 V 63.76093 h 1.350478 v 1.378039 z m 0,-1.378039 v -1.384928 h 1.350478 v 1.384928 z m 0,-1.384928 v -1.378038 h 1.350478 v 1.378038 z m 0,-1.378038 v -1.384928 h 1.350478 v 1.384928 z m 0,-1.384928 v -1.384929 h 1.350478 v 1.384929 z M 47.529522,56.87763 v -1.384928 h 1.384928 v 1.384928 z m 1.384928,10.996744 v 1.364258 h -1.384928 v -1.364258 z m -1.384928,0 v -1.350477 h 1.384928 v 1.350477 z M 46.151484,56.87763 v -1.384928 h 1.378038 v 1.384928 z m 1.378038,10.996744 v 1.364258 h -1.378038 v -1.364258 z m -1.378038,0 v -1.350477 h 1.378038 v 1.350477 z M 44.766555,56.87763 v -1.384928 h 1.384929 v 1.384928 z m 0,10.996744 v -1.350477 h 1.384929 v 1.350477 z m 0,-1.350477 v -1.384928 h 1.384929 v 1.384928 z m 0,-1.384928 V 63.76093 h 1.384929 v 1.378039 z m 0,-1.378039 v -1.384928 h 1.384929 v 1.384928 z m 0,-1.384928 v -1.378038 h 1.384929 v 1.378038 z m 0,-1.378038 v -1.384928 h 1.384929 v 1.384928 z m 0,-1.384928 v -1.384929 h 1.384929 v 1.384929 z m 0,-1.384929 V 56.87763 h 1.384929 v 1.350477 z"
           style="font-style:normal;font-variant:normal;font-weight:normal;font-stretch:normal;font-size:14.11111069px;line-height:0px;font-family:'Karmatic Arcade';-inkscape-font-specification:'Karmatic Arcade';fill:#ffffff;stroke-width:0.26458332"
           id="path274"
           inkscape:connector-curvature="0" />
        <path
           d="M 69.578133,67.874374 V 66.523897 H 70.9355 v 1.350477 z m 0,-1.350477 V 65.138969 H 70.9355 v 1.384928 z m 0,-1.384928 V 63.76093 H 70.9355 v 1.378039 z m 0,-1.378039 V 62.376002 H 70.9355 v 1.384928 z m 0,-1.384928 V 60.997964 H 70.9355 v 1.378038 z m 0,-1.378038 V 59.613036 H 70.9355 v 1.384928 z m 0,-1.384928 V 58.228107 H 70.9355 v 1.384929 z m 0,8.261338 v 1.364258 h -1.378039 v -1.364258 z m -1.378039,0 v -1.350477 h 1.378039 v 1.350477 z m 0,-1.350477 v -1.384928 h 1.378039 v 1.384928 z m 0,-1.384928 V 63.76093 h 1.378039 v 1.378039 z m 0,-1.378039 v -1.384928 h 1.378039 v 1.384928 z m 0,-1.384928 v -1.378038 h 1.378039 v 1.378038 z m 0,-1.378038 v -1.384928 h 1.378039 v 1.384928 z m 0,-1.384928 v -1.384929 h 1.378039 v 1.384929 z m 0,-1.384929 V 56.87763 h 1.378039 v 1.350477 z M 66.815166,56.87763 v -1.384928 h 1.384928 v 1.384928 z m 1.384928,10.996744 v 1.364258 h -1.384928 v -1.364258 z m -1.384928,0 v -1.350477 h 1.384928 v 1.350477 z m 0,-1.350477 v -1.384928 h 1.384928 v 1.384928 z m 0,-8.29579 V 56.87763 h 1.384928 v 1.350477 z M 65.437128,56.87763 v -1.384928 h 1.378038 v 1.384928 z m 1.378038,10.996744 v 1.364258 h -1.378038 v -1.364258 z m -1.378038,0 v -1.350477 h 1.378038 v 1.350477 z M 64.0522,56.87763 v -1.384928 h 1.384928 v 1.384928 z m 1.384928,10.996744 v 1.364258 H 64.0522 v -1.364258 z m -1.384928,0 v -1.350477 h 1.384928 v 1.350477 z m 0,-2.735405 V 63.76093 h 1.384928 v 1.378039 z m 0,-1.378039 v -1.384928 h 1.384928 v 1.384928 z m 0,-1.384928 v -1.378038 h 1.384928 v 1.378038 z m 0,-1.378038 v -1.384928 h 1.384928 v 1.384928 z m 0,-1.384928 v -1.384929 h 1.384928 v 1.384929 z M 62.667271,56.87763 V 55.492702 H 64.0522 V 56.87763 Z M 64.0522,67.874374 v 1.364258 h -1.384929 v -1.364258 z m -1.384929,0 V 66.523897 H 64.0522 v 1.350477 z m 0,-2.735405 V 63.76093 H 64.0522 v 1.378039 z m 0,-1.378039 V 62.376002 H 64.0522 v 1.384928 z m 0,-1.384928 V 60.997964 H 64.0522 v 1.378038 z m 0,-1.378038 V 59.613036 H 64.0522 v 1.384928 z m 0,-1.384928 V 58.228107 H 64.0522 v 1.384929 z M 61.316794,56.87763 v -1.384928 h 1.350477 v 1.384928 z m 1.350477,10.996744 v 1.364258 h -1.350477 v -1.364258 z m -1.350477,0 v -1.350477 h 1.350477 v 1.350477 z m 0,-2.735405 V 63.76093 h 1.350477 v 1.378039 z m 0,-1.378039 v -1.384928 h 1.350477 v 1.384928 z m 0,-1.384928 v -1.378038 h 1.350477 v 1.378038 z m 0,-1.378038 v -1.384928 h 1.350477 v 1.384928 z m 0,-1.384928 v -1.384929 h 1.350477 v 1.384929 z M 59.931866,56.87763 v -1.384928 h 1.384928 v 1.384928 z m 1.384928,10.996744 v 1.364258 h -1.384928 v -1.364258 z m -1.384928,0 v -1.350477 h 1.384928 v 1.350477 z M 58.553827,56.87763 v -1.384928 h 1.378039 v 1.384928 z m 0,10.996744 v -1.350477 h 1.378039 v 1.350477 z m 0,-1.350477 v -1.384928 h 1.378039 v 1.384928 z m 0,-8.29579 V 56.87763 h 1.378039 v 1.350477 z m -1.384928,8.29579 v -1.384928 h 1.384928 v 1.384928 z m 0,-1.384928 V 63.76093 h 1.384928 v 1.378039 z m 0,-1.378039 v -1.384928 h 1.384928 v 1.384928 z m 0,-1.384928 v -1.378038 h 1.384928 v 1.378038 z m 0,-1.378038 v -1.384928 h 1.384928 v 1.384928 z m 0,-1.384928 v -1.384929 h 1.384928 v 1.384929 z m 0,-1.384929 V 56.87763 h 1.384928 v 1.350477 z"
           style="font-style:normal;font-variant:normal;font-weight:normal;font-stretch:normal;font-size:14.11111069px;line-height:0px;font-family:'Karmatic Arcade';-inkscape-font-specification:'Karmatic Arcade';fill:#ffffff;stroke-width:0.26458332"
           id="path276"
           inkscape:connector-curvature="0" />
        <path
           d="m 83.337844,67.874374 v 1.364258 h -1.357368 v -1.364258 z m -1.357368,0 v -1.350477 h 1.357368 v 1.350477 z m 0,-1.350477 v -1.384928 h 1.357368 v 1.384928 z m 0,-1.384928 V 63.76093 h 1.357368 v 1.378039 z m 0,-1.378039 v -1.384928 h 1.357368 v 1.384928 z m 0,-1.384928 v -1.378038 h 1.357368 v 1.378038 z m 0,-1.378038 v -1.384928 h 1.357368 v 1.384928 z m 0,-1.384928 v -1.384929 h 1.357368 v 1.384929 z m 0,-1.384929 V 56.87763 h 1.357368 v 1.350477 z M 80.602438,56.87763 v -1.384928 h 1.378038 v 1.384928 z m 1.378038,10.996744 v 1.364258 h -1.378038 v -1.364258 z m -1.378038,0 v -1.350477 h 1.378038 v 1.350477 z m 0,-1.350477 v -1.384928 h 1.378038 v 1.384928 z m 0,-1.384928 V 63.76093 h 1.378038 v 1.378039 z m 0,-1.378039 v -1.384928 h 1.378038 v 1.384928 z m 0,-1.384928 v -1.378038 h 1.378038 v 1.378038 z m 0,-1.378038 v -1.384928 h 1.378038 v 1.384928 z m 0,-1.384928 v -1.384929 h 1.378038 v 1.384929 z m 0,-1.384929 V 56.87763 h 1.378038 v 1.350477 z M 79.21751,56.87763 v -1.384928 h 1.384928 v 1.384928 z m 1.384928,10.996744 v 1.364258 H 79.21751 v -1.364258 z m -1.384928,0 v -1.350477 h 1.384928 v 1.350477 z M 77.839472,56.87763 v -1.384928 h 1.378038 v 1.384928 z m 1.378038,10.996744 v 1.364258 h -1.378038 v -1.364258 z m -1.378038,0 v -1.350477 h 1.378038 v 1.350477 z M 76.454543,56.87763 v -1.384928 h 1.384929 v 1.384928 z m 0,10.996744 v -1.350477 h 1.384929 v 1.350477 z m 0,-1.350477 v -1.384928 h 1.384929 v 1.384928 z m 0,-1.384928 V 63.76093 h 1.384929 v 1.378039 z m 0,-1.378039 v -1.384928 h 1.384929 v 1.384928 z m 0,-1.384928 v -1.378038 h 1.384929 v 1.378038 z m 0,-4.147895 V 56.87763 h 1.384929 v 1.350477 z m 0,9.646267 v 1.364258 h -1.384928 v -1.364258 z m -1.384928,0 v -1.350477 h 1.384928 v 1.350477 z m 0,-1.350477 v -1.384928 h 1.384928 v 1.384928 z m 0,-1.384928 V 63.76093 h 1.384928 v 1.378039 z m 0,-1.378039 v -1.384928 h 1.384928 v 1.384928 z m 0,-4.147894 v -1.384929 h 1.384928 v 1.384929 z m 0,-1.384929 V 56.87763 h 1.384928 v 1.350477 z M 73.719138,56.87763 v -1.384928 h 1.350477 v 1.384928 z m 1.350477,10.996744 v 1.364258 h -1.350477 v -1.364258 z m -1.350477,0 v -1.350477 h 1.350477 v 1.350477 z m 0,-1.350477 v -1.384928 h 1.350477 v 1.384928 z m 0,-1.384928 V 63.76093 h 1.350477 v 1.378039 z m 0,-1.378039 v -1.384928 h 1.350477 v 1.384928 z m 0,-1.384928 v -1.378038 h 1.350477 v 1.378038 z m 0,-4.147895 V 56.87763 h 1.350477 v 1.350477 z M 72.334209,56.87763 v -1.384928 h 1.384929 v 1.384928 z m 1.384929,10.996744 v 1.364258 h -1.384929 v -1.364258 z m -1.384929,0 v -1.350477 h 1.384929 v 1.350477 z M 70.956171,56.87763 v -1.384928 h 1.378038 v 1.384928 z m 1.378038,10.996744 v 1.364258 h -1.378038 v -1.364258 z m -1.378038,0 v -1.350477 h 1.378038 v 1.350477 z M 69.571243,56.87763 v -1.384928 h 1.384928 v 1.384928 z m 0,10.996744 v -1.350477 h 1.384928 v 1.350477 z m 0,-1.350477 v -1.384928 h 1.384928 v 1.384928 z m 0,-1.384928 V 63.76093 h 1.384928 v 1.378039 z m 0,-1.378039 v -1.384928 h 1.384928 v 1.384928 z m 0,-1.384928 v -1.378038 h 1.384928 v 1.378038 z m 0,-1.378038 v -1.384928 h 1.384928 v 1.384928 z m 0,-1.384928 v -1.384929 h 1.384928 v 1.384929 z m 0,-1.384929 V 56.87763 h 1.384928 v 1.350477 z"
           style="font-style:normal;font-variant:normal;font-weight:normal;font-stretch:normal;font-size:14.11111069px;line-height:0px;font-family:'Karmatic Arcade';-inkscape-font-specification:'Karmatic Arcade';fill:#ffffff;stroke-width:0.26458332"
           id="path278"
           inkscape:connector-curvature="0" />
        <path
           d="m 98.296448,67.874374 v -1.350477 h 1.357367 v 1.350477 z m 0,-1.350477 v -1.384928 h 1.357367 v 1.384928 z m 0,-1.384928 V 63.76093 h 1.357367 v 1.378039 z m 0,-1.378039 v -1.384928 h 1.357367 v 1.384928 z m 0,-1.384928 v -1.378038 h 1.357367 v 1.378038 z m 0,-1.378038 v -1.384928 h 1.357367 v 1.384928 z m 0,-1.384928 v -1.384929 h 1.357367 v 1.384929 z m 0,8.261338 v 1.364258 H 96.91841 v -1.364258 z m -1.378038,0 v -1.350477 h 1.378038 v 1.350477 z m 0,-1.350477 v -1.384928 h 1.378038 v 1.384928 z m 0,-1.384928 V 63.76093 h 1.378038 v 1.378039 z m 0,-1.378039 v -1.384928 h 1.378038 v 1.384928 z m 0,-1.384928 v -1.378038 h 1.378038 v 1.378038 z m 0,-1.378038 v -1.384928 h 1.378038 v 1.384928 z m 0,-1.384928 v -1.384929 h 1.378038 v 1.384929 z m 0,-1.384929 V 56.87763 h 1.378038 v 1.350477 z M 95.533481,56.87763 v -1.384928 h 1.384929 v 1.384928 z m 1.384929,10.996744 v 1.364258 h -1.384929 v -1.364258 z m -1.384929,0 v -1.350477 h 1.384929 v 1.350477 z m 0,-1.350477 v -1.384928 h 1.384929 v 1.384928 z m 0,-8.29579 V 56.87763 h 1.384929 v 1.350477 z M 94.155443,56.87763 v -1.384928 h 1.378038 v 1.384928 z m 1.378038,10.996744 v 1.364258 h -1.378038 v -1.364258 z m -1.378038,0 v -1.350477 h 1.378038 v 1.350477 z M 92.770515,56.87763 v -1.384928 h 1.384928 v 1.384928 z m 1.384928,10.996744 v 1.364258 h -1.384928 v -1.364258 z m -1.384928,0 v -1.350477 h 1.384928 v 1.350477 z m 0,-2.735405 V 63.76093 h 1.384928 v 1.378039 z m 0,-1.378039 v -1.384928 h 1.384928 v 1.384928 z m 0,-1.384928 v -1.378038 h 1.384928 v 1.378038 z m 0,-1.378038 v -1.384928 h 1.384928 v 1.384928 z m 0,-1.384928 v -1.384929 h 1.384928 v 1.384929 z M 91.385586,56.87763 v -1.384928 h 1.384929 v 1.384928 z m 1.384929,10.996744 v 1.364258 h -1.384929 v -1.364258 z m -1.384929,0 v -1.350477 h 1.384929 v 1.350477 z m 0,-2.735405 V 63.76093 h 1.384929 v 1.378039 z m 0,-1.378039 v -1.384928 h 1.384929 v 1.384928 z m 0,-1.384928 v -1.378038 h 1.384929 v 1.378038 z m 0,-1.378038 v -1.384928 h 1.384929 v 1.384928 z m 0,-1.384928 v -1.384929 h 1.384929 v 1.384929 z M 90.035109,56.87763 v -1.384928 h 1.350477 v 1.384928 z m 1.350477,10.996744 v 1.364258 h -1.350477 v -1.364258 z m -1.350477,0 v -1.350477 h 1.350477 v 1.350477 z m 0,-2.735405 V 63.76093 h 1.350477 v 1.378039 z m 0,-1.378039 v -1.384928 h 1.350477 v 1.384928 z m 0,-1.384928 v -1.378038 h 1.350477 v 1.378038 z m 0,-1.378038 v -1.384928 h 1.350477 v 1.384928 z m 0,-1.384928 v -1.384929 h 1.350477 v 1.384929 z M 88.650181,56.87763 v -1.384928 h 1.384928 v 1.384928 z m 1.384928,10.996744 v 1.364258 h -1.384928 v -1.364258 z m -1.384928,0 v -1.350477 h 1.384928 v 1.350477 z M 87.272143,56.87763 v -1.384928 h 1.378038 v 1.384928 z m 0,10.996744 v -1.350477 h 1.378038 v 1.350477 z m 0,-1.350477 v -1.384928 h 1.378038 v 1.384928 z m 0,-8.29579 V 56.87763 h 1.378038 v 1.350477 z m -1.384929,8.29579 v -1.384928 h 1.384929 v 1.384928 z m 0,-1.384928 V 63.76093 h 1.384929 v 1.378039 z m 0,-1.378039 v -1.384928 h 1.384929 v 1.384928 z m 0,-1.384928 v -1.378038 h 1.384929 v 1.378038 z m 0,-1.378038 v -1.384928 h 1.384929 v 1.384928 z m 0,-1.384928 v -1.384929 h 1.384929 v 1.384929 z m 0,-1.384929 V 56.87763 h 1.384929 v 1.350477 z"
           style="font-style:normal;font-variant:normal;font-weight:normal;font-stretch:normal;font-size:14.11111069px;line-height:0px;font-family:'Karmatic Arcade';-inkscape-font-specification:'Karmatic Arcade';fill:#ffffff;stroke-width:0.26458332"
           id="path280"
           inkscape:connector-curvature="0" />
        <path
           d="m 110.69879,60.997964 v -1.384928 h 1.35737 v 1.384928 z m 0,-1.384928 v -1.384929 h 1.35737 v 1.384929 z m 0,-1.384929 V 56.87763 h 1.35737 v 1.350477 z m -1.37804,-1.350477 v -1.384928 h 1.37804 v 1.384928 z m 0,8.261339 V 63.76093 h 1.37804 v 1.378039 z m 0,-1.378039 v -1.384928 h 1.37804 v 1.384928 z m 0,-1.384928 v -1.378038 h 1.37804 v 1.378038 z m 0,-1.378038 v -1.384928 h 1.37804 v 1.384928 z m 0,-1.384928 v -1.384929 h 1.37804 v 1.384929 z m 0,-1.384929 V 56.87763 h 1.37804 v 1.350477 z m -1.38492,-1.350477 v -1.384928 h 1.38492 v 1.384928 z m 0,8.261339 V 63.76093 h 1.38492 v 1.378039 z m 0,-1.378039 v -1.384928 h 1.38492 v 1.384928 z m 0,-1.384928 v -1.378038 h 1.38492 v 1.378038 z m 0,-1.378038 v -1.384928 h 1.38492 v 1.384928 z m 0,-1.384928 v -1.384929 h 1.38492 v 1.384929 z m -1.37804,-2.735406 v -1.384928 h 1.37804 v 1.384928 z m 0,8.261339 V 63.76093 h 1.37804 v 1.378039 z m 0,-1.378039 v -1.384928 h 1.37804 v 1.384928 z m 0,-2.762966 v -1.384928 h 1.37804 v 1.384928 z m 0,-1.384928 v -1.384929 h 1.37804 v 1.384929 z m -1.38493,-2.735406 v -1.384928 h 1.38493 v 1.384928 z m 0,8.261339 V 63.76093 h 1.38493 v 1.378039 z m 0,-1.378039 v -1.384928 h 1.38493 v 1.384928 z m 0,-2.762966 v -1.384928 h 1.38493 v 1.384928 z m 0,-1.384928 v -1.384929 h 1.38493 v 1.384929 z m -1.38493,-2.735406 v -1.384928 h 1.38493 v 1.384928 z m 1.38493,10.996744 v 1.364258 h -1.38493 v -1.364258 z m -1.38493,0 v -1.350477 h 1.38493 v 1.350477 z m 0,-1.350477 v -1.384928 h 1.38493 v 1.384928 z m 0,-1.384928 V 63.76093 h 1.38493 v 1.378039 z m 0,-1.378039 v -1.384928 h 1.38493 v 1.384928 z m 0,-2.762966 v -1.384928 h 1.38493 v 1.384928 z m 0,-1.384928 v -1.384929 h 1.38493 v 1.384929 z m -1.35048,-2.735406 v -1.384928 h 1.35048 v 1.384928 z m 1.35048,10.996744 v 1.364258 h -1.35048 v -1.364258 z m -1.35048,0 v -1.350477 h 1.35048 v 1.350477 z m 0,-1.350477 v -1.384928 h 1.35048 v 1.384928 z m 0,-1.384928 V 63.76093 h 1.35048 v 1.378039 z m 0,-1.378039 v -1.384928 h 1.35048 v 1.384928 z m 0,-2.762966 v -1.384928 h 1.35048 v 1.384928 z m 0,-1.384928 v -1.384929 h 1.35048 v 1.384929 z m -1.38493,-2.735406 v -1.384928 h 1.38493 v 1.384928 z m 1.38493,10.996744 v 1.364258 h -1.38493 v -1.364258 z m -1.38493,0 v -1.350477 h 1.38493 v 1.350477 z M 99.674486,56.87763 v -1.384928 h 1.378034 v 1.384928 z m 1.378034,10.996744 v 1.364258 h -1.378034 v -1.364258 z m -1.378034,0 v -1.350477 h 1.378034 v 1.350477 z M 98.289558,56.87763 v -1.384928 h 1.384928 v 1.384928 z m 0,10.996744 v -1.350477 h 1.384928 v 1.350477 z m 0,-1.350477 v -1.384928 h 1.384928 v 1.384928 z m 0,-1.384928 V 63.76093 h 1.384928 v 1.378039 z m 0,-1.378039 v -1.384928 h 1.384928 v 1.384928 z m 0,-1.384928 v -1.378038 h 1.384928 v 1.378038 z m 0,-1.378038 v -1.384928 h 1.384928 v 1.384928 z m 0,-1.384928 v -1.384929 h 1.384928 v 1.384929 z m 0,-1.384929 V 56.87763 h 1.384928 v 1.350477 z"
           style="font-style:normal;font-variant:normal;font-weight:normal;font-stretch:normal;font-size:14.11111069px;line-height:0px;font-family:'Karmatic Arcade';-inkscape-font-specification:'Karmatic Arcade';fill:#ffffff;stroke-width:0.26458332"
           id="path282"
           inkscape:connector-curvature="0" />
        <path
           d="m 125.63672,60.997964 v -1.384928 h 1.37804 v 1.384928 z m 0,-1.384928 v -1.384929 h 1.37804 v 1.384929 z m 0,-1.384929 V 56.87763 h 1.37804 v 1.350477 z M 124.2518,56.87763 v -1.384928 h 1.38492 v 1.384928 z m 0,4.120334 v -1.384928 h 1.38492 v 1.384928 z m 0,-1.384928 v -1.384929 h 1.38492 v 1.384929 z m 0,-1.384929 V 56.87763 h 1.38492 v 1.350477 z m -1.37804,-1.350477 v -1.384928 h 1.37804 v 1.384928 z m 1.37804,10.996744 v 1.364258 h -1.37804 v -1.364258 z m -1.37804,0 v -1.350477 h 1.37804 v 1.350477 z m 0,-1.350477 v -1.384928 h 1.37804 v 1.384928 z m 0,-1.384928 V 63.76093 h 1.37804 v 1.378039 z m 0,-1.378039 v -1.384928 h 1.37804 v 1.384928 z m 0,-1.384928 v -1.378038 h 1.37804 v 1.378038 z m 0,-1.378038 v -1.384928 h 1.37804 v 1.384928 z m 0,-1.384928 v -1.384929 h 1.37804 v 1.384929 z m -1.38493,-2.735406 v -1.384928 h 1.38493 v 1.384928 z m 1.38493,10.996744 v 1.364258 h -1.38493 v -1.364258 z m -1.38493,0 v -1.350477 h 1.38493 v 1.350477 z m 0,-1.350477 v -1.384928 h 1.38493 v 1.384928 z m 0,-1.384928 V 63.76093 h 1.38493 v 1.378039 z m 0,-1.378039 v -1.384928 h 1.38493 v 1.384928 z m 0,-1.384928 v -1.378038 h 1.38493 v 1.378038 z m 0,-1.378038 v -1.384928 h 1.38493 v 1.384928 z m 0,-1.384928 v -1.384929 h 1.38493 v 1.384929 z M 120.1039,56.87763 v -1.384928 h 1.38493 v 1.384928 z m 1.38493,10.996744 v 1.364258 h -1.38493 v -1.364258 z m -1.38493,0 v -1.350477 h 1.38493 v 1.350477 z M 118.75342,56.87763 v -1.384928 h 1.35048 v 1.384928 z m 1.35048,10.996744 v 1.364258 h -1.35048 v -1.364258 z m -1.35048,0 v -1.350477 h 1.35048 v 1.350477 z M 117.3685,56.87763 v -1.384928 h 1.38492 v 1.384928 z m 0,10.996744 v -1.350477 h 1.38492 v 1.350477 z m 0,-1.350477 v -1.384928 h 1.38492 v 1.384928 z m 0,-1.384928 V 63.76093 h 1.38492 v 1.378039 z m 0,-1.378039 v -1.384928 h 1.38492 v 1.384928 z m 0,-1.384928 v -1.378038 h 1.38492 v 1.378038 z m 0,-1.378038 v -1.384928 h 1.38492 v 1.384928 z m 0,-1.384928 v -1.384929 h 1.38492 v 1.384929 z m -1.37804,-2.735406 v -1.384928 h 1.37804 v 1.384928 z m 0,2.735406 v -1.384929 h 1.37804 v 1.384929 z m -1.38493,-2.735406 v -1.384928 h 1.38493 v 1.384928 z m 0,2.735406 v -1.384929 h 1.38493 v 1.384929 z m 0,-1.384929 V 56.87763 h 1.38493 v 1.350477 z"
           style="font-style:normal;font-variant:normal;font-weight:normal;font-stretch:normal;font-size:14.11111069px;line-height:0px;font-family:'Karmatic Arcade';-inkscape-font-specification:'Karmatic Arcade';fill:#ffffff;stroke-width:0.26458332"
           id="path284"
           inkscape:connector-curvature="0" />
        <path
           d="m 139.39644,67.874374 v 1.364258 h -1.35737 v -1.364258 z m -1.35737,0 v -1.350477 h 1.35737 v 1.350477 z m 0,-1.350477 v -1.384928 h 1.35737 v 1.384928 z m 0,-1.384928 V 63.76093 h 1.35737 v 1.378039 z m 0,-1.378039 v -1.384928 h 1.35737 v 1.384928 z m 0,-1.384928 v -1.378038 h 1.35737 v 1.378038 z m 0,-1.378038 v -1.384928 h 1.35737 v 1.384928 z m 0,-1.384928 v -1.384929 h 1.35737 v 1.384929 z m 0,-1.384929 V 56.87763 h 1.35737 v 1.350477 z m -1.37804,-1.350477 v -1.384928 h 1.37804 v 1.384928 z m 1.37804,10.996744 v 1.364258 h -1.37804 v -1.364258 z m -1.37804,0 v -1.350477 h 1.37804 v 1.350477 z m 0,-1.350477 v -1.384928 h 1.37804 v 1.384928 z m 0,-1.384928 V 63.76093 h 1.37804 v 1.378039 z m 0,-1.378039 v -1.384928 h 1.37804 v 1.384928 z m 0,-1.384928 v -1.378038 h 1.37804 v 1.378038 z m 0,-1.378038 v -1.384928 h 1.37804 v 1.384928 z m 0,-1.384928 v -1.384929 h 1.37804 v 1.384929 z m 0,-1.384929 V 56.87763 h 1.37804 v 1.350477 z M 135.2761,56.87763 v -1.384928 h 1.38493 v 1.384928 z m 1.38493,10.996744 v 1.364258 h -1.38493 v -1.364258 z m -1.38493,0 v -1.350477 h 1.38493 v 1.350477 z M 133.89807,56.87763 v -1.384928 h 1.37803 v 1.384928 z m 1.37803,10.996744 v 1.364258 h -1.37803 v -1.364258 z m -1.37803,0 v -1.350477 h 1.37803 v 1.350477 z M 132.51314,56.87763 v -1.384928 h 1.38493 v 1.384928 z m 0,10.996744 v -1.350477 h 1.38493 v 1.350477 z m 0,-1.350477 v -1.384928 h 1.38493 v 1.384928 z m 0,-1.384928 V 63.76093 h 1.38493 v 1.378039 z m 0,-1.378039 v -1.384928 h 1.38493 v 1.384928 z m 0,-2.762966 v -1.384928 h 1.38493 v 1.384928 z m 0,-1.384928 v -1.384929 h 1.38493 v 1.384929 z m 0,-1.384929 V 56.87763 h 1.38493 v 1.350477 z m 0,9.646267 v 1.364258 h -1.38493 v -1.364258 z m -1.38493,0 v -1.350477 h 1.38493 v 1.350477 z m 0,-1.350477 v -1.384928 h 1.38493 v 1.384928 z m 0,-1.384928 V 63.76093 h 1.38493 v 1.378039 z m 0,-1.378039 v -1.384928 h 1.38493 v 1.384928 z m 0,-2.762966 v -1.384928 h 1.38493 v 1.384928 z m 0,-1.384928 v -1.384929 h 1.38493 v 1.384929 z m 0,-1.384929 V 56.87763 h 1.38493 v 1.350477 z m -1.35048,-1.350477 v -1.384928 h 1.35048 v 1.384928 z m 1.35048,10.996744 v 1.364258 h -1.35048 v -1.364258 z m -1.35048,0 v -1.350477 h 1.35048 v 1.350477 z m 0,-1.350477 v -1.384928 h 1.35048 v 1.384928 z m 0,-1.384928 V 63.76093 h 1.35048 v 1.378039 z m 0,-1.378039 v -1.384928 h 1.35048 v 1.384928 z m 0,-2.762966 v -1.384928 h 1.35048 v 1.384928 z m 0,-1.384928 v -1.384929 h 1.35048 v 1.384929 z m 0,-1.384929 V 56.87763 h 1.35048 v 1.350477 z M 128.3928,56.87763 v -1.384928 h 1.38493 v 1.384928 z m 1.38493,10.996744 v 1.364258 h -1.38493 v -1.364258 z m -1.38493,0 v -1.350477 h 1.38493 v 1.350477 z M 127.01476,56.87763 v -1.384928 h 1.37804 v 1.384928 z m 1.37804,10.996744 v 1.364258 h -1.37804 v -1.364258 z m -1.37804,0 v -1.350477 h 1.37804 v 1.350477 z M 125.62984,56.87763 v -1.384928 h 1.38492 v 1.384928 z m 0,10.996744 v -1.350477 h 1.38492 v 1.350477 z m 0,-1.350477 v -1.384928 h 1.38492 v 1.384928 z m 0,-1.384928 V 63.76093 h 1.38492 v 1.378039 z m 0,-1.378039 v -1.384928 h 1.38492 v 1.384928 z m 0,-1.384928 v -1.378038 h 1.38492 v 1.378038 z m 0,-1.378038 v -1.384928 h 1.38492 v 1.384928 z m 0,-1.384928 v -1.384929 h 1.38492 v 1.384929 z m 0,-1.384929 V 56.87763 h 1.38492 v 1.350477 z"
           style="font-style:normal;font-variant:normal;font-weight:normal;font-stretch:normal;font-size:14.11111069px;line-height:0px;font-family:'Karmatic Arcade';-inkscape-font-specification:'Karmatic Arcade';fill:#ffffff;stroke-width:0.26458332"
           id="path286"
           inkscape:connector-curvature="0" />
        <path
           d="m 151.79878,67.874374 v 1.364258 h -1.35737 v -1.364258 z m -1.35737,0 v -1.350477 h 1.35737 v 1.350477 z m 0,-1.350477 v -1.384928 h 1.35737 v 1.384928 z m 0,-5.525933 v -1.384928 h 1.35737 v 1.384928 z m 0,-1.384928 v -1.384929 h 1.35737 v 1.384929 z m 0,-1.384929 V 56.87763 h 1.35737 v 1.350477 z m -1.37803,-1.350477 v -1.384928 h 1.37803 v 1.384928 z m 1.37803,10.996744 v 1.364258 h -1.37803 v -1.364258 z m -1.37803,0 v -1.350477 h 1.37803 v 1.350477 z m 0,-1.350477 v -1.384928 h 1.37803 v 1.384928 z m 0,-1.384928 V 63.76093 h 1.37803 v 1.378039 z m 0,-1.378039 v -1.384928 h 1.37803 v 1.384928 z m 0,-1.384928 v -1.378038 h 1.37803 v 1.378038 z m 0,-1.378038 v -1.384928 h 1.37803 v 1.384928 z m 0,-1.384928 v -1.384929 h 1.37803 v 1.384929 z m 0,-1.384929 V 56.87763 h 1.37803 v 1.350477 z m -1.38493,-1.350477 v -1.384928 h 1.38493 v 1.384928 z m 1.38493,10.996744 v 1.364258 h -1.38493 v -1.364258 z m -1.38493,0 v -1.350477 h 1.38493 v 1.350477 z m 0,-2.735405 V 63.76093 h 1.38493 v 1.378039 z m 0,-1.378039 v -1.384928 h 1.38493 v 1.384928 z m 0,-1.384928 v -1.378038 h 1.38493 v 1.378038 z m 0,-1.378038 v -1.384928 h 1.38493 v 1.384928 z m 0,-1.384928 v -1.384929 h 1.38493 v 1.384929 z m -1.37804,-2.735406 v -1.384928 h 1.37804 v 1.384928 z m 1.37804,10.996744 v 1.364258 h -1.37804 v -1.364258 z m -1.37804,0 v -1.350477 h 1.37804 v 1.350477 z m 0,-2.735405 V 63.76093 h 1.37804 v 1.378039 z m 0,-1.378039 v -1.384928 h 1.37804 v 1.384928 z m 0,-2.762966 v -1.384928 h 1.37804 v 1.384928 z m 0,-1.384928 v -1.384929 h 1.37804 v 1.384929 z m -1.38493,-2.735406 v -1.384928 h 1.38493 v 1.384928 z m 1.38493,10.996744 v 1.364258 h -1.38493 v -1.364258 z m -1.38493,0 v -1.350477 h 1.38493 v 1.350477 z m 0,-2.735405 V 63.76093 h 1.38493 v 1.378039 z m 0,-1.378039 v -1.384928 h 1.38493 v 1.384928 z m 0,-2.762966 v -1.384928 h 1.38493 v 1.384928 z m 0,-1.384928 v -1.384929 h 1.38493 v 1.384929 z m -1.38493,-2.735406 v -1.384928 h 1.38493 v 1.384928 z m 1.38493,10.996744 v 1.364258 h -1.38493 v -1.364258 z m -1.38493,0 v -1.350477 h 1.38493 v 1.350477 z m 0,-2.735405 V 63.76093 h 1.38493 v 1.378039 z m 0,-1.378039 v -1.384928 h 1.38493 v 1.384928 z m 0,-2.762966 v -1.384928 h 1.38493 v 1.384928 z m 0,-1.384928 v -1.384929 h 1.38493 v 1.384929 z m -1.35047,-2.735406 v -1.384928 h 1.35047 v 1.384928 z m 1.35047,10.996744 v 1.364258 h -1.35047 v -1.364258 z m -1.35047,0 v -1.350477 h 1.35047 v 1.350477 z m 0,-2.735405 V 63.76093 h 1.35047 v 1.378039 z m 0,-1.378039 v -1.384928 h 1.35047 v 1.384928 z m 0,-2.762966 v -1.384928 h 1.35047 v 1.384928 z m 0,-1.384928 v -1.384929 h 1.35047 v 1.384929 z m -1.38493,-2.735406 v -1.384928 h 1.38493 v 1.384928 z m 1.38493,10.996744 v 1.364258 h -1.38493 v -1.364258 z m -1.38493,0 v -1.350477 h 1.38493 v 1.350477 z M 139.41711,56.87763 v -1.384928 h 1.37804 v 1.384928 z m 1.37804,10.996744 v 1.364258 h -1.37804 v -1.364258 z m -1.37804,0 v -1.350477 h 1.37804 v 1.350477 z M 138.03218,56.87763 v -1.384928 h 1.38493 v 1.384928 z m 0,10.996744 v -1.350477 h 1.38493 v 1.350477 z m 0,-1.350477 v -1.384928 h 1.38493 v 1.384928 z m 0,-1.384928 V 63.76093 h 1.38493 v 1.378039 z m 0,-1.378039 v -1.384928 h 1.38493 v 1.384928 z m 0,-1.384928 v -1.378038 h 1.38493 v 1.378038 z m 0,-1.378038 v -1.384928 h 1.38493 v 1.384928 z m 0,-1.384928 v -1.384929 h 1.38493 v 1.384929 z m 0,-1.384929 V 56.87763 h 1.38493 v 1.350477 z"
           style="font-style:normal;font-variant:normal;font-weight:normal;font-stretch:normal;font-size:14.11111069px;line-height:0px;font-family:'Karmatic Arcade';-inkscape-font-specification:'Karmatic Arcade';fill:#ffffff;stroke-width:0.26458332"
           id="path288"
           inkscape:connector-curvature="0" />
        <path
           d="m 168.11476,67.874374 v 1.364258 h -1.35737 v -1.364258 z m -1.35737,0 v -1.350477 h 1.35737 v 1.350477 z m 0,-1.350477 v -1.384928 h 1.35737 v 1.384928 z m 0,-1.384928 V 63.76093 h 1.35737 v 1.378039 z m 0,-1.378039 v -1.384928 h 1.35737 v 1.384928 z m 0,-1.384928 v -1.378038 h 1.35737 v 1.378038 z m 0,-1.378038 v -1.384928 h 1.35737 v 1.384928 z m 0,-1.384928 v -1.384929 h 1.35737 v 1.384929 z m 0,-1.384929 V 56.87763 h 1.35737 v 1.350477 z m -1.37804,-1.350477 v -1.384928 h 1.37804 v 1.384928 z m 1.37804,10.996744 v 1.364258 h -1.37804 v -1.364258 z m -1.37804,0 v -1.350477 h 1.37804 v 1.350477 z m 0,-1.350477 v -1.384928 h 1.37804 v 1.384928 z m 0,-1.384928 V 63.76093 h 1.37804 v 1.378039 z m 0,-1.378039 v -1.384928 h 1.37804 v 1.384928 z m 0,-1.384928 v -1.378038 h 1.37804 v 1.378038 z m 0,-1.378038 v -1.384928 h 1.37804 v 1.384928 z m 0,-1.384928 v -1.384929 h 1.37804 v 1.384929 z m 0,-1.384929 V 56.87763 h 1.37804 v 1.350477 z m -1.38492,-1.350477 v -1.384928 h 1.38492 v 1.384928 z m 1.38492,10.996744 v 1.364258 h -1.38492 v -1.364258 z m -1.38492,0 v -1.350477 h 1.38492 v 1.350477 z M 162.61639,56.87763 v -1.384928 h 1.37804 v 1.384928 z m 1.37804,10.996744 v 1.364258 h -1.37804 v -1.364258 z m -1.37804,0 v -1.350477 h 1.37804 v 1.350477 z M 161.23146,56.87763 v -1.384928 h 1.38493 v 1.384928 z m 0,10.996744 v -1.350477 h 1.38493 v 1.350477 z m 0,-1.350477 v -1.384928 h 1.38493 v 1.384928 z m 0,-4.147895 v -1.378038 h 1.38493 v 1.378038 z m 0,-1.378038 v -1.384928 h 1.38493 v 1.384928 z m 0,-1.384928 v -1.384929 h 1.38493 v 1.384929 z m 0,-1.384929 V 56.87763 h 1.38493 v 1.350477 z m 0,9.646267 v 1.364258 h -1.38493 v -1.364258 z m -1.38493,0 v -1.350477 h 1.38493 v 1.350477 z m 0,-1.350477 v -1.384928 h 1.38493 v 1.384928 z m 0,-1.384928 V 63.76093 h 1.38493 v 1.378039 z m 0,-4.141005 v -1.384928 h 1.38493 v 1.384928 z m 0,-1.384928 v -1.384929 h 1.38493 v 1.384929 z m 0,-1.384929 V 56.87763 h 1.38493 v 1.350477 z m -1.35048,-1.350477 v -1.384928 h 1.35048 v 1.384928 z m 1.35048,10.996744 v 1.364258 h -1.35048 v -1.364258 z m -1.35048,0 v -1.350477 h 1.35048 v 1.350477 z m 0,-1.350477 v -1.384928 h 1.35048 v 1.384928 z m 0,-4.147895 v -1.378038 h 1.35048 v 1.378038 z m 0,-1.378038 v -1.384928 h 1.35048 v 1.384928 z m 0,-1.384928 v -1.384929 h 1.35048 v 1.384929 z m 0,-1.384929 V 56.87763 h 1.35048 v 1.350477 z m -1.38492,-1.350477 v -1.384928 h 1.38492 v 1.384928 z m 1.38492,10.996744 v 1.364258 h -1.38492 v -1.364258 z m -1.38492,0 v -1.350477 h 1.38492 v 1.350477 z M 155.73309,56.87763 v -1.384928 h 1.37804 v 1.384928 z m 1.37804,10.996744 v 1.364258 h -1.37804 v -1.364258 z m -1.37804,0 v -1.350477 h 1.37804 v 1.350477 z M 154.34816,56.87763 v -1.384928 h 1.38493 v 1.384928 z m 0,10.996744 v -1.350477 h 1.38493 v 1.350477 z m 0,-1.350477 v -1.384928 h 1.38493 v 1.384928 z m 0,-1.384928 V 63.76093 h 1.38493 v 1.378039 z m 0,-1.378039 v -1.384928 h 1.38493 v 1.384928 z m 0,-1.384928 v -1.378038 h 1.38493 v 1.378038 z m 0,-1.378038 v -1.384928 h 1.38493 v 1.384928 z m 0,-1.384928 v -1.384929 h 1.38493 v 1.384929 z m 0,-1.384929 V 56.87763 h 1.38493 v 1.350477 z"
           style="font-style:normal;font-variant:normal;font-weight:normal;font-stretch:normal;font-size:14.11111069px;line-height:0px;font-family:'Karmatic Arcade';-inkscape-font-specification:'Karmatic Arcade';fill:#ffffff;stroke-width:0.26458332"
           id="path290"
           inkscape:connector-curvature="0" />
        <path
           d="m 180.5171,67.874374 v 1.364258 h -1.35736 v -1.364258 z m -1.35736,0 v -1.350477 h 1.35736 v 1.350477 z m 0,-1.350477 v -1.384928 h 1.35736 v 1.384928 z m 0,-5.525933 v -1.384928 h 1.35736 v 1.384928 z m 0,-1.384928 v -1.384929 h 1.35736 v 1.384929 z m 0,-1.384929 V 56.87763 h 1.35736 v 1.350477 z M 177.7817,56.87763 v -1.384928 h 1.37804 v 1.384928 z m 1.37804,10.996744 v 1.364258 h -1.37804 v -1.364258 z m -1.37804,0 v -1.350477 h 1.37804 v 1.350477 z m 0,-1.350477 v -1.384928 h 1.37804 v 1.384928 z m 0,-1.384928 V 63.76093 h 1.37804 v 1.378039 z m 0,-1.378039 v -1.384928 h 1.37804 v 1.384928 z m 0,-1.384928 v -1.378038 h 1.37804 v 1.378038 z m 0,-1.378038 v -1.384928 h 1.37804 v 1.384928 z m 0,-1.384928 v -1.384929 h 1.37804 v 1.384929 z m 0,-1.384929 V 56.87763 h 1.37804 v 1.350477 z m -1.38493,-1.350477 v -1.384928 h 1.38493 v 1.384928 z m 1.38493,10.996744 v 1.364258 h -1.38493 v -1.364258 z m -1.38493,0 v -1.350477 h 1.38493 v 1.350477 z m 0,-2.735405 V 63.76093 h 1.38493 v 1.378039 z m 0,-1.378039 v -1.384928 h 1.38493 v 1.384928 z m 0,-1.384928 v -1.378038 h 1.38493 v 1.378038 z m 0,-1.378038 v -1.384928 h 1.38493 v 1.384928 z m 0,-1.384928 v -1.384929 h 1.38493 v 1.384929 z m -1.37804,-2.735406 v -1.384928 h 1.37804 v 1.384928 z m 1.37804,10.996744 v 1.364258 h -1.37804 v -1.364258 z m -1.37804,0 v -1.350477 h 1.37804 v 1.350477 z m 0,-2.735405 V 63.76093 h 1.37804 v 1.378039 z m 0,-1.378039 v -1.384928 h 1.37804 v 1.384928 z m 0,-2.762966 v -1.384928 h 1.37804 v 1.384928 z m 0,-1.384928 v -1.384929 h 1.37804 v 1.384929 z M 173.6338,56.87763 v -1.384928 h 1.38493 v 1.384928 z m 1.38493,10.996744 v 1.364258 h -1.38493 v -1.364258 z m -1.38493,0 v -1.350477 h 1.38493 v 1.350477 z m 0,-2.735405 V 63.76093 h 1.38493 v 1.378039 z m 0,-1.378039 v -1.384928 h 1.38493 v 1.384928 z m 0,-2.762966 v -1.384928 h 1.38493 v 1.384928 z m 0,-1.384928 v -1.384929 h 1.38493 v 1.384929 z m -1.38492,-2.735406 v -1.384928 h 1.38492 v 1.384928 z m 1.38492,10.996744 v 1.364258 h -1.38492 v -1.364258 z m -1.38492,0 v -1.350477 h 1.38492 v 1.350477 z m 0,-2.735405 V 63.76093 h 1.38492 v 1.378039 z m 0,-1.378039 v -1.384928 h 1.38492 v 1.384928 z m 0,-2.762966 v -1.384928 h 1.38492 v 1.384928 z m 0,-1.384928 v -1.384929 h 1.38492 v 1.384929 z M 170.8984,56.87763 v -1.384928 h 1.35048 v 1.384928 z m 1.35048,10.996744 v 1.364258 h -1.35048 v -1.364258 z m -1.35048,0 v -1.350477 h 1.35048 v 1.350477 z m 0,-2.735405 V 63.76093 h 1.35048 v 1.378039 z m 0,-1.378039 v -1.384928 h 1.35048 v 1.384928 z m 0,-2.762966 v -1.384928 h 1.35048 v 1.384928 z m 0,-1.384928 v -1.384929 h 1.35048 v 1.384929 z m -1.38493,-2.735406 v -1.384928 h 1.38493 v 1.384928 z m 1.38493,10.996744 v 1.364258 h -1.38493 v -1.364258 z m -1.38493,0 v -1.350477 h 1.38493 v 1.350477 z M 168.13543,56.87763 v -1.384928 h 1.37804 v 1.384928 z m 1.37804,10.996744 v 1.364258 h -1.37804 v -1.364258 z m -1.37804,0 v -1.350477 h 1.37804 v 1.350477 z M 166.7505,56.87763 v -1.384928 h 1.38493 v 1.384928 z m 0,10.996744 v -1.350477 h 1.38493 v 1.350477 z m 0,-1.350477 v -1.384928 h 1.38493 v 1.384928 z m 0,-1.384928 V 63.76093 h 1.38493 v 1.378039 z m 0,-1.378039 v -1.384928 h 1.38493 v 1.384928 z m 0,-1.384928 v -1.378038 h 1.38493 v 1.378038 z m 0,-1.378038 v -1.384928 h 1.38493 v 1.384928 z m 0,-1.384928 v -1.384929 h 1.38493 v 1.384929 z m 0,-1.384929 V 56.87763 h 1.38493 v 1.350477 z"
           style="font-style:normal;font-variant:normal;font-weight:normal;font-stretch:normal;font-size:14.11111069px;line-height:0px;font-family:'Karmatic Arcade';-inkscape-font-specification:'Karmatic Arcade';fill:#ffffff;stroke-width:0.26458332"
           id="path292"
           inkscape:connector-curvature="0" />
        <path
           d="m 192.91945,67.874374 v 1.364258 h -1.35737 v -1.364258 z m -1.35737,0 v -1.350477 h 1.35737 v 1.350477 z m 0,-1.350477 v -1.384928 h 1.35737 v 1.384928 z m 0,-5.525933 v -1.384928 h 1.35737 v 1.384928 z m 0,-1.384928 v -1.384929 h 1.35737 v 1.384929 z m 0,-1.384929 V 56.87763 h 1.35737 v 1.350477 z m -1.37804,-1.350477 v -1.384928 h 1.37804 v 1.384928 z m 1.37804,10.996744 v 1.364258 h -1.37804 v -1.364258 z m -1.37804,0 v -1.350477 h 1.37804 v 1.350477 z m 0,-1.350477 v -1.384928 h 1.37804 v 1.384928 z m 0,-1.384928 V 63.76093 h 1.37804 v 1.378039 z m 0,-1.378039 v -1.384928 h 1.37804 v 1.384928 z m 0,-1.384928 v -1.378038 h 1.37804 v 1.378038 z m 0,-1.378038 v -1.384928 h 1.37804 v 1.384928 z m 0,-1.384928 v -1.384929 h 1.37804 v 1.384929 z m 0,-1.384929 V 56.87763 h 1.37804 v 1.350477 z m -1.38493,-1.350477 v -1.384928 h 1.38493 v 1.384928 z m 1.38493,10.996744 v 1.364258 h -1.38493 v -1.364258 z m -1.38493,0 v -1.350477 h 1.38493 v 1.350477 z m 0,-2.735405 V 63.76093 h 1.38493 v 1.378039 z m 0,-1.378039 v -1.384928 h 1.38493 v 1.384928 z m 0,-1.384928 v -1.378038 h 1.38493 v 1.378038 z m 0,-1.378038 v -1.384928 h 1.38493 v 1.384928 z m 0,-1.384928 v -1.384929 h 1.38493 v 1.384929 z m -1.37803,-2.735406 v -1.384928 h 1.37803 v 1.384928 z m 1.37803,10.996744 v 1.364258 h -1.37803 v -1.364258 z m -1.37803,0 v -1.350477 h 1.37803 v 1.350477 z m 0,-2.735405 V 63.76093 h 1.37803 v 1.378039 z m 0,-1.378039 v -1.384928 h 1.37803 v 1.384928 z m 0,-2.762966 v -1.384928 h 1.37803 v 1.384928 z m 0,-1.384928 v -1.384929 h 1.37803 v 1.384929 z m -1.38493,-2.735406 v -1.384928 h 1.38493 v 1.384928 z m 1.38493,10.996744 v 1.364258 h -1.38493 v -1.364258 z m -1.38493,0 v -1.350477 h 1.38493 v 1.350477 z m 0,-2.735405 V 63.76093 h 1.38493 v 1.378039 z m 0,-1.378039 v -1.384928 h 1.38493 v 1.384928 z m 0,-2.762966 v -1.384928 h 1.38493 v 1.384928 z m 0,-1.384928 v -1.384929 h 1.38493 v 1.384929 z m -1.38493,-2.735406 v -1.384928 h 1.38493 v 1.384928 z m 1.38493,10.996744 v 1.364258 h -1.38493 v -1.364258 z m -1.38493,0 v -1.350477 h 1.38493 v 1.350477 z m 0,-2.735405 V 63.76093 h 1.38493 v 1.378039 z m 0,-1.378039 v -1.384928 h 1.38493 v 1.384928 z m 0,-2.762966 v -1.384928 h 1.38493 v 1.384928 z m 0,-1.384928 v -1.384929 h 1.38493 v 1.384929 z m -1.35048,-2.735406 v -1.384928 h 1.35048 v 1.384928 z m 1.35048,10.996744 v 1.364258 h -1.35048 v -1.364258 z m -1.35048,0 v -1.350477 h 1.35048 v 1.350477 z m 0,-2.735405 V 63.76093 h 1.35048 v 1.378039 z m 0,-1.378039 v -1.384928 h 1.35048 v 1.384928 z m 0,-2.762966 v -1.384928 h 1.35048 v 1.384928 z m 0,-1.384928 v -1.384929 h 1.35048 v 1.384929 z m -1.38493,-2.735406 v -1.384928 h 1.38493 v 1.384928 z m 1.38493,10.996744 v 1.364258 h -1.38493 v -1.364258 z m -1.38493,0 v -1.350477 h 1.38493 v 1.350477 z M 180.53778,56.87763 v -1.384928 h 1.37803 v 1.384928 z m 1.37803,10.996744 v 1.364258 h -1.37803 v -1.364258 z m -1.37803,0 v -1.350477 h 1.37803 v 1.350477 z M 179.15285,56.87763 v -1.384928 h 1.38493 v 1.384928 z m 0,10.996744 v -1.350477 h 1.38493 v 1.350477 z m 0,-1.350477 v -1.384928 h 1.38493 v 1.384928 z m 0,-1.384928 V 63.76093 h 1.38493 v 1.378039 z m 0,-1.378039 v -1.384928 h 1.38493 v 1.384928 z m 0,-1.384928 v -1.378038 h 1.38493 v 1.378038 z m 0,-1.378038 v -1.384928 h 1.38493 v 1.384928 z m 0,-1.384928 v -1.384929 h 1.38493 v 1.384929 z m 0,-1.384929 V 56.87763 h 1.38493 v 1.350477 z"
           style="font-style:normal;font-variant:normal;font-weight:normal;font-stretch:normal;font-size:14.11111069px;line-height:0px;font-family:'Karmatic Arcade';-inkscape-font-specification:'Karmatic Arcade';fill:#ffffff;stroke-width:0.26458332"
           id="path294"
           inkscape:connector-curvature="0" />
        <path
           d="m 205.32179,67.874374 v 1.364258 h -1.35737 v -1.364258 z m -1.35737,0 v -1.350477 h 1.35737 v 1.350477 z m 0,-1.350477 v -1.384928 h 1.35737 v 1.384928 z m 0,-5.525933 v -1.384928 h 1.35737 v 1.384928 z m 0,-1.384928 v -1.384929 h 1.35737 v 1.384929 z m 0,-1.384929 V 56.87763 h 1.35737 v 1.350477 z m -1.37803,-1.350477 v -1.384928 h 1.37803 v 1.384928 z m 1.37803,10.996744 v 1.364258 h -1.37803 v -1.364258 z m -1.37803,0 v -1.350477 h 1.37803 v 1.350477 z m 0,-1.350477 v -1.384928 h 1.37803 v 1.384928 z m 0,-1.384928 V 63.76093 h 1.37803 v 1.378039 z m 0,-2.762967 v -1.378038 h 1.37803 v 1.378038 z m 0,-1.378038 v -1.384928 h 1.37803 v 1.384928 z m 0,-1.384928 v -1.384929 h 1.37803 v 1.384929 z m 0,-1.384929 V 56.87763 h 1.37803 v 1.350477 z m -1.38493,-1.350477 v -1.384928 h 1.38493 v 1.384928 z m 1.38493,10.996744 v 1.364258 h -1.38493 v -1.364258 z m -1.38493,0 v -1.350477 h 1.38493 v 1.350477 z m 0,-2.735405 V 63.76093 h 1.38493 v 1.378039 z m 0,-1.378039 v -1.384928 h 1.38493 v 1.384928 z m 0,-1.384928 v -1.378038 h 1.38493 v 1.378038 z m 0,-1.378038 v -1.384928 h 1.38493 v 1.384928 z m 0,-1.384928 v -1.384929 h 1.38493 v 1.384929 z m -1.37804,-2.735406 v -1.384928 h 1.37804 v 1.384928 z m 1.37804,10.996744 v 1.364258 h -1.37804 v -1.364258 z m -1.37804,0 v -1.350477 h 1.37804 v 1.350477 z m 0,-4.113444 v -1.384928 h 1.37804 v 1.384928 z m 0,-1.384928 v -1.378038 h 1.37804 v 1.378038 z m 0,-1.378038 v -1.384928 h 1.37804 v 1.384928 z m -1.38493,-4.120334 v -1.384928 h 1.38493 v 1.384928 z m 0,10.996744 v -1.350477 h 1.38493 v 1.350477 z m 0,-1.350477 v -1.384928 h 1.38493 v 1.384928 z m 0,-4.147895 v -1.378038 h 1.38493 v 1.378038 z m 0,-4.147895 V 56.87763 h 1.38493 v 1.350477 z m 0,9.646267 v 1.364258 h -1.38493 v -1.364258 z m -1.38493,0 v -1.350477 h 1.38493 v 1.350477 z m 0,-1.350477 v -1.384928 h 1.38493 v 1.384928 z m 0,-1.384928 V 63.76093 h 1.38493 v 1.378039 z m 0,-5.525933 v -1.384929 h 1.38493 v 1.384929 z m 0,-1.384929 V 56.87763 h 1.38493 v 1.350477 z m -1.35047,-1.350477 v -1.384928 h 1.35047 v 1.384928 z m 1.35047,10.996744 v 1.364258 h -1.35047 v -1.364258 z m -1.35047,0 v -1.350477 h 1.35047 v 1.350477 z m 0,-1.350477 v -1.384928 h 1.35047 v 1.384928 z m 0,-1.384928 V 63.76093 h 1.35047 v 1.378039 z m 0,-1.378039 v -1.384928 h 1.35047 v 1.384928 z m 0,-2.762966 v -1.384928 h 1.35047 v 1.384928 z m 0,-1.384928 v -1.384929 h 1.35047 v 1.384929 z m 0,-1.384929 V 56.87763 h 1.35047 v 1.350477 z m -1.38493,-1.350477 v -1.384928 h 1.38493 v 1.384928 z m 1.38493,10.996744 v 1.364258 h -1.38493 v -1.364258 z m -1.38493,0 v -1.350477 h 1.38493 v 1.350477 z M 192.94012,56.87763 v -1.384928 h 1.37804 v 1.384928 z m 1.37804,10.996744 v 1.364258 h -1.37804 v -1.364258 z m -1.37804,0 v -1.350477 h 1.37804 v 1.350477 z M 191.55519,56.87763 v -1.384928 h 1.38493 v 1.384928 z m 0,10.996744 v -1.350477 h 1.38493 v 1.350477 z m 0,-1.350477 v -1.384928 h 1.38493 v 1.384928 z m 0,-1.384928 V 63.76093 h 1.38493 v 1.378039 z m 0,-1.378039 v -1.384928 h 1.38493 v 1.384928 z m 0,-1.384928 v -1.378038 h 1.38493 v 1.378038 z m 0,-1.378038 v -1.384928 h 1.38493 v 1.384928 z m 0,-1.384928 v -1.384929 h 1.38493 v 1.384929 z m 0,-1.384929 V 56.87763 h 1.38493 v 1.350477 z"
           style="font-style:normal;font-variant:normal;font-weight:normal;font-stretch:normal;font-size:14.11111069px;line-height:0px;font-family:'Karmatic Arcade';-inkscape-font-specification:'Karmatic Arcade';fill:#ffffff;stroke-width:0.26458332"
           id="path296"
           inkscape:connector-curvature="0" />
      </g>
    </g>
  </g>
</svg>
