<?xml version="1.0" encoding="UTF-8" standalone="no"?>
<!-- Created with Inkscape (http://www.inkscape.org/) -->

<svg
   xmlns:dc="http://purl.org/dc/elements/1.1/"
   xmlns:cc="http://creativecommons.org/ns#"
   xmlns:rdf="http://www.w3.org/1999/02/22-rdf-syntax-ns#"
   xmlns:svg="http://www.w3.org/2000/svg"
   xmlns="http://www.w3.org/2000/svg"
   xmlns:sodipodi="http://sodipodi.sourceforge.net/DTD/sodipodi-0.dtd"
   xmlns:inkscape="http://www.inkscape.org/namespaces/inkscape"
   width="208.80724mm"
   height="65.145386mm"
   viewBox="0 0 208.80724 65.145386"
   version="1.1"
   id="svg3736"
   inkscape:version="0.92.2 (30a58d1, 2017-08-07)"
   sodipodi:docname="MAME-ROP.svg">
  <defs
     id="defs3730" />
  <sodipodi:namedview
     id="base"
     pagecolor="#ffffff"
     bordercolor="#666666"
     borderopacity="1.0"
     inkscape:pageopacity="0.0"
     inkscape:pageshadow="2"
     inkscape:zoom="0.7"
     inkscape:cx="282.08709"
     inkscape:cy="-116.58628"
     inkscape:document-units="mm"
     inkscape:current-layer="layer1"
     showgrid="false"
     inkscape:pagecheckerboard="true"
     inkscape:snap-global="false"
     inkscape:window-width="1280"
     inkscape:window-height="740"
     inkscape:window-x="0"
     inkscape:window-y="28"
     inkscape:window-maximized="1" />
  <metadata
     id="metadata3733">
    <rdf:RDF>
      <cc:Work
         rdf:about="">
        <dc:format>image/svg+xml</dc:format>
        <dc:type
           rdf:resource="http://purl.org/dc/dcmitype/StillImage" />
        <dc:title></dc:title>
      </cc:Work>
    </rdf:RDF>
  </metadata>
  <g
     inkscape:label="Layer 1"
     inkscape:groupmode="layer"
     id="layer1"
     transform="translate(-0.98273832,-1.6742041)">
    <g
       aria-label="MAME"
       style="font-style:normal;font-weight:normal;font-size:10.58333302px;line-height:1.25;font-family:sans-serif;letter-spacing:0px;word-spacing:0px;fill:#ffffff;fill-opacity:1;stroke:none;stroke-width:0.26458332"
       id="text3740">
      <path
         d="m 63.193587,46.248227 v 4.911328 h -4.886523 v -4.911328 z m -4.886523,0 v -4.861719 h 4.886523 v 4.861719 z m 0,-4.861719 v -4.985742 h 4.886523 v 4.985742 z m 0,-4.985742 v -4.960937 h 4.886523 v 4.960937 z m 0,-4.960937 v -4.985742 h 4.886523 v 4.985742 z m 0,-4.985742 v -4.960938 h 4.886523 v 4.960938 z m 0,-4.960938 v -4.985742 h 4.886523 v 4.985742 z m 0,-4.985742 v -4.985742 h 4.886523 v 4.985742 z m 0,-4.985742 V 6.6599462 h 4.886523 V 11.521665 Z M 53.346127,6.6599462 V 1.6742041 h 4.960937 v 4.9857421 z m 4.960937,39.5882808 v 4.911328 h -4.960937 v -4.911328 z m -4.960937,0 v -4.861719 h 4.960937 v 4.861719 z m 0,-4.861719 v -4.985742 h 4.960937 v 4.985742 z m 0,-4.985742 v -4.960937 h 4.960937 v 4.960937 z m 0,-4.960937 v -4.985742 h 4.960937 v 4.985742 z m 0,-4.985742 v -4.960938 h 4.960937 v 4.960938 z m 0,-4.960938 v -4.985742 h 4.960937 v 4.985742 z m 0,-4.985742 v -4.985742 h 4.960937 v 4.985742 z m 0,-4.985742 V 6.6599462 h 4.960937 V 11.521665 Z M 48.360384,6.6599462 V 1.6742041 h 4.985743 v 4.9857421 z m 4.985743,39.5882808 v 4.911328 h -4.985743 v -4.911328 z m -4.985743,0 v -4.861719 h 4.985743 v 4.861719 z M 43.399447,6.6599462 V 1.6742041 h 4.960937 v 4.9857421 z m 4.960937,39.5882808 v 4.911328 h -4.960937 v -4.911328 z m -4.960937,0 v -4.861719 h 4.960937 v 4.861719 z M 38.413705,6.6599462 V 1.6742041 h 4.985742 v 4.9857421 z m 0,39.5882808 v -4.861719 h 4.985742 v 4.861719 z m 0,-4.861719 v -4.985742 h 4.985742 v 4.985742 z m 0,-4.985742 v -4.960937 h 4.985742 v 4.960937 z m 0,-4.960937 v -4.985742 h 4.985742 v 4.985742 z m 0,-4.985742 v -4.960938 h 4.985742 v 4.960938 z m 0,-14.932422 V 6.6599462 h 4.985742 v 4.8617188 z m 0,34.726562 v 4.911328 h -4.985742 v -4.911328 z m -4.985742,0 v -4.861719 h 4.985742 v 4.861719 z m 0,-4.861719 v -4.985742 h 4.985742 v 4.985742 z m 0,-4.985742 v -4.960937 h 4.985742 v 4.960937 z m 0,-4.960937 v -4.985742 h 4.985742 v 4.985742 z m 0,-14.932422 v -4.985742 h 4.985742 v 4.985742 z m 0,-4.985742 V 6.6599462 h 4.985742 V 11.521665 Z M 28.566244,6.6599462 V 1.6742041 h 4.861719 v 4.9857421 z m 4.861719,39.5882808 v 4.911328 h -4.861719 v -4.911328 z m -4.861719,0 v -4.861719 h 4.861719 v 4.861719 z m 0,-4.861719 v -4.985742 h 4.861719 v 4.985742 z m 0,-4.985742 v -4.960937 h 4.861719 v 4.960937 z m 0,-4.960937 v -4.985742 h 4.861719 v 4.985742 z m 0,-4.985742 v -4.960938 h 4.861719 v 4.960938 z m 0,-14.932422 V 6.6599462 h 4.861719 V 11.521665 Z M 23.580502,6.6599462 V 1.6742041 h 4.985742 v 4.9857421 z m 4.985742,39.5882808 v 4.911328 h -4.985742 v -4.911328 z m -4.985742,0 v -4.861719 h 4.985742 v 4.861719 z M 18.619565,6.6599462 V 1.6742041 h 4.960937 v 4.9857421 z m 4.960937,39.5882808 v 4.911328 h -4.960937 v -4.911328 z m -4.960937,0 v -4.861719 h 4.960937 v 4.861719 z M 13.633822,6.6599462 V 1.6742041 h 4.985743 v 4.9857421 z m 0,39.5882808 v -4.861719 h 4.985743 v 4.861719 z m 0,-4.861719 v -4.985742 h 4.985743 v 4.985742 z m 0,-4.985742 v -4.960937 h 4.985743 v 4.960937 z m 0,-4.960937 v -4.985742 h 4.985743 v 4.985742 z m 0,-4.985742 v -4.960938 h 4.985743 v 4.960938 z m 0,-4.960938 v -4.985742 h 4.985743 v 4.985742 z m 0,-4.985742 v -4.985742 h 4.985743 v 4.985742 z m 0,-4.985742 V 6.6599462 h 4.985743 v 4.8617188 z"
         style="font-style:normal;font-variant:normal;font-weight:normal;font-stretch:normal;font-size:50.79999924px;font-family:'Karmatic Arcade';-inkscape-font-specification:'Karmatic Arcade';fill:#ffffff;stroke-width:0.26458332"
         id="path3836"
         inkscape:connector-curvature="0" />
      <path
         d="m 107.84202,46.248227 v 4.911328 h -4.88652 v -4.911328 z m -4.88652,0 v -4.861719 h 4.88652 v 4.861719 z m 0,-4.861719 v -4.985742 h 4.88652 v 4.985742 z m 0,-4.985742 v -4.960937 h 4.88652 v 4.960937 z m 0,-4.960937 v -4.985742 h 4.88652 v 4.985742 z m 0,-4.985742 v -4.960938 h 4.88652 v 4.960938 z m 0,-4.960938 v -4.985742 h 4.88652 v 4.985742 z m 0,-4.985742 v -4.985742 h 4.88652 v 4.985742 z m 0,29.74082 v 4.911328 h -4.960936 v -4.911328 z m -4.960936,0 v -4.861719 h 4.960936 v 4.861719 z m 0,-4.861719 v -4.985742 h 4.960936 v 4.985742 z m 0,-4.985742 v -4.960937 h 4.960936 v 4.960937 z m 0,-4.960937 v -4.985742 h 4.960936 v 4.985742 z m 0,-4.985742 v -4.960938 h 4.960936 v 4.960938 z m 0,-4.960938 v -4.985742 h 4.960936 v 4.985742 z m 0,-4.985742 v -4.985742 h 4.960936 v 4.985742 z m 0,-4.985742 V 6.6599462 H 102.9555 V 11.521665 Z M 93.008822,6.6599462 V 1.6742041 h 4.985742 v 4.9857421 z m 4.985742,39.5882808 v 4.911328 h -4.985742 v -4.911328 z m -4.985742,0 v -4.861719 h 4.985742 v 4.861719 z m 0,-34.726562 V 6.6599462 h 4.985742 V 11.521665 Z M 88.047884,6.6599462 V 1.6742041 h 4.960938 v 4.9857421 z m 4.960938,39.5882808 v 4.911328 h -4.960938 v -4.911328 z m -4.960938,0 v -4.861719 h 4.960938 v 4.861719 z M 83.062142,6.6599462 V 1.6742041 h 4.985742 v 4.9857421 z m 0,39.5882808 v -4.861719 h 4.985742 v 4.861719 z m 0,-4.861719 v -4.985742 h 4.985742 v 4.985742 z m 0,-4.985742 v -4.960937 h 4.985742 v 4.960937 z m 0,-9.946679 v -4.960938 h 4.985742 v 4.960938 z m 0,-4.960938 v -4.985742 h 4.985742 v 4.985742 z m 0,-4.985742 v -4.985742 h 4.985742 v 4.985742 z M 78.0764,6.6599462 V 1.6742041 h 4.985742 v 4.9857421 z m 4.985742,39.5882808 v 4.911328 H 78.0764 v -4.911328 z m -4.985742,0 v -4.861719 h 4.985742 v 4.861719 z m 0,-4.861719 v -4.985742 h 4.985742 v 4.985742 z m 0,-4.985742 v -4.960937 h 4.985742 v 4.960937 z m 0,-9.946679 v -4.960938 h 4.985742 v 4.960938 z m 0,-4.960938 v -4.985742 h 4.985742 v 4.985742 z m 0,-4.985742 v -4.985742 h 4.985742 v 4.985742 z M 73.214682,6.6599462 V 1.6742041 H 78.0764 V 6.6599462 Z M 78.0764,46.248227 v 4.911328 h -4.861718 v -4.911328 z m -4.861718,0 V 41.386508 H 78.0764 v 4.861719 z m 0,-4.861719 V 36.400766 H 78.0764 v 4.985742 z m 0,-4.985742 V 31.439829 H 78.0764 v 4.960937 z m 0,-9.946679 V 21.493149 H 78.0764 v 4.960938 z m 0,-4.960938 V 16.507407 H 78.0764 v 4.985742 z m 0,-4.985742 V 11.521665 H 78.0764 v 4.985742 z M 68.228939,6.6599462 V 1.6742041 h 4.985743 v 4.9857421 z m 4.985743,39.5882808 v 4.911328 h -4.985743 v -4.911328 z m -4.985743,0 v -4.861719 h 4.985743 v 4.861719 z M 63.268002,6.6599462 V 1.6742041 h 4.960937 v 4.9857421 z m 4.960937,39.5882808 v 4.911328 h -4.960937 v -4.911328 z m -4.960937,0 v -4.861719 h 4.960937 v 4.861719 z m 0,-34.726562 V 6.6599462 h 4.960937 V 11.521665 Z M 58.28226,46.248227 v -4.861719 h 4.985742 v 4.861719 z m 0,-4.861719 v -4.985742 h 4.985742 v 4.985742 z m 0,-4.985742 v -4.960937 h 4.985742 v 4.960937 z m 0,-4.960937 v -4.985742 h 4.985742 v 4.985742 z m 0,-4.985742 v -4.960938 h 4.985742 v 4.960938 z m 0,-4.960938 v -4.985742 h 4.985742 v 4.985742 z m 0,-4.985742 v -4.985742 h 4.985742 v 4.985742 z m 0,-4.985742 V 6.6599462 h 4.985742 v 4.8617188 z"
         style="font-style:normal;font-variant:normal;font-weight:normal;font-stretch:normal;font-size:50.79999924px;font-family:'Karmatic Arcade';-inkscape-font-specification:'Karmatic Arcade';fill:#ffffff;stroke-width:0.26458332"
         id="path3838"
         inkscape:connector-curvature="0" />
      <path
         d="m 152.49046,46.248227 v 4.911328 h -4.88652 v -4.911328 z m -4.88652,0 v -4.861719 h 4.88652 v 4.861719 z m 0,-4.861719 v -4.985742 h 4.88652 v 4.985742 z m 0,-4.985742 v -4.960937 h 4.88652 v 4.960937 z m 0,-4.960937 v -4.985742 h 4.88652 v 4.985742 z m 0,-4.985742 v -4.960938 h 4.88652 v 4.960938 z m 0,-4.960938 v -4.985742 h 4.88652 v 4.985742 z m 0,-4.985742 v -4.985742 h 4.88652 v 4.985742 z m 0,-4.985742 V 6.6599462 h 4.88652 V 11.521665 Z M 142.643,6.6599462 V 1.6742041 h 4.96094 v 4.9857421 z m 4.96094,39.5882808 v 4.911328 H 142.643 v -4.911328 z m -4.96094,0 v -4.861719 h 4.96094 v 4.861719 z m 0,-4.861719 v -4.985742 h 4.96094 v 4.985742 z m 0,-4.985742 v -4.960937 h 4.96094 v 4.960937 z m 0,-4.960937 v -4.985742 h 4.96094 v 4.985742 z m 0,-4.985742 v -4.960938 h 4.96094 v 4.960938 z m 0,-4.960938 v -4.985742 h 4.96094 v 4.985742 z m 0,-4.985742 v -4.985742 h 4.96094 v 4.985742 z m 0,-4.985742 V 6.6599462 h 4.96094 V 11.521665 Z M 137.65726,6.6599462 V 1.6742041 H 142.643 V 6.6599462 Z M 142.643,46.248227 v 4.911328 h -4.98574 v -4.911328 z m -4.98574,0 v -4.861719 h 4.98574 v 4.861719 z M 132.69632,6.6599462 V 1.6742041 h 4.96094 v 4.9857421 z m 4.96094,39.5882808 v 4.911328 h -4.96094 v -4.911328 z m -4.96094,0 v -4.861719 h 4.96094 v 4.861719 z M 127.71058,6.6599462 V 1.6742041 h 4.98574 v 4.9857421 z m 0,39.5882808 v -4.861719 h 4.98574 v 4.861719 z m 0,-4.861719 v -4.985742 h 4.98574 v 4.985742 z m 0,-4.985742 v -4.960937 h 4.98574 v 4.960937 z m 0,-4.960937 v -4.985742 h 4.98574 v 4.985742 z m 0,-4.985742 v -4.960938 h 4.98574 v 4.960938 z m 0,-14.932422 V 6.6599462 h 4.98574 v 4.8617188 z m 0,34.726562 v 4.911328 h -4.98574 v -4.911328 z m -4.98574,0 v -4.861719 h 4.98574 v 4.861719 z m 0,-4.861719 v -4.985742 h 4.98574 v 4.985742 z m 0,-4.985742 v -4.960937 h 4.98574 v 4.960937 z m 0,-4.960937 v -4.985742 h 4.98574 v 4.985742 z m 0,-14.932422 v -4.985742 h 4.98574 v 4.985742 z m 0,-4.985742 V 6.6599462 h 4.98574 V 11.521665 Z M 117.86312,6.6599462 V 1.6742041 h 4.86172 v 4.9857421 z m 4.86172,39.5882808 v 4.911328 h -4.86172 v -4.911328 z m -4.86172,0 v -4.861719 h 4.86172 v 4.861719 z m 0,-4.861719 v -4.985742 h 4.86172 v 4.985742 z m 0,-4.985742 v -4.960937 h 4.86172 v 4.960937 z m 0,-4.960937 v -4.985742 h 4.86172 v 4.985742 z m 0,-4.985742 v -4.960938 h 4.86172 v 4.960938 z m 0,-14.932422 V 6.6599462 h 4.86172 V 11.521665 Z M 112.87738,6.6599462 V 1.6742041 h 4.98574 v 4.9857421 z m 4.98574,39.5882808 v 4.911328 h -4.98574 v -4.911328 z m -4.98574,0 v -4.861719 h 4.98574 v 4.861719 z M 107.91644,6.6599462 V 1.6742041 h 4.96094 v 4.9857421 z m 4.96094,39.5882808 v 4.911328 h -4.96094 v -4.911328 z m -4.96094,0 v -4.861719 h 4.96094 v 4.861719 z M 102.9307,6.6599462 V 1.6742041 h 4.98574 v 4.9857421 z m 0,39.5882808 v -4.861719 h 4.98574 v 4.861719 z m 0,-4.861719 v -4.985742 h 4.98574 v 4.985742 z m 0,-4.985742 v -4.960937 h 4.98574 v 4.960937 z m 0,-4.960937 v -4.985742 h 4.98574 v 4.985742 z m 0,-4.985742 v -4.960938 h 4.98574 v 4.960938 z m 0,-4.960938 v -4.985742 h 4.98574 v 4.985742 z m 0,-4.985742 v -4.985742 h 4.98574 v 4.985742 z m 0,-4.985742 V 6.6599462 h 4.98574 v 4.8617188 z"
         style="font-style:normal;font-variant:normal;font-weight:normal;font-stretch:normal;font-size:50.79999924px;font-family:'Karmatic Arcade';-inkscape-font-specification:'Karmatic Arcade';fill:#ffffff;stroke-width:0.26458332"
         id="path3840"
         inkscape:connector-curvature="0" />
      <path
         d="m 197.1389,46.248227 v 4.911328 h -4.88652 v -4.911328 z m -4.88652,0 v -4.861719 h 4.88652 v 4.861719 z m 0,-4.861719 v -4.985742 h 4.88652 v 4.985742 z m 0,-19.893359 v -4.985742 h 4.88652 v 4.985742 z m 0,-4.985742 v -4.985742 h 4.88652 v 4.985742 z m 0,-4.985742 V 6.6599462 h 4.88652 V 11.521665 Z M 187.29144,6.6599462 V 1.6742041 h 4.96094 v 4.9857421 z m 4.96094,39.5882808 v 4.911328 h -4.96094 v -4.911328 z m -4.96094,0 v -4.861719 h 4.96094 v 4.861719 z m 0,-4.861719 v -4.985742 h 4.96094 v 4.985742 z m 0,-4.985742 v -4.960937 h 4.96094 v 4.960937 z m 0,-4.960937 v -4.985742 h 4.96094 v 4.985742 z m 0,-4.985742 v -4.960938 h 4.96094 v 4.960938 z m 0,-4.960938 v -4.985742 h 4.96094 v 4.985742 z m 0,-4.985742 v -4.985742 h 4.96094 v 4.985742 z m 0,-4.985742 V 6.6599462 h 4.96094 V 11.521665 Z M 182.3057,6.6599462 V 1.6742041 h 4.98574 v 4.9857421 z m 4.98574,39.5882808 v 4.911328 h -4.98574 v -4.911328 z m -4.98574,0 v -4.861719 h 4.98574 v 4.861719 z m 0,-9.847461 v -4.960937 h 4.98574 v 4.960937 z m 0,-4.960937 v -4.985742 h 4.98574 v 4.985742 z m 0,-4.985742 v -4.960938 h 4.98574 v 4.960938 z m 0,-4.960938 v -4.985742 h 4.98574 v 4.985742 z m 0,-4.985742 v -4.985742 h 4.98574 v 4.985742 z M 177.34476,6.6599462 V 1.6742041 h 4.96094 v 4.9857421 z m 4.96094,39.5882808 v 4.911328 h -4.96094 v -4.911328 z m -4.96094,0 v -4.861719 h 4.96094 v 4.861719 z m 0,-9.847461 v -4.960937 h 4.96094 v 4.960937 z m 0,-4.960937 v -4.985742 h 4.96094 v 4.985742 z m 0,-9.94668 v -4.985742 h 4.96094 v 4.985742 z m 0,-4.985742 v -4.985742 h 4.96094 v 4.985742 z M 172.35902,6.6599462 V 1.6742041 h 4.98574 v 4.9857421 z m 4.98574,39.5882808 v 4.911328 h -4.98574 v -4.911328 z m -4.98574,0 v -4.861719 h 4.98574 v 4.861719 z m 0,-9.847461 v -4.960937 h 4.98574 v 4.960937 z m 0,-4.960937 v -4.985742 h 4.98574 v 4.985742 z m 0,-9.94668 v -4.985742 h 4.98574 v 4.985742 z m 0,-4.985742 v -4.985742 h 4.98574 v 4.985742 z M 167.37328,6.6599462 V 1.6742041 h 4.98574 v 4.9857421 z m 4.98574,39.5882808 v 4.911328 h -4.98574 v -4.911328 z m -4.98574,0 v -4.861719 h 4.98574 v 4.861719 z m 0,-9.847461 v -4.960937 h 4.98574 v 4.960937 z m 0,-4.960937 v -4.985742 h 4.98574 v 4.985742 z m 0,-9.94668 v -4.985742 h 4.98574 v 4.985742 z m 0,-4.985742 v -4.985742 h 4.98574 v 4.985742 z M 162.51156,6.6599462 V 1.6742041 h 4.86172 v 4.9857421 z m 4.86172,39.5882808 v 4.911328 h -4.86172 v -4.911328 z m -4.86172,0 v -4.861719 h 4.86172 v 4.861719 z m 0,-9.847461 v -4.960937 h 4.86172 v 4.960937 z m 0,-4.960937 v -4.985742 h 4.86172 v 4.985742 z m 0,-9.94668 v -4.985742 h 4.86172 v 4.985742 z m 0,-4.985742 v -4.985742 h 4.86172 v 4.985742 z M 157.52581,6.6599462 V 1.6742041 h 4.98575 v 4.9857421 z m 4.98575,39.5882808 v 4.911328 h -4.98575 v -4.911328 z m -4.98575,0 v -4.861719 h 4.98575 v 4.861719 z M 152.56488,6.6599462 V 1.6742041 h 4.96093 v 4.9857421 z m 4.96093,39.5882808 v 4.911328 h -4.96093 v -4.911328 z m -4.96093,0 v -4.861719 h 4.96093 v 4.861719 z M 147.57913,6.6599462 V 1.6742041 h 4.98575 v 4.9857421 z m 0,39.5882808 v -4.861719 h 4.98575 v 4.861719 z m 0,-4.861719 v -4.985742 h 4.98575 v 4.985742 z m 0,-4.985742 v -4.960937 h 4.98575 v 4.960937 z m 0,-4.960937 v -4.985742 h 4.98575 v 4.985742 z m 0,-4.985742 v -4.960938 h 4.98575 v 4.960938 z m 0,-4.960938 v -4.985742 h 4.98575 v 4.985742 z m 0,-4.985742 v -4.985742 h 4.98575 v 4.985742 z m 0,-4.985742 V 6.6599462 h 4.98575 v 4.8617188 z"
         style="font-style:normal;font-variant:normal;font-weight:normal;font-stretch:normal;font-size:50.79999924px;font-family:'Karmatic Arcade';-inkscape-font-specification:'Karmatic Arcade';fill:#ffffff;stroke-width:0.26458332"
         id="path3842"
         inkscape:connector-curvature="0" />
    </g>
    <g
       aria-label="RANDOMS OF THE PAST"
       style="font-style:normal;font-weight:normal;font-size:10.58333302px;line-height:1.25;font-family:sans-serif;letter-spacing:0px;word-spacing:0px;fill:#ffffff;fill-opacity:1;stroke:none;stroke-width:0.26458332"
       id="text3744">
      <path
         d="m 14.749339,65.45533 v 1.364258 H 13.391972 V 65.45533 Z m -1.357367,0 v -1.350478 h 1.357367 v 1.350478 z m 0,-1.350478 v -1.384928 h 1.357367 v 1.384928 z m 0,-1.384928 v -1.378038 h 1.357367 v 1.378038 z m 0,-1.378038 v -1.384928 h 1.357367 v 1.384928 z m 0,-1.384928 v -1.378039 h 1.357367 v 1.378039 z m 0,-1.378039 v -1.384928 h 1.357367 v 1.384928 z m 0,-1.384928 v -1.384928 h 1.357367 v 1.384928 z m 0,8.261339 v 1.364258 H 12.013934 V 65.45533 Z m -1.378038,0 v -1.350478 h 1.378038 v 1.350478 z m 0,-1.350478 v -1.384928 h 1.378038 v 1.384928 z m 0,-1.384928 v -1.378038 h 1.378038 v 1.378038 z m 0,-1.378038 v -1.384928 h 1.378038 v 1.384928 z m 0,-1.384928 v -1.378039 h 1.378038 v 1.378039 z m 0,-1.378039 v -1.384928 h 1.378038 v 1.384928 z m 0,-1.384928 v -1.384928 h 1.378038 v 1.384928 z m 0,-1.384928 v -1.350478 h 1.378038 v 1.350478 z m -1.384929,-1.350478 v -1.384928 h 1.384929 v 1.384928 z m 1.384929,10.996745 v 1.364258 H 10.629005 V 65.45533 Z m -1.384929,0 v -1.350478 h 1.384929 v 1.350478 z m 0,-5.498372 v -1.378039 h 1.384929 v 1.378039 z m 0,-4.147895 v -1.350478 h 1.384929 v 1.350478 z M 9.2509672,54.458585 v -1.384928 h 1.3780378 v 1.384928 z M 10.629005,65.45533 v 1.364258 H 9.2509672 V 65.45533 Z m -1.3780378,0 V 64.104852 H 10.629005 V 65.45533 Z M 7.8660389,54.458585 v -1.384928 h 1.3849283 v 1.384928 z m 0,10.996745 v -1.350478 h 1.3849283 v 1.350478 z m 0,-1.350478 v -1.384928 h 1.3849283 v 1.384928 z m 0,-1.384928 v -1.378038 h 1.3849283 v 1.378038 z m 0,-1.378038 v -1.384928 h 1.3849283 v 1.384928 z m 0,-2.762967 v -1.384928 h 1.3849283 v 1.384928 z m 0,-1.384928 v -1.384928 h 1.3849283 v 1.384928 z M 6.4811105,54.458585 v -1.384928 h 1.3849284 v 1.384928 z M 7.8660389,65.45533 v 1.364258 H 6.4811105 V 65.45533 Z m -1.3849284,0 v -1.350478 h 1.3849284 v 1.350478 z m 0,-1.350478 v -1.384928 h 1.3849284 v 1.384928 z m 0,-1.384928 v -1.378038 h 1.3849284 v 1.378038 z m 0,-1.378038 v -1.384928 h 1.3849284 v 1.384928 z m 0,-2.762967 v -1.384928 h 1.3849284 v 1.384928 z m 0,-1.384928 v -1.384928 h 1.3849284 v 1.384928 z M 5.1306332,54.458585 v -1.384928 h 1.3504773 v 1.384928 z M 6.4811105,65.45533 v 1.364258 H 5.1306332 V 65.45533 Z m -1.3504773,0 v -1.350478 h 1.3504773 v 1.350478 z m 0,-1.350478 v -1.384928 h 1.3504773 v 1.384928 z m 0,-1.384928 v -1.378038 h 1.3504773 v 1.378038 z m 0,-1.378038 v -1.384928 h 1.3504773 v 1.384928 z m 0,-2.762967 v -1.384928 h 1.3504773 v 1.384928 z m 0,-1.384928 v -1.384928 h 1.3504773 v 1.384928 z M 3.7457048,54.458585 v -1.384928 h 1.3849284 v 1.384928 z M 5.1306332,65.45533 v 1.364258 H 3.7457048 V 65.45533 Z m -1.3849284,0 V 64.104852 H 5.1306332 V 65.45533 Z M 2.3676667,54.458585 v -1.384928 h 1.3780381 v 1.384928 z M 3.7457048,65.45533 v 1.364258 H 2.3676667 V 65.45533 Z m -1.3780381,0 V 64.104852 H 3.7457048 V 65.45533 Z M 0.98273832,54.458585 V 53.073657 H 2.3676667 v 1.384928 z m 0,10.996745 V 64.104852 H 2.3676667 v 1.350478 z m 0,-1.350478 V 62.719924 H 2.3676667 v 1.384928 z m 0,-1.384928 V 61.341886 H 2.3676667 v 1.378038 z m 0,-1.378038 V 59.956958 H 2.3676667 v 1.384928 z m 0,-1.384928 V 58.578919 H 2.3676667 v 1.378039 z m 0,-1.378039 V 57.193991 H 2.3676667 v 1.384928 z m 0,-1.384928 V 55.809063 H 2.3676667 v 1.384928 z m 0,-1.384928 V 54.458585 H 2.3676667 v 1.350478 z"
         style="font-style:normal;font-variant:normal;font-weight:normal;font-stretch:normal;font-size:14.11111069px;font-family:'Karmatic Arcade';-inkscape-font-specification:'Karmatic Arcade';fill:#ffffff;stroke-width:0.26458332"
         id="path3803"
         inkscape:connector-curvature="0" />
      <path
         d="m 27.151683,65.45533 v 1.364258 H 25.794316 V 65.45533 Z m -1.357367,0 v -1.350478 h 1.357367 v 1.350478 z m 0,-1.350478 v -1.384928 h 1.357367 v 1.384928 z m 0,-1.384928 v -1.378038 h 1.357367 v 1.378038 z m 0,-1.378038 v -1.384928 h 1.357367 v 1.384928 z m 0,-1.384928 v -1.378039 h 1.357367 v 1.378039 z m 0,-1.378039 v -1.384928 h 1.357367 v 1.384928 z m 0,-1.384928 v -1.384928 h 1.357367 v 1.384928 z m 0,8.261339 v 1.364258 H 24.416277 V 65.45533 Z m -1.378039,0 v -1.350478 h 1.378039 v 1.350478 z m 0,-1.350478 v -1.384928 h 1.378039 v 1.384928 z m 0,-1.384928 v -1.378038 h 1.378039 v 1.378038 z m 0,-1.378038 v -1.384928 h 1.378039 v 1.384928 z m 0,-1.384928 v -1.378039 h 1.378039 v 1.378039 z m 0,-1.378039 v -1.384928 h 1.378039 v 1.384928 z m 0,-1.384928 v -1.384928 h 1.378039 v 1.384928 z m 0,-1.384928 v -1.350478 h 1.378039 v 1.350478 z m -1.384928,-1.350478 v -1.384928 h 1.384928 v 1.384928 z m 1.384928,10.996745 v 1.364258 H 23.031349 V 65.45533 Z m -1.384928,0 v -1.350478 h 1.384928 v 1.350478 z m 0,-9.646267 v -1.350478 h 1.384928 v 1.350478 z m -1.378038,-1.350478 v -1.384928 h 1.378038 v 1.384928 z m 1.378038,10.996745 v 1.364258 H 21.653311 V 65.45533 Z m -1.378038,0 v -1.350478 h 1.378038 V 65.45533 Z M 20.268383,54.458585 v -1.384928 h 1.384928 v 1.384928 z m 0,10.996745 v -1.350478 h 1.384928 v 1.350478 z m 0,-1.350478 v -1.384928 h 1.384928 v 1.384928 z m 0,-1.384928 v -1.378038 h 1.384928 v 1.378038 z m 0,-2.762966 v -1.378039 h 1.384928 v 1.378039 z m 0,-1.378039 v -1.384928 h 1.384928 v 1.384928 z m 0,-1.384928 v -1.384928 h 1.384928 v 1.384928 z m -1.384929,-2.735406 v -1.384928 h 1.384929 v 1.384928 z m 1.384929,10.996745 v 1.364258 H 18.883454 V 65.45533 Z m -1.384929,0 v -1.350478 h 1.384929 v 1.350478 z m 0,-1.350478 v -1.384928 h 1.384929 v 1.384928 z m 0,-1.384928 v -1.378038 h 1.384929 v 1.378038 z m 0,-2.762966 v -1.378039 h 1.384929 v 1.378039 z m 0,-1.378039 v -1.384928 h 1.384929 v 1.384928 z m 0,-1.384928 v -1.384928 h 1.384929 v 1.384928 z m -1.350477,-2.735406 v -1.384928 h 1.350477 v 1.384928 z m 1.350477,10.996745 v 1.364258 H 17.532977 V 65.45533 Z m -1.350477,0 v -1.350478 h 1.350477 v 1.350478 z m 0,-1.350478 v -1.384928 h 1.350477 v 1.384928 z m 0,-1.384928 v -1.378038 h 1.350477 v 1.378038 z m 0,-2.762966 v -1.378039 h 1.350477 v 1.378039 z m 0,-1.378039 v -1.384928 h 1.350477 v 1.384928 z m 0,-1.384928 v -1.384928 h 1.350477 v 1.384928 z m -1.384928,-2.735406 v -1.384928 h 1.384928 v 1.384928 z m 1.384928,10.996745 v 1.364258 H 16.148049 V 65.45533 Z m -1.384928,0 v -1.350478 h 1.384928 V 65.45533 Z M 14.77001,54.458585 v -1.384928 h 1.378039 v 1.384928 z m 1.378039,10.996745 v 1.364258 H 14.77001 V 65.45533 Z m -1.378039,0 v -1.350478 h 1.378039 v 1.350478 z m 0,-9.646267 v -1.350478 h 1.378039 v 1.350478 z m -1.384928,9.646267 v -1.350478 h 1.384928 v 1.350478 z m 0,-1.350478 v -1.384928 h 1.384928 v 1.384928 z m 0,-1.384928 v -1.378038 h 1.384928 v 1.378038 z m 0,-1.378038 v -1.384928 h 1.384928 v 1.384928 z m 0,-1.384928 v -1.378039 h 1.384928 v 1.378039 z m 0,-1.378039 v -1.384928 h 1.384928 v 1.384928 z m 0,-1.384928 v -1.384928 h 1.384928 v 1.384928 z m 0,-1.384928 v -1.350478 h 1.384928 v 1.350478 z"
         style="font-style:normal;font-variant:normal;font-weight:normal;font-stretch:normal;font-size:14.11111069px;font-family:'Karmatic Arcade';-inkscape-font-specification:'Karmatic Arcade';fill:#ffffff;stroke-width:0.26458332"
         id="path3805"
         inkscape:connector-curvature="0" />
      <path
         d="m 39.554027,65.45533 v 1.364258 H 38.196659 V 65.45533 Z m -1.357368,0 v -1.350478 h 1.357368 v 1.350478 z m 0,-1.350478 v -1.384928 h 1.357368 v 1.384928 z m 0,-1.384928 v -1.378038 h 1.357368 v 1.378038 z m 0,-1.378038 v -1.384928 h 1.357368 v 1.384928 z m 0,-1.384928 v -1.378039 h 1.357368 v 1.378039 z m 0,-1.378039 v -1.384928 h 1.357368 v 1.384928 z m 0,-1.384928 v -1.384928 h 1.357368 v 1.384928 z m 0,-1.384928 v -1.350478 h 1.357368 v 1.350478 z m -1.378038,-1.350478 v -1.384928 h 1.378038 v 1.384928 z m 1.378038,10.996745 v 1.364258 H 36.818621 V 65.45533 Z m -1.378038,0 v -1.350478 h 1.378038 v 1.350478 z m 0,-1.350478 v -1.384928 h 1.378038 v 1.384928 z m 0,-1.384928 v -1.378038 h 1.378038 v 1.378038 z m 0,-1.378038 v -1.384928 h 1.378038 v 1.384928 z m 0,-1.384928 v -1.378039 h 1.378038 v 1.378039 z m 0,-1.378039 v -1.384928 h 1.378038 v 1.384928 z m 0,-1.384928 v -1.384928 h 1.378038 v 1.384928 z m 0,-1.384928 v -1.350478 h 1.378038 v 1.350478 z m -1.384928,-1.350478 v -1.384928 h 1.384928 v 1.384928 z m 1.384928,10.996745 v 1.364258 H 35.433693 V 65.45533 Z m -1.384928,0 v -1.350478 h 1.384928 V 65.45533 Z M 34.055655,54.458585 v -1.384928 h 1.378038 v 1.384928 z m 1.378038,10.996745 v 1.364258 H 34.055655 V 65.45533 Z m -1.378038,0 v -1.350478 h 1.378038 V 65.45533 Z M 32.670726,54.458585 v -1.384928 h 1.384929 v 1.384928 z m 0,10.996745 v -1.350478 h 1.384929 v 1.350478 z m 0,-1.350478 v -1.384928 h 1.384929 v 1.384928 z m 0,-1.384928 v -1.378038 h 1.384929 v 1.378038 z m 0,-4.141005 v -1.384928 h 1.384929 v 1.384928 z m 0,-1.384928 v -1.384928 h 1.384929 v 1.384928 z m 0,-1.384928 v -1.350478 h 1.384929 v 1.350478 z m 0,9.646267 v 1.364258 H 31.285798 V 65.45533 Z m -1.384928,0 v -1.350478 h 1.384928 v 1.350478 z m 0,-1.350478 v -1.384928 h 1.384928 v 1.384928 z m 0,-1.384928 v -1.378038 h 1.384928 v 1.378038 z m 0,-1.378038 v -1.384928 h 1.384928 v 1.384928 z m 0,-4.147895 v -1.384928 h 1.384928 v 1.384928 z m 0,-1.384928 v -1.350478 h 1.384928 v 1.350478 z m -1.350477,-1.350478 v -1.384928 h 1.350477 v 1.384928 z m 1.350477,10.996745 v 1.364258 H 29.935321 V 65.45533 Z m -1.350477,0 v -1.350478 h 1.350477 v 1.350478 z m 0,-1.350478 v -1.384928 h 1.350477 v 1.384928 z m 0,-1.384928 v -1.378038 h 1.350477 v 1.378038 z m 0,-1.378038 v -1.384928 h 1.350477 v 1.384928 z m 0,-1.384928 v -1.378039 h 1.350477 v 1.378039 z m 0,-4.147895 v -1.350478 h 1.350477 v 1.350478 z m -1.384929,-1.350478 v -1.384928 h 1.384929 v 1.384928 z m 1.384929,10.996745 v 1.364258 H 28.550392 V 65.45533 Z m -1.384929,0 v -1.350478 h 1.384929 V 65.45533 Z M 27.172354,54.458585 v -1.384928 h 1.378038 v 1.384928 z m 1.378038,10.996745 v 1.364258 H 27.172354 V 65.45533 Z m -1.378038,0 v -1.350478 h 1.378038 V 65.45533 Z M 25.787426,54.458585 v -1.384928 h 1.384928 v 1.384928 z m 0,10.996745 v -1.350478 h 1.384928 v 1.350478 z m 0,-1.350478 v -1.384928 h 1.384928 v 1.384928 z m 0,-1.384928 v -1.378038 h 1.384928 v 1.378038 z m 0,-1.378038 v -1.384928 h 1.384928 v 1.384928 z m 0,-1.384928 v -1.378039 h 1.384928 v 1.378039 z m 0,-1.378039 v -1.384928 h 1.384928 v 1.384928 z m 0,-1.384928 v -1.384928 h 1.384928 v 1.384928 z m 0,-1.384928 v -1.350478 h 1.384928 v 1.350478 z"
         style="font-style:normal;font-variant:normal;font-weight:normal;font-stretch:normal;font-size:14.11111069px;font-family:'Karmatic Arcade';-inkscape-font-specification:'Karmatic Arcade';fill:#ffffff;stroke-width:0.26458332"
         id="path3807"
         inkscape:connector-curvature="0" />
      <path
         d="m 50.599003,64.104852 v -1.384928 h 1.357368 v 1.384928 z m 0,-1.384928 v -1.378038 h 1.357368 v 1.378038 z m 0,-1.378038 v -1.384928 h 1.357368 v 1.384928 z m 0,-1.384928 v -1.378039 h 1.357368 v 1.378039 z m 0,-1.378039 v -1.384928 h 1.357368 v 1.384928 z m -1.378038,6.876411 v -1.350478 h 1.378038 v 1.350478 z m 0,-1.350478 v -1.384928 h 1.378038 v 1.384928 z m 0,-1.384928 v -1.378038 h 1.378038 v 1.378038 z m 0,-1.378038 v -1.384928 h 1.378038 v 1.384928 z m 0,-1.384928 v -1.378039 h 1.378038 v 1.378039 z m 0,-1.378039 v -1.384928 h 1.378038 v 1.384928 z m 0,-1.384928 v -1.384928 h 1.378038 v 1.384928 z m 0,8.261339 v 1.364258 H 47.836037 V 65.45533 Z m -1.384928,0 v -1.350478 h 1.384928 v 1.350478 z m 0,-1.350478 v -1.384928 h 1.384928 v 1.384928 z m 0,-1.384928 v -1.378038 h 1.384928 v 1.378038 z m 0,-5.525933 v -1.384928 h 1.384928 v 1.384928 z m 0,-1.384928 v -1.350478 h 1.384928 v 1.350478 z m -1.378039,-1.350478 v -1.384928 h 1.378039 v 1.384928 z m 1.378039,10.996745 v 1.364258 H 46.457998 V 65.45533 Z m -1.378039,0 v -1.350478 h 1.378039 v 1.350478 z m 0,-1.350478 v -1.384928 h 1.378039 v 1.384928 z m 0,-8.295789 v -1.350478 h 1.378039 v 1.350478 z M 45.07307,54.458585 v -1.384928 h 1.384928 v 1.384928 z m 1.384928,10.996745 v 1.364258 H 45.07307 V 65.45533 Z m -1.384928,0 v -1.350478 h 1.384928 v 1.350478 z m 0,-4.113444 v -1.384928 h 1.384928 v 1.384928 z m 0,-1.384928 v -1.378039 h 1.384928 v 1.378039 z m 0,-1.378039 v -1.384928 h 1.384928 v 1.384928 z m -1.384928,-4.120334 v -1.384928 h 1.384928 v 1.384928 z M 45.07307,65.45533 v 1.364258 H 43.688142 V 65.45533 Z m -1.384928,0 v -1.350478 h 1.384928 v 1.350478 z m 0,-2.735406 v -1.378038 h 1.384928 v 1.378038 z m 0,-1.378038 v -1.384928 h 1.384928 v 1.384928 z m 0,-1.384928 v -1.378039 h 1.384928 v 1.378039 z m 0,-1.378039 v -1.384928 h 1.384928 v 1.384928 z m 0,-1.384928 v -1.384928 h 1.384928 v 1.384928 z m -1.350478,-2.735406 v -1.384928 h 1.350478 v 1.384928 z m 1.350478,10.996745 v 1.364258 H 42.337664 V 65.45533 Z m -1.350478,0 v -1.350478 h 1.350478 v 1.350478 z m 0,-2.735406 v -1.378038 h 1.350478 v 1.378038 z m 0,-1.378038 v -1.384928 h 1.350478 v 1.384928 z m 0,-1.384928 v -1.378039 h 1.350478 v 1.378039 z m 0,-1.378039 v -1.384928 h 1.350478 v 1.384928 z m 0,-1.384928 v -1.384928 h 1.350478 v 1.384928 z m -1.384928,-2.735406 v -1.384928 h 1.384928 v 1.384928 z m 1.384928,10.996745 v 1.364258 H 40.952736 V 65.45533 Z m -1.384928,0 v -1.350478 h 1.384928 V 65.45533 Z M 39.574698,54.458585 v -1.384928 h 1.378038 v 1.384928 z m 1.378038,10.996745 v 1.364258 H 39.574698 V 65.45533 Z m -1.378038,0 v -1.350478 h 1.378038 V 65.45533 Z M 38.18977,54.458585 v -1.384928 h 1.384928 v 1.384928 z m 0,10.996745 v -1.350478 h 1.384928 v 1.350478 z m 0,-1.350478 v -1.384928 h 1.384928 v 1.384928 z m 0,-1.384928 v -1.378038 h 1.384928 v 1.378038 z m 0,-1.378038 v -1.384928 h 1.384928 v 1.384928 z m 0,-1.384928 v -1.378039 h 1.384928 v 1.378039 z m 0,-1.378039 v -1.384928 h 1.384928 v 1.384928 z m 0,-1.384928 v -1.384928 h 1.384928 v 1.384928 z m 0,-1.384928 v -1.350478 h 1.384928 v 1.350478 z"
         style="font-style:normal;font-variant:normal;font-weight:normal;font-stretch:normal;font-size:14.11111069px;font-family:'Karmatic Arcade';-inkscape-font-specification:'Karmatic Arcade';fill:#ffffff;stroke-width:0.26458332"
         id="path3809"
         inkscape:connector-curvature="0" />
      <path
         d="m 63.001347,65.45533 v -1.350478 h 1.357367 v 1.350478 z m 0,-1.350478 v -1.384928 h 1.357367 v 1.384928 z m 0,-1.384928 v -1.378038 h 1.357367 v 1.378038 z m 0,-1.378038 v -1.384928 h 1.357367 v 1.384928 z m 0,-1.384928 v -1.378039 h 1.357367 v 1.378039 z m 0,-1.378039 v -1.384928 h 1.357367 v 1.384928 z m 0,-1.384928 v -1.384928 h 1.357367 v 1.384928 z m 0,8.261339 v 1.364258 H 61.623309 V 65.45533 Z m -1.378038,0 v -1.350478 h 1.378038 v 1.350478 z m 0,-1.350478 v -1.384928 h 1.378038 v 1.384928 z m 0,-1.384928 v -1.378038 h 1.378038 v 1.378038 z m 0,-1.378038 v -1.384928 h 1.378038 v 1.384928 z m 0,-1.384928 v -1.378039 h 1.378038 v 1.378039 z m 0,-1.378039 v -1.384928 h 1.378038 v 1.384928 z m 0,-1.384928 v -1.384928 h 1.378038 v 1.384928 z m 0,-1.384928 v -1.350478 h 1.378038 v 1.350478 z M 60.23838,54.458585 v -1.384928 h 1.384929 v 1.384928 z m 1.384929,10.996745 v 1.364258 H 60.23838 V 65.45533 Z m -1.384929,0 v -1.350478 h 1.384929 v 1.350478 z m 0,-1.350478 v -1.384928 h 1.384929 v 1.384928 z m 0,-8.295789 v -1.350478 h 1.384929 v 1.350478 z m -1.378038,-1.350478 v -1.384928 h 1.378038 v 1.384928 z M 60.23838,65.45533 v 1.364258 H 58.860342 V 65.45533 Z m -1.378038,0 V 64.104852 H 60.23838 V 65.45533 Z M 57.475414,54.458585 v -1.384928 h 1.384928 v 1.384928 z m 1.384928,10.996745 v 1.364258 H 57.475414 V 65.45533 Z m -1.384928,0 v -1.350478 h 1.384928 v 1.350478 z m 0,-2.735406 v -1.378038 h 1.384928 v 1.378038 z m 0,-1.378038 v -1.384928 h 1.384928 v 1.384928 z m 0,-1.384928 v -1.378039 h 1.384928 v 1.378039 z m 0,-1.378039 v -1.384928 h 1.384928 v 1.384928 z m 0,-1.384928 v -1.384928 h 1.384928 v 1.384928 z m -1.384928,-2.735406 v -1.384928 h 1.384928 v 1.384928 z m 1.384928,10.996745 v 1.364258 H 56.090486 V 65.45533 Z m -1.384928,0 v -1.350478 h 1.384928 v 1.350478 z m 0,-2.735406 v -1.378038 h 1.384928 v 1.378038 z m 0,-1.378038 v -1.384928 h 1.384928 v 1.384928 z m 0,-1.384928 v -1.378039 h 1.384928 v 1.378039 z m 0,-1.378039 v -1.384928 h 1.384928 v 1.384928 z m 0,-1.384928 v -1.384928 h 1.384928 v 1.384928 z m -1.350478,-2.735406 v -1.384928 h 1.350478 v 1.384928 z m 1.350478,10.996745 v 1.364258 H 54.740008 V 65.45533 Z m -1.350478,0 v -1.350478 h 1.350478 v 1.350478 z m 0,-2.735406 v -1.378038 h 1.350478 v 1.378038 z m 0,-1.378038 v -1.384928 h 1.350478 v 1.384928 z m 0,-1.384928 v -1.378039 h 1.350478 v 1.378039 z m 0,-1.378039 v -1.384928 h 1.350478 v 1.384928 z m 0,-1.384928 v -1.384928 h 1.350478 v 1.384928 z M 53.35508,54.458585 v -1.384928 h 1.384928 v 1.384928 z m 1.384928,10.996745 v 1.364258 H 53.35508 V 65.45533 Z m -1.384928,0 v -1.350478 h 1.384928 V 65.45533 Z M 51.977042,54.458585 v -1.384928 h 1.378038 v 1.384928 z m 0,10.996745 v -1.350478 h 1.378038 v 1.350478 z m 0,-1.350478 v -1.384928 h 1.378038 v 1.384928 z m 0,-8.295789 v -1.350478 h 1.378038 v 1.350478 z m -1.384929,8.295789 v -1.384928 h 1.384929 v 1.384928 z m 0,-1.384928 v -1.378038 h 1.384929 v 1.378038 z m 0,-1.378038 v -1.384928 h 1.384929 v 1.384928 z m 0,-1.384928 v -1.378039 h 1.384929 v 1.378039 z m 0,-1.378039 v -1.384928 h 1.384929 v 1.384928 z m 0,-1.384928 v -1.384928 h 1.384929 v 1.384928 z m 0,-1.384928 v -1.350478 h 1.384929 v 1.350478 z"
         style="font-style:normal;font-variant:normal;font-weight:normal;font-stretch:normal;font-size:14.11111069px;font-family:'Karmatic Arcade';-inkscape-font-specification:'Karmatic Arcade';fill:#ffffff;stroke-width:0.26458332"
         id="path3811"
         inkscape:connector-curvature="0" />
      <path
         d="m 76.761058,65.45533 v 1.364258 H 75.403691 V 65.45533 Z m -1.357367,0 v -1.350478 h 1.357367 v 1.350478 z m 0,-1.350478 v -1.384928 h 1.357367 v 1.384928 z m 0,-1.384928 v -1.378038 h 1.357367 v 1.378038 z m 0,-1.378038 v -1.384928 h 1.357367 v 1.384928 z m 0,-1.384928 v -1.378039 h 1.357367 v 1.378039 z m 0,-1.378039 v -1.384928 h 1.357367 v 1.384928 z m 0,-1.384928 v -1.384928 h 1.357367 v 1.384928 z m 0,-1.384928 v -1.350478 h 1.357367 v 1.350478 z m -1.378039,-1.350478 v -1.384928 h 1.378039 v 1.384928 z m 1.378039,10.996745 v 1.364258 H 74.025652 V 65.45533 Z m -1.378039,0 v -1.350478 h 1.378039 v 1.350478 z m 0,-1.350478 v -1.384928 h 1.378039 v 1.384928 z m 0,-1.384928 v -1.378038 h 1.378039 v 1.378038 z m 0,-1.378038 v -1.384928 h 1.378039 v 1.384928 z m 0,-1.384928 v -1.378039 h 1.378039 v 1.378039 z m 0,-1.378039 v -1.384928 h 1.378039 v 1.384928 z m 0,-1.384928 v -1.384928 h 1.378039 v 1.384928 z m 0,-1.384928 v -1.350478 h 1.378039 v 1.350478 z m -1.384928,-1.350478 v -1.384928 h 1.384928 v 1.384928 z m 1.384928,10.996745 v 1.364258 H 72.640724 V 65.45533 Z m -1.384928,0 v -1.350478 h 1.384928 V 65.45533 Z M 71.262686,54.458585 v -1.384928 h 1.378038 v 1.384928 z m 1.378038,10.996745 v 1.364258 H 71.262686 V 65.45533 Z m -1.378038,0 v -1.350478 h 1.378038 V 65.45533 Z M 69.877758,54.458585 v -1.384928 h 1.384928 v 1.384928 z m 0,10.996745 v -1.350478 h 1.384928 v 1.350478 z m 0,-1.350478 v -1.384928 h 1.384928 v 1.384928 z m 0,-1.384928 v -1.378038 h 1.384928 v 1.378038 z m 0,-1.378038 v -1.384928 h 1.384928 v 1.384928 z m 0,-1.384928 v -1.378039 h 1.384928 v 1.378039 z m 0,-4.147895 v -1.350478 h 1.384928 v 1.350478 z m 0,9.646267 v 1.364258 H 68.492829 V 65.45533 Z m -1.384929,0 v -1.350478 h 1.384929 v 1.350478 z m 0,-1.350478 v -1.384928 h 1.384929 v 1.384928 z m 0,-1.384928 v -1.378038 h 1.384929 v 1.378038 z m 0,-1.378038 v -1.384928 h 1.384929 v 1.384928 z m 0,-4.147895 v -1.384928 h 1.384929 v 1.384928 z m 0,-1.384928 v -1.350478 h 1.384929 v 1.350478 z m -1.350477,-1.350478 v -1.384928 h 1.350477 v 1.384928 z m 1.350477,10.996745 v 1.364258 H 67.142352 V 65.45533 Z m -1.350477,0 v -1.350478 h 1.350477 v 1.350478 z m 0,-1.350478 v -1.384928 h 1.350477 v 1.384928 z m 0,-1.384928 v -1.378038 h 1.350477 v 1.378038 z m 0,-1.378038 v -1.384928 h 1.350477 v 1.384928 z m 0,-1.384928 v -1.378039 h 1.350477 v 1.378039 z m 0,-4.147895 v -1.350478 h 1.350477 v 1.350478 z m -1.384928,-1.350478 v -1.384928 h 1.384928 v 1.384928 z m 1.384928,10.996745 v 1.364258 H 65.757424 V 65.45533 Z m -1.384928,0 v -1.350478 h 1.384928 V 65.45533 Z M 64.379385,54.458585 v -1.384928 h 1.378039 v 1.384928 z m 1.378039,10.996745 v 1.364258 H 64.379385 V 65.45533 Z m -1.378039,0 v -1.350478 h 1.378039 V 65.45533 Z M 62.994457,54.458585 v -1.384928 h 1.384928 v 1.384928 z m 0,10.996745 v -1.350478 h 1.384928 v 1.350478 z m 0,-1.350478 v -1.384928 h 1.384928 v 1.384928 z m 0,-1.384928 v -1.378038 h 1.384928 v 1.378038 z m 0,-1.378038 v -1.384928 h 1.384928 v 1.384928 z m 0,-1.384928 v -1.378039 h 1.384928 v 1.378039 z m 0,-1.378039 v -1.384928 h 1.384928 v 1.384928 z m 0,-1.384928 v -1.384928 h 1.384928 v 1.384928 z m 0,-1.384928 v -1.350478 h 1.384928 v 1.350478 z"
         style="font-style:normal;font-variant:normal;font-weight:normal;font-stretch:normal;font-size:14.11111069px;font-family:'Karmatic Arcade';-inkscape-font-specification:'Karmatic Arcade';fill:#ffffff;stroke-width:0.26458332"
         id="path3813"
         inkscape:connector-curvature="0" />
      <path
         d="m 87.806034,65.45533 v -1.350478 h 1.357368 v 1.350478 z m 0,-1.350478 v -1.384928 h 1.357368 v 1.384928 z m 0,-1.384928 v -1.378038 h 1.357368 v 1.378038 z m 0,-1.378038 v -1.384928 h 1.357368 v 1.384928 z m 0,-1.384928 v -1.378039 h 1.357368 v 1.378039 z m 0,-1.378039 v -1.384928 h 1.357368 v 1.384928 z m 0,-1.384928 v -1.384928 h 1.357368 v 1.384928 z m 0,8.261339 v 1.364258 H 86.427996 V 65.45533 Z m -1.378038,0 v -1.350478 h 1.378038 v 1.350478 z m 0,-1.350478 v -1.384928 h 1.378038 v 1.384928 z m 0,-1.384928 v -1.378038 h 1.378038 v 1.378038 z m 0,-1.378038 v -1.384928 h 1.378038 v 1.384928 z m 0,-1.384928 v -1.378039 h 1.378038 v 1.378039 z m 0,-1.378039 v -1.384928 h 1.378038 v 1.384928 z m 0,-1.384928 v -1.384928 h 1.378038 v 1.384928 z m 0,-1.384928 v -1.350478 h 1.378038 v 1.350478 z m -1.384928,-1.350478 v -1.384928 h 1.384928 v 1.384928 z m 1.384928,10.996745 v 1.364258 H 85.043068 V 65.45533 Z m -1.384928,0 v -1.350478 h 1.384928 v 1.350478 z m 0,-1.350478 v -1.384928 h 1.384928 v 1.384928 z m 0,-4.147894 v -1.378039 h 1.384928 v 1.378039 z m 0,-1.378039 v -1.384928 h 1.384928 v 1.384928 z m 0,-2.769856 v -1.350478 h 1.384928 v 1.350478 z M 83.66503,54.458585 v -1.384928 h 1.378038 v 1.384928 z m 1.378038,10.996745 v 1.364258 H 83.66503 V 65.45533 Z m -1.378038,0 v -1.350478 h 1.378038 v 1.350478 z m 0,-6.876411 v -1.384928 h 1.378038 v 1.384928 z m -1.384929,-4.120334 v -1.384928 h 1.384929 v 1.384928 z M 83.66503,65.45533 v 1.364258 H 82.280101 V 65.45533 Z m -1.384929,0 v -1.350478 h 1.384929 v 1.350478 z m 0,-2.735406 v -1.378038 h 1.384929 v 1.378038 z m 0,-1.378038 v -1.384928 h 1.384929 v 1.384928 z m 0,-2.762967 v -1.384928 h 1.384929 v 1.384928 z m 0,-1.384928 v -1.384928 h 1.384929 v 1.384928 z m -1.384928,-2.735406 v -1.384928 h 1.384928 v 1.384928 z m 1.384928,10.996745 v 1.364258 H 80.895173 V 65.45533 Z m -1.384928,0 v -1.350478 h 1.384928 v 1.350478 z m 0,-2.735406 v -1.378038 h 1.384928 v 1.378038 z m 0,-1.378038 v -1.384928 h 1.384928 v 1.384928 z m 0,-2.762967 v -1.384928 h 1.384928 v 1.384928 z m 0,-1.384928 v -1.384928 h 1.384928 v 1.384928 z m -1.350477,-2.735406 v -1.384928 h 1.350477 v 1.384928 z m 1.350477,10.996745 v 1.364258 H 79.544696 V 65.45533 Z m -1.350477,0 v -1.350478 h 1.350477 v 1.350478 z m 0,-2.735406 v -1.378038 h 1.350477 v 1.378038 z m 0,-1.378038 v -1.384928 h 1.350477 v 1.384928 z m 0,-2.762967 v -1.384928 h 1.350477 v 1.384928 z m 0,-1.384928 v -1.384928 h 1.350477 v 1.384928 z m -1.384929,-2.735406 v -1.384928 h 1.384929 v 1.384928 z m 1.384929,10.996745 v 1.364258 H 78.159767 V 65.45533 Z m -1.384929,0 v -1.350478 h 1.384929 v 1.350478 z m 0,-4.113444 v -1.384928 h 1.384929 v 1.384928 z m -1.378038,-6.883301 v -1.384928 h 1.378038 v 1.384928 z m 0,10.996745 v -1.350478 h 1.378038 v 1.350478 z m 0,-1.350478 v -1.384928 h 1.378038 v 1.384928 z m 0,-2.762966 v -1.384928 h 1.378038 v 1.384928 z m 0,-1.384928 v -1.378039 h 1.378038 v 1.378039 z m 0,-4.147895 v -1.350478 h 1.378038 v 1.350478 z m -1.384928,8.295789 v -1.384928 h 1.384928 v 1.384928 z m 0,-1.384928 v -1.378038 h 1.384928 v 1.378038 z m 0,-1.378038 v -1.384928 h 1.384928 v 1.384928 z m 0,-1.384928 v -1.378039 h 1.384928 v 1.378039 z m 0,-1.378039 v -1.384928 h 1.384928 v 1.384928 z m 0,-1.384928 v -1.384928 h 1.384928 v 1.384928 z m 0,-1.384928 v -1.350478 h 1.384928 v 1.350478 z"
         style="font-style:normal;font-variant:normal;font-weight:normal;font-stretch:normal;font-size:14.11111069px;font-family:'Karmatic Arcade';-inkscape-font-specification:'Karmatic Arcade';fill:#ffffff;stroke-width:0.26458332"
         id="path3815"
         inkscape:connector-curvature="0" />
      <path
         d="m 104.12201,65.45533 v -1.350478 h 1.35736 v 1.350478 z m 0,-1.350478 v -1.384928 h 1.35736 v 1.384928 z m 0,-1.384928 v -1.378038 h 1.35736 v 1.378038 z m 0,-1.378038 v -1.384928 h 1.35736 v 1.384928 z m 0,-1.384928 v -1.378039 h 1.35736 v 1.378039 z m 0,-1.378039 v -1.384928 h 1.35736 v 1.384928 z m 0,-1.384928 v -1.384928 h 1.35736 v 1.384928 z m 0,8.261339 v 1.364258 h -1.37804 V 65.45533 Z m -1.37804,0 v -1.350478 h 1.37804 v 1.350478 z m 0,-1.350478 v -1.384928 h 1.37804 v 1.384928 z m 0,-1.384928 v -1.378038 h 1.37804 v 1.378038 z m 0,-1.378038 v -1.384928 h 1.37804 v 1.384928 z m 0,-1.384928 v -1.378039 h 1.37804 v 1.378039 z m 0,-1.378039 v -1.384928 h 1.37804 v 1.384928 z m 0,-1.384928 v -1.384928 h 1.37804 v 1.384928 z m 0,-1.384928 v -1.350478 h 1.37804 v 1.350478 z m -1.38493,-1.350478 v -1.384928 h 1.38493 v 1.384928 z m 1.38493,10.996745 v 1.364258 h -1.38493 V 65.45533 Z m -1.38493,0 v -1.350478 h 1.38493 v 1.350478 z m 0,-1.350478 v -1.384928 h 1.38493 v 1.384928 z m 0,-8.295789 v -1.350478 h 1.38493 v 1.350478 z m -1.378039,-1.350478 v -1.384928 h 1.378039 v 1.384928 z m 1.378039,10.996745 v 1.364258 H 99.981001 V 65.45533 Z m -1.378039,0 v -1.350478 h 1.378039 V 65.45533 Z M 98.596073,54.458585 v -1.384928 h 1.384928 v 1.384928 z m 1.384928,10.996745 v 1.364258 H 98.596073 V 65.45533 Z m -1.384928,0 v -1.350478 h 1.384928 v 1.350478 z m 0,-2.735406 v -1.378038 h 1.384928 v 1.378038 z m 0,-1.378038 v -1.384928 h 1.384928 v 1.384928 z m 0,-1.384928 v -1.378039 h 1.384928 v 1.378039 z m 0,-1.378039 v -1.384928 h 1.384928 v 1.384928 z m 0,-1.384928 v -1.384928 h 1.384928 v 1.384928 z m -1.384929,-2.735406 v -1.384928 h 1.384929 v 1.384928 z m 1.384929,10.996745 v 1.364258 H 97.211144 V 65.45533 Z m -1.384929,0 v -1.350478 h 1.384929 v 1.350478 z m 0,-2.735406 v -1.378038 h 1.384929 v 1.378038 z m 0,-1.378038 v -1.384928 h 1.384929 v 1.384928 z m 0,-1.384928 v -1.378039 h 1.384929 v 1.378039 z m 0,-1.378039 v -1.384928 h 1.384929 v 1.384928 z m 0,-1.384928 v -1.384928 h 1.384929 v 1.384928 z m -1.350477,-2.735406 v -1.384928 h 1.350477 v 1.384928 z m 1.350477,10.996745 v 1.364258 H 95.860667 V 65.45533 Z m -1.350477,0 v -1.350478 h 1.350477 v 1.350478 z m 0,-2.735406 v -1.378038 h 1.350477 v 1.378038 z m 0,-1.378038 v -1.384928 h 1.350477 v 1.384928 z m 0,-1.384928 v -1.378039 h 1.350477 v 1.378039 z m 0,-1.378039 v -1.384928 h 1.350477 v 1.384928 z m 0,-1.384928 v -1.384928 h 1.350477 v 1.384928 z m -1.384928,-2.735406 v -1.384928 h 1.384928 v 1.384928 z m 1.384928,10.996745 v 1.364258 H 94.475739 V 65.45533 Z m -1.384928,0 v -1.350478 h 1.384928 V 65.45533 Z M 93.097701,54.458585 v -1.384928 h 1.378038 v 1.384928 z m 0,10.996745 v -1.350478 h 1.378038 v 1.350478 z m 0,-1.350478 v -1.384928 h 1.378038 v 1.384928 z m 0,-8.295789 v -1.350478 h 1.378038 v 1.350478 z m -1.384929,8.295789 v -1.384928 h 1.384929 v 1.384928 z m 0,-1.384928 v -1.378038 h 1.384929 v 1.378038 z m 0,-1.378038 v -1.384928 h 1.384929 v 1.384928 z m 0,-1.384928 v -1.378039 h 1.384929 v 1.378039 z m 0,-1.378039 v -1.384928 h 1.384929 v 1.384928 z m 0,-1.384928 v -1.384928 h 1.384929 v 1.384928 z m 0,-1.384928 v -1.350478 h 1.384929 v 1.350478 z"
         style="font-style:normal;font-variant:normal;font-weight:normal;font-stretch:normal;font-size:14.11111069px;font-family:'Karmatic Arcade';-inkscape-font-specification:'Karmatic Arcade';fill:#ffffff;stroke-width:0.26458332"
         id="path3817"
         inkscape:connector-curvature="0" />
      <path
         d="m 116.52435,58.578919 v -1.384928 h 1.35737 v 1.384928 z m 0,-1.384928 v -1.384928 h 1.35737 v 1.384928 z m 0,-1.384928 v -1.350478 h 1.35737 v 1.350478 z m -1.37804,-1.350478 v -1.384928 h 1.37804 v 1.384928 z m 0,8.261339 v -1.378038 h 1.37804 v 1.378038 z m 0,-1.378038 v -1.384928 h 1.37804 v 1.384928 z m 0,-1.384928 v -1.378039 h 1.37804 v 1.378039 z m 0,-1.378039 v -1.384928 h 1.37804 v 1.384928 z m 0,-1.384928 v -1.384928 h 1.37804 v 1.384928 z m 0,-1.384928 v -1.350478 h 1.37804 v 1.350478 z m -1.38493,-1.350478 v -1.384928 h 1.38493 v 1.384928 z m 0,8.261339 v -1.378038 h 1.38493 v 1.378038 z m 0,-1.378038 v -1.384928 h 1.38493 v 1.384928 z m 0,-1.384928 v -1.378039 h 1.38493 v 1.378039 z m 0,-1.378039 v -1.384928 h 1.38493 v 1.384928 z m 0,-1.384928 v -1.384928 h 1.38493 v 1.384928 z m -1.37804,-2.735406 v -1.384928 h 1.37804 v 1.384928 z m 0,8.261339 v -1.378038 h 1.37804 v 1.378038 z m 0,-1.378038 v -1.384928 h 1.37804 v 1.384928 z m 0,-2.762967 v -1.384928 h 1.37804 v 1.384928 z m 0,-1.384928 v -1.384928 h 1.37804 v 1.384928 z m -1.38492,-2.735406 v -1.384928 h 1.38492 v 1.384928 z m 0,8.261339 v -1.378038 h 1.38492 v 1.378038 z m 0,-1.378038 v -1.384928 h 1.38492 v 1.384928 z m 0,-2.762967 v -1.384928 h 1.38492 v 1.384928 z m 0,-1.384928 v -1.384928 h 1.38492 v 1.384928 z m -1.38493,-2.735406 v -1.384928 h 1.38493 v 1.384928 z m 1.38493,10.996745 v 1.364258 h -1.38493 V 65.45533 Z m -1.38493,0 v -1.350478 h 1.38493 v 1.350478 z m 0,-1.350478 v -1.384928 h 1.38493 v 1.384928 z m 0,-1.384928 v -1.378038 h 1.38493 v 1.378038 z m 0,-1.378038 v -1.384928 h 1.38493 v 1.384928 z m 0,-2.762967 v -1.384928 h 1.38493 v 1.384928 z m 0,-1.384928 v -1.384928 h 1.38493 v 1.384928 z m -1.35048,-2.735406 v -1.384928 h 1.35048 v 1.384928 z m 1.35048,10.996745 v 1.364258 h -1.35048 V 65.45533 Z m -1.35048,0 v -1.350478 h 1.35048 v 1.350478 z m 0,-1.350478 v -1.384928 h 1.35048 v 1.384928 z m 0,-1.384928 v -1.378038 h 1.35048 v 1.378038 z m 0,-1.378038 v -1.384928 h 1.35048 v 1.384928 z m 0,-2.762967 v -1.384928 h 1.35048 v 1.384928 z m 0,-1.384928 v -1.384928 h 1.35048 v 1.384928 z m -1.38493,-2.735406 v -1.384928 h 1.38493 v 1.384928 z m 1.38493,10.996745 v 1.364258 h -1.38493 V 65.45533 Z m -1.38493,0 v -1.350478 h 1.38493 v 1.350478 z m -1.37804,-10.996745 v -1.384928 h 1.37804 v 1.384928 z m 1.37804,10.996745 v 1.364258 h -1.37804 V 65.45533 Z m -1.37804,0 v -1.350478 h 1.37804 v 1.350478 z m -1.38492,-10.996745 v -1.384928 h 1.38492 v 1.384928 z m 0,10.996745 v -1.350478 h 1.38492 v 1.350478 z m 0,-1.350478 v -1.384928 h 1.38492 v 1.384928 z m 0,-1.384928 v -1.378038 h 1.38492 v 1.378038 z m 0,-1.378038 v -1.384928 h 1.38492 v 1.384928 z m 0,-1.384928 v -1.378039 h 1.38492 v 1.378039 z m 0,-1.378039 v -1.384928 h 1.38492 v 1.384928 z m 0,-1.384928 v -1.384928 h 1.38492 v 1.384928 z m 0,-1.384928 v -1.350478 h 1.38492 v 1.350478 z"
         style="font-style:normal;font-variant:normal;font-weight:normal;font-stretch:normal;font-size:14.11111069px;font-family:'Karmatic Arcade';-inkscape-font-specification:'Karmatic Arcade';fill:#ffffff;stroke-width:0.26458332"
         id="path3819"
         inkscape:connector-curvature="0" />
      <path
         d="m 131.46228,58.578919 v -1.384928 h 1.37804 v 1.384928 z m 0,-1.384928 v -1.384928 h 1.37804 v 1.384928 z m 0,-1.384928 v -1.350478 h 1.37804 v 1.350478 z m -1.38493,-1.350478 v -1.384928 h 1.38493 v 1.384928 z m 0,4.120334 v -1.384928 h 1.38493 v 1.384928 z m 0,-1.384928 v -1.384928 h 1.38493 v 1.384928 z m 0,-1.384928 v -1.350478 h 1.38493 v 1.350478 z m -1.37803,-1.350478 v -1.384928 h 1.37803 v 1.384928 z m 1.37803,10.996745 v 1.364258 h -1.37803 V 65.45533 Z m -1.37803,0 v -1.350478 h 1.37803 v 1.350478 z m 0,-1.350478 v -1.384928 h 1.37803 v 1.384928 z m 0,-1.384928 v -1.378038 h 1.37803 v 1.378038 z m 0,-1.378038 v -1.384928 h 1.37803 v 1.384928 z m 0,-1.384928 v -1.378039 h 1.37803 v 1.378039 z m 0,-1.378039 v -1.384928 h 1.37803 v 1.384928 z m 0,-1.384928 v -1.384928 h 1.37803 v 1.384928 z m -1.38493,-2.735406 v -1.384928 h 1.38493 v 1.384928 z m 1.38493,10.996745 v 1.364258 h -1.38493 V 65.45533 Z m -1.38493,0 v -1.350478 h 1.38493 v 1.350478 z m 0,-1.350478 v -1.384928 h 1.38493 v 1.384928 z m 0,-1.384928 v -1.378038 h 1.38493 v 1.378038 z m 0,-1.378038 v -1.384928 h 1.38493 v 1.384928 z m 0,-1.384928 v -1.378039 h 1.38493 v 1.378039 z m 0,-1.378039 v -1.384928 h 1.38493 v 1.384928 z m 0,-1.384928 v -1.384928 h 1.38493 v 1.384928 z m -1.38493,-2.735406 v -1.384928 h 1.38493 v 1.384928 z m 1.38493,10.996745 v 1.364258 h -1.38493 V 65.45533 Z m -1.38493,0 v -1.350478 h 1.38493 v 1.350478 z m -1.35048,-10.996745 v -1.384928 h 1.35048 v 1.384928 z m 1.35048,10.996745 v 1.364258 h -1.35048 V 65.45533 Z m -1.35048,0 v -1.350478 h 1.35048 v 1.350478 z m -1.38493,-10.996745 v -1.384928 h 1.38493 v 1.384928 z m 0,10.996745 v -1.350478 h 1.38493 v 1.350478 z m 0,-1.350478 v -1.384928 h 1.38493 v 1.384928 z m 0,-1.384928 v -1.378038 h 1.38493 v 1.378038 z m 0,-1.378038 v -1.384928 h 1.38493 v 1.384928 z m 0,-1.384928 v -1.378039 h 1.38493 v 1.378039 z m 0,-1.378039 v -1.384928 h 1.38493 v 1.384928 z m 0,-1.384928 v -1.384928 h 1.38493 v 1.384928 z m -1.37803,-2.735406 v -1.384928 h 1.37803 v 1.384928 z m 0,2.735406 v -1.384928 h 1.37803 v 1.384928 z m -1.38493,-2.735406 v -1.384928 h 1.38493 v 1.384928 z m 0,2.735406 v -1.384928 h 1.38493 v 1.384928 z m 0,-1.384928 v -1.350478 h 1.38493 v 1.350478 z"
         style="font-style:normal;font-variant:normal;font-weight:normal;font-stretch:normal;font-size:14.11111069px;font-family:'Karmatic Arcade';-inkscape-font-specification:'Karmatic Arcade';fill:#ffffff;stroke-width:0.26458332"
         id="path3821"
         inkscape:connector-curvature="0" />
      <path
         d="m 145.222,65.45533 v 1.364258 h -1.35737 V 65.45533 Z m -1.35737,0 v -1.350478 h 1.35737 v 1.350478 z m 0,-1.350478 v -1.384928 h 1.35737 v 1.384928 z m 0,-1.384928 v -1.378038 h 1.35737 v 1.378038 z m 0,-1.378038 v -1.384928 h 1.35737 v 1.384928 z m 0,-1.384928 v -1.378039 h 1.35737 v 1.378039 z m 0,-1.378039 v -1.384928 h 1.35737 v 1.384928 z m 0,-1.384928 v -1.384928 h 1.35737 v 1.384928 z m 0,-1.384928 v -1.350478 h 1.35737 v 1.350478 z m -1.37804,-1.350478 v -1.384928 h 1.37804 v 1.384928 z m 1.37804,10.996745 v 1.364258 h -1.37804 V 65.45533 Z m -1.37804,0 v -1.350478 h 1.37804 v 1.350478 z m 0,-1.350478 v -1.384928 h 1.37804 v 1.384928 z m 0,-1.384928 v -1.378038 h 1.37804 v 1.378038 z m 0,-1.378038 v -1.384928 h 1.37804 v 1.384928 z m 0,-1.384928 v -1.378039 h 1.37804 v 1.378039 z m 0,-1.378039 v -1.384928 h 1.37804 v 1.384928 z m 0,-1.384928 v -1.384928 h 1.37804 v 1.384928 z m 0,-1.384928 v -1.350478 h 1.37804 v 1.350478 z m -1.38493,-1.350478 v -1.384928 h 1.38493 v 1.384928 z m 1.38493,10.996745 v 1.364258 h -1.38493 V 65.45533 Z m -1.38493,0 v -1.350478 h 1.38493 v 1.350478 z m -1.37804,-10.996745 v -1.384928 h 1.37804 v 1.384928 z m 1.37804,10.996745 v 1.364258 h -1.37804 V 65.45533 Z m -1.37804,0 v -1.350478 h 1.37804 V 65.45533 Z M 138.3387,54.458585 v -1.384928 h 1.38492 v 1.384928 z m 0,10.996745 v -1.350478 h 1.38492 v 1.350478 z m 0,-1.350478 v -1.384928 h 1.38492 v 1.384928 z m 0,-1.384928 v -1.378038 h 1.38492 v 1.378038 z m 0,-1.378038 v -1.384928 h 1.38492 v 1.384928 z m 0,-2.762967 v -1.384928 h 1.38492 v 1.384928 z m 0,-1.384928 v -1.384928 h 1.38492 v 1.384928 z m 0,-1.384928 v -1.350478 h 1.38492 v 1.350478 z m 0,9.646267 v 1.364258 h -1.38493 V 65.45533 Z m -1.38493,0 v -1.350478 h 1.38493 v 1.350478 z m 0,-1.350478 v -1.384928 h 1.38493 v 1.384928 z m 0,-1.384928 v -1.378038 h 1.38493 v 1.378038 z m 0,-1.378038 v -1.384928 h 1.38493 v 1.384928 z m 0,-2.762967 v -1.384928 h 1.38493 v 1.384928 z m 0,-1.384928 v -1.384928 h 1.38493 v 1.384928 z m 0,-1.384928 v -1.350478 h 1.38493 v 1.350478 z m -1.35048,-1.350478 v -1.384928 h 1.35048 v 1.384928 z m 1.35048,10.996745 v 1.364258 h -1.35048 V 65.45533 Z m -1.35048,0 v -1.350478 h 1.35048 v 1.350478 z m 0,-1.350478 v -1.384928 h 1.35048 v 1.384928 z m 0,-1.384928 v -1.378038 h 1.35048 v 1.378038 z m 0,-1.378038 v -1.384928 h 1.35048 v 1.384928 z m 0,-2.762967 v -1.384928 h 1.35048 v 1.384928 z m 0,-1.384928 v -1.384928 h 1.35048 v 1.384928 z m 0,-1.384928 v -1.350478 h 1.35048 v 1.350478 z m -1.38493,-1.350478 v -1.384928 h 1.38493 v 1.384928 z m 1.38493,10.996745 v 1.364258 h -1.38493 V 65.45533 Z m -1.38493,0 v -1.350478 h 1.38493 v 1.350478 z m -1.37804,-10.996745 v -1.384928 h 1.37804 v 1.384928 z m 1.37804,10.996745 v 1.364258 h -1.37804 V 65.45533 Z m -1.37804,0 v -1.350478 h 1.37804 v 1.350478 z m -1.38493,-10.996745 v -1.384928 h 1.38493 v 1.384928 z m 0,10.996745 v -1.350478 h 1.38493 v 1.350478 z m 0,-1.350478 v -1.384928 h 1.38493 v 1.384928 z m 0,-1.384928 v -1.378038 h 1.38493 v 1.378038 z m 0,-1.378038 v -1.384928 h 1.38493 v 1.384928 z m 0,-1.384928 v -1.378039 h 1.38493 v 1.378039 z m 0,-1.378039 v -1.384928 h 1.38493 v 1.384928 z m 0,-1.384928 v -1.384928 h 1.38493 v 1.384928 z m 0,-1.384928 v -1.350478 h 1.38493 v 1.350478 z"
         style="font-style:normal;font-variant:normal;font-weight:normal;font-stretch:normal;font-size:14.11111069px;font-family:'Karmatic Arcade';-inkscape-font-specification:'Karmatic Arcade';fill:#ffffff;stroke-width:0.26458332"
         id="path3823"
         inkscape:connector-curvature="0" />
      <path
         d="m 157.62434,65.45533 v 1.364258 h -1.35737 V 65.45533 Z m -1.35737,0 v -1.350478 h 1.35737 v 1.350478 z m 0,-1.350478 v -1.384928 h 1.35737 v 1.384928 z m 0,-5.525933 v -1.384928 h 1.35737 v 1.384928 z m 0,-1.384928 v -1.384928 h 1.35737 v 1.384928 z m 0,-1.384928 v -1.350478 h 1.35737 v 1.350478 z m -1.37804,-1.350478 v -1.384928 h 1.37804 v 1.384928 z m 1.37804,10.996745 v 1.364258 h -1.37804 V 65.45533 Z m -1.37804,0 v -1.350478 h 1.37804 v 1.350478 z m 0,-1.350478 v -1.384928 h 1.37804 v 1.384928 z m 0,-1.384928 v -1.378038 h 1.37804 v 1.378038 z m 0,-1.378038 v -1.384928 h 1.37804 v 1.384928 z m 0,-1.384928 v -1.378039 h 1.37804 v 1.378039 z m 0,-1.378039 v -1.384928 h 1.37804 v 1.384928 z m 0,-1.384928 v -1.384928 h 1.37804 v 1.384928 z m 0,-1.384928 v -1.350478 h 1.37804 v 1.350478 z m -1.38492,-1.350478 v -1.384928 h 1.38492 v 1.384928 z m 1.38492,10.996745 v 1.364258 h -1.38492 V 65.45533 Z m -1.38492,0 v -1.350478 h 1.38492 v 1.350478 z m 0,-2.735406 v -1.378038 h 1.38492 v 1.378038 z m 0,-1.378038 v -1.384928 h 1.38492 v 1.384928 z m 0,-1.384928 v -1.378039 h 1.38492 v 1.378039 z m 0,-1.378039 v -1.384928 h 1.38492 v 1.384928 z m 0,-1.384928 v -1.384928 h 1.38492 v 1.384928 z m -1.37804,-2.735406 v -1.384928 h 1.37804 v 1.384928 z m 1.37804,10.996745 v 1.364258 h -1.37804 V 65.45533 Z m -1.37804,0 v -1.350478 h 1.37804 v 1.350478 z m 0,-2.735406 v -1.378038 h 1.37804 v 1.378038 z m 0,-1.378038 v -1.384928 h 1.37804 v 1.384928 z m 0,-2.762967 v -1.384928 h 1.37804 v 1.384928 z m 0,-1.384928 v -1.384928 h 1.37804 v 1.384928 z m -1.38493,-2.735406 v -1.384928 h 1.38493 v 1.384928 z m 1.38493,10.996745 v 1.364258 h -1.38493 V 65.45533 Z m -1.38493,0 v -1.350478 h 1.38493 v 1.350478 z m 0,-2.735406 v -1.378038 h 1.38493 v 1.378038 z m 0,-1.378038 v -1.384928 h 1.38493 v 1.384928 z m 0,-2.762967 v -1.384928 h 1.38493 v 1.384928 z m 0,-1.384928 v -1.384928 h 1.38493 v 1.384928 z m -1.38493,-2.735406 v -1.384928 h 1.38493 v 1.384928 z m 1.38493,10.996745 v 1.364258 h -1.38493 V 65.45533 Z m -1.38493,0 v -1.350478 h 1.38493 v 1.350478 z m 0,-2.735406 v -1.378038 h 1.38493 v 1.378038 z m 0,-1.378038 v -1.384928 h 1.38493 v 1.384928 z m 0,-2.762967 v -1.384928 h 1.38493 v 1.384928 z m 0,-1.384928 v -1.384928 h 1.38493 v 1.384928 z m -1.35048,-2.735406 v -1.384928 h 1.35048 v 1.384928 z m 1.35048,10.996745 v 1.364258 h -1.35048 V 65.45533 Z m -1.35048,0 v -1.350478 h 1.35048 v 1.350478 z m 0,-2.735406 v -1.378038 h 1.35048 v 1.378038 z m 0,-1.378038 v -1.384928 h 1.35048 v 1.384928 z m 0,-2.762967 v -1.384928 h 1.35048 v 1.384928 z m 0,-1.384928 v -1.384928 h 1.35048 v 1.384928 z m -1.38493,-2.735406 v -1.384928 h 1.38493 v 1.384928 z m 1.38493,10.996745 v 1.364258 H 146.6207 V 65.45533 Z m -1.38493,0 v -1.350478 h 1.38493 v 1.350478 z m -1.37803,-10.996745 v -1.384928 h 1.37803 v 1.384928 z m 1.37803,10.996745 v 1.364258 h -1.37803 V 65.45533 Z m -1.37803,0 v -1.350478 h 1.37803 v 1.350478 z m -1.38493,-10.996745 v -1.384928 h 1.38493 v 1.384928 z m 0,10.996745 v -1.350478 h 1.38493 v 1.350478 z m 0,-1.350478 v -1.384928 h 1.38493 v 1.384928 z m 0,-1.384928 v -1.378038 h 1.38493 v 1.378038 z m 0,-1.378038 v -1.384928 h 1.38493 v 1.384928 z m 0,-1.384928 v -1.378039 h 1.38493 v 1.378039 z m 0,-1.378039 v -1.384928 h 1.38493 v 1.384928 z m 0,-1.384928 v -1.384928 h 1.38493 v 1.384928 z m 0,-1.384928 v -1.350478 h 1.38493 v 1.350478 z"
         style="font-style:normal;font-variant:normal;font-weight:normal;font-stretch:normal;font-size:14.11111069px;font-family:'Karmatic Arcade';-inkscape-font-specification:'Karmatic Arcade';fill:#ffffff;stroke-width:0.26458332"
         id="path3825"
         inkscape:connector-curvature="0" />
      <path
         d="m 172.58295,62.719924 v -1.378038 h 1.35737 v 1.378038 z m 0,-1.378038 v -1.384928 h 1.35737 v 1.384928 z m 0,-1.384928 v -1.378039 h 1.35737 v 1.378039 z m 0,-1.378039 v -1.384928 h 1.35737 v 1.384928 z m 0,-1.384928 v -1.384928 h 1.35737 v 1.384928 z m -1.37804,6.910861 v -1.384928 h 1.37804 v 1.384928 z m 0,-1.384928 v -1.378038 h 1.37804 v 1.378038 z m 0,-1.378038 v -1.384928 h 1.37804 v 1.384928 z m 0,-1.384928 v -1.378039 h 1.37804 v 1.378039 z m 0,-1.378039 v -1.384928 h 1.37804 v 1.384928 z m 0,-1.384928 v -1.384928 h 1.37804 v 1.384928 z m 0,-1.384928 v -1.350478 h 1.37804 v 1.350478 z m -1.38493,-1.350478 v -1.384928 h 1.38493 v 1.384928 z m 0,9.646267 v -1.384928 h 1.38493 v 1.384928 z m 0,-1.384928 v -1.378038 h 1.38493 v 1.378038 z m 0,-1.378038 v -1.384928 h 1.38493 v 1.384928 z m 0,-5.532823 v -1.350478 h 1.38493 v 1.350478 z m -1.37803,-1.350478 v -1.384928 h 1.37803 v 1.384928 z m 0,9.646267 v -1.384928 h 1.37803 v 1.384928 z m 0,-1.384928 v -1.378038 h 1.37803 v 1.378038 z m -1.38493,-8.261339 v -1.384928 h 1.38493 v 1.384928 z m 0,9.646267 v -1.384928 h 1.38493 v 1.384928 z m 0,-1.384928 v -1.378038 h 1.38493 v 1.378038 z m 0,-2.762966 v -1.378039 h 1.38493 v 1.378039 z m 0,-1.378039 v -1.384928 h 1.38493 v 1.384928 z m 0,-1.384928 v -1.384928 h 1.38493 v 1.384928 z m -1.38493,-2.735406 v -1.384928 h 1.38493 v 1.384928 z m 1.38493,10.996745 v 1.364258 h -1.38493 V 65.45533 Z m -1.38493,0 v -1.350478 h 1.38493 v 1.350478 z m 0,-1.350478 v -1.384928 h 1.38493 v 1.384928 z m 0,-1.384928 v -1.378038 h 1.38493 v 1.378038 z m 0,-2.762966 v -1.378039 h 1.38493 v 1.378039 z m 0,-1.378039 v -1.384928 h 1.38493 v 1.384928 z m 0,-1.384928 v -1.384928 h 1.38493 v 1.384928 z m -1.35048,-2.735406 v -1.384928 h 1.35048 v 1.384928 z m 1.35048,10.996745 v 1.364258 h -1.35048 V 65.45533 Z m -1.35048,0 v -1.350478 h 1.35048 v 1.350478 z m 0,-1.350478 v -1.384928 h 1.35048 v 1.384928 z m 0,-1.384928 v -1.378038 h 1.35048 v 1.378038 z m 0,-2.762966 v -1.378039 h 1.35048 v 1.378039 z m 0,-1.378039 v -1.384928 h 1.35048 v 1.384928 z m 0,-1.384928 v -1.384928 h 1.35048 v 1.384928 z m -1.38493,-2.735406 v -1.384928 h 1.38493 v 1.384928 z m 1.38493,10.996745 v 1.364258 h -1.38493 V 65.45533 Z m -1.38493,0 v -1.350478 h 1.38493 v 1.350478 z m -1.37803,-10.996745 v -1.384928 h 1.37803 v 1.384928 z m 1.37803,10.996745 v 1.364258 h -1.37803 V 65.45533 Z m -1.37803,0 v -1.350478 h 1.37803 v 1.350478 z m -1.38493,-10.996745 v -1.384928 h 1.38493 v 1.384928 z m 0,10.996745 v -1.350478 h 1.38493 v 1.350478 z m 0,-1.350478 v -1.384928 h 1.38493 v 1.384928 z m 0,-1.384928 v -1.378038 h 1.38493 v 1.378038 z m 0,-1.378038 v -1.384928 h 1.38493 v 1.384928 z m 0,-1.384928 v -1.378039 h 1.38493 v 1.378039 z m 0,-1.378039 v -1.384928 h 1.38493 v 1.384928 z m 0,-1.384928 v -1.384928 h 1.38493 v 1.384928 z m 0,-1.384928 v -1.350478 h 1.38493 v 1.350478 z"
         style="font-style:normal;font-variant:normal;font-weight:normal;font-stretch:normal;font-size:14.11111069px;font-family:'Karmatic Arcade';-inkscape-font-specification:'Karmatic Arcade';fill:#ffffff;stroke-width:0.26458332"
         id="path3827"
         inkscape:connector-curvature="0" />
      <path
         d="m 186.34266,65.45533 v 1.364258 h -1.35737 V 65.45533 Z m -1.35737,0 v -1.350478 h 1.35737 v 1.350478 z m 0,-1.350478 v -1.384928 h 1.35737 v 1.384928 z m 0,-1.384928 v -1.378038 h 1.35737 v 1.378038 z m 0,-1.378038 v -1.384928 h 1.35737 v 1.384928 z m 0,-1.384928 v -1.378039 h 1.35737 v 1.378039 z m 0,-1.378039 v -1.384928 h 1.35737 v 1.384928 z m 0,-1.384928 v -1.384928 h 1.35737 v 1.384928 z m 0,8.261339 v 1.364258 h -1.37803 V 65.45533 Z m -1.37803,0 v -1.350478 h 1.37803 v 1.350478 z m 0,-1.350478 v -1.384928 h 1.37803 v 1.384928 z m 0,-1.384928 v -1.378038 h 1.37803 v 1.378038 z m 0,-1.378038 v -1.384928 h 1.37803 v 1.384928 z m 0,-1.384928 v -1.378039 h 1.37803 v 1.378039 z m 0,-1.378039 v -1.384928 h 1.37803 v 1.384928 z m 0,-1.384928 v -1.384928 h 1.37803 v 1.384928 z m 0,-1.384928 v -1.350478 h 1.37803 v 1.350478 z m -1.38493,-1.350478 v -1.384928 h 1.38493 v 1.384928 z m 1.38493,10.996745 v 1.364258 h -1.38493 V 65.45533 Z m -1.38493,0 v -1.350478 h 1.38493 v 1.350478 z m 0,-9.646267 v -1.350478 h 1.38493 v 1.350478 z m -1.37804,-1.350478 v -1.384928 h 1.37804 v 1.384928 z m 1.37804,10.996745 v 1.364258 h -1.37804 V 65.45533 Z m -1.37804,0 v -1.350478 h 1.37804 v 1.350478 z m -1.38493,-10.996745 v -1.384928 h 1.38493 v 1.384928 z m 0,10.996745 v -1.350478 h 1.38493 v 1.350478 z m 0,-1.350478 v -1.384928 h 1.38493 v 1.384928 z m 0,-1.384928 v -1.378038 h 1.38493 v 1.378038 z m 0,-2.762966 v -1.378039 h 1.38493 v 1.378039 z m 0,-1.378039 v -1.384928 h 1.38493 v 1.384928 z m 0,-1.384928 v -1.384928 h 1.38493 v 1.384928 z m -1.38493,-2.735406 v -1.384928 h 1.38493 v 1.384928 z m 1.38493,10.996745 v 1.364258 h -1.38493 V 65.45533 Z m -1.38493,0 v -1.350478 h 1.38493 v 1.350478 z m 0,-1.350478 v -1.384928 h 1.38493 v 1.384928 z m 0,-1.384928 v -1.378038 h 1.38493 v 1.378038 z m 0,-2.762966 v -1.378039 h 1.38493 v 1.378039 z m 0,-1.378039 v -1.384928 h 1.38493 v 1.384928 z m 0,-1.384928 v -1.384928 h 1.38493 v 1.384928 z m -1.35047,-2.735406 v -1.384928 h 1.35047 v 1.384928 z m 1.35047,10.996745 v 1.364258 h -1.35047 V 65.45533 Z m -1.35047,0 v -1.350478 h 1.35047 v 1.350478 z m 0,-1.350478 v -1.384928 h 1.35047 v 1.384928 z m 0,-1.384928 v -1.378038 h 1.35047 v 1.378038 z m 0,-2.762966 v -1.378039 h 1.35047 v 1.378039 z m 0,-1.378039 v -1.384928 h 1.35047 v 1.384928 z m 0,-1.384928 v -1.384928 h 1.35047 v 1.384928 z m -1.38493,-2.735406 v -1.384928 h 1.38493 v 1.384928 z m 1.38493,10.996745 v 1.364258 h -1.38493 V 65.45533 Z m -1.38493,0 v -1.350478 h 1.38493 v 1.350478 z m -1.37804,-10.996745 v -1.384928 h 1.37804 v 1.384928 z m 1.37804,10.996745 v 1.364258 h -1.37804 V 65.45533 Z m -1.37804,0 v -1.350478 h 1.37804 v 1.350478 z m 0,-9.646267 v -1.350478 h 1.37804 v 1.350478 z m -1.38493,9.646267 v -1.350478 h 1.38493 v 1.350478 z m 0,-1.350478 v -1.384928 h 1.38493 v 1.384928 z m 0,-1.384928 v -1.378038 h 1.38493 v 1.378038 z m 0,-1.378038 v -1.384928 h 1.38493 v 1.384928 z m 0,-1.384928 v -1.378039 h 1.38493 v 1.378039 z m 0,-1.378039 v -1.384928 h 1.38493 v 1.384928 z m 0,-1.384928 v -1.384928 h 1.38493 v 1.384928 z m 0,-1.384928 v -1.350478 h 1.38493 v 1.350478 z"
         style="font-style:normal;font-variant:normal;font-weight:normal;font-stretch:normal;font-size:14.11111069px;font-family:'Karmatic Arcade';-inkscape-font-specification:'Karmatic Arcade';fill:#ffffff;stroke-width:0.26458332"
         id="path3829"
         inkscape:connector-curvature="0" />
      <path
         d="m 197.38764,65.45533 v -1.350478 h 1.35737 v 1.350478 z m 0,-1.350478 v -1.384928 h 1.35737 v 1.384928 z m 0,-1.384928 v -1.378038 h 1.35737 v 1.378038 z m 0,-1.378038 v -1.384928 h 1.35737 v 1.384928 z m 0,-1.384928 v -1.378039 h 1.35737 v 1.378039 z m 0,-1.378039 v -1.384928 h 1.35737 v 1.384928 z m 0,-1.384928 v -1.384928 h 1.35737 v 1.384928 z m 0,8.261339 v 1.364258 H 196.0096 V 65.45533 Z m -1.37804,0 v -1.350478 h 1.37804 v 1.350478 z m 0,-1.350478 v -1.384928 h 1.37804 v 1.384928 z m 0,-1.384928 v -1.378038 h 1.37804 v 1.378038 z m 0,-1.378038 v -1.384928 h 1.37804 v 1.384928 z m 0,-1.384928 v -1.378039 h 1.37804 v 1.378039 z m 0,-1.378039 v -1.384928 h 1.37804 v 1.384928 z m 0,-1.384928 v -1.384928 h 1.37804 v 1.384928 z m 0,-1.384928 v -1.350478 h 1.37804 v 1.350478 z m -1.38493,-1.350478 v -1.384928 h 1.38493 v 1.384928 z m 1.38493,10.996745 v 1.364258 h -1.38493 V 65.45533 Z m -1.38493,0 v -1.350478 h 1.38493 v 1.350478 z m 0,-1.350478 v -1.384928 h 1.38493 v 1.384928 z m 0,-4.147894 v -1.378039 h 1.38493 v 1.378039 z m 0,-1.378039 v -1.384928 h 1.38493 v 1.384928 z m 0,-2.769856 v -1.350478 h 1.38493 v 1.350478 z m -1.37804,-1.350478 v -1.384928 h 1.37804 v 1.384928 z m 1.37804,10.996745 v 1.364258 h -1.37804 V 65.45533 Z m -1.37804,0 v -1.350478 h 1.37804 v 1.350478 z m 0,-6.876411 v -1.384928 h 1.37804 v 1.384928 z m -1.38492,-4.120334 v -1.384928 h 1.38492 v 1.384928 z m 1.38492,10.996745 v 1.364258 h -1.38492 V 65.45533 Z m -1.38492,0 v -1.350478 h 1.38492 v 1.350478 z m 0,-2.735406 v -1.378038 h 1.38492 v 1.378038 z m 0,-1.378038 v -1.384928 h 1.38492 v 1.384928 z m 0,-2.762967 v -1.384928 h 1.38492 v 1.384928 z m 0,-1.384928 v -1.384928 h 1.38492 v 1.384928 z m -1.38493,-2.735406 v -1.384928 h 1.38493 v 1.384928 z m 1.38493,10.996745 v 1.364258 h -1.38493 V 65.45533 Z m -1.38493,0 v -1.350478 h 1.38493 v 1.350478 z m 0,-2.735406 v -1.378038 h 1.38493 v 1.378038 z m 0,-1.378038 v -1.384928 h 1.38493 v 1.384928 z m 0,-2.762967 v -1.384928 h 1.38493 v 1.384928 z m 0,-1.384928 v -1.384928 h 1.38493 v 1.384928 z m -1.35048,-2.735406 v -1.384928 h 1.35048 v 1.384928 z m 1.35048,10.996745 v 1.364258 H 189.1263 V 65.45533 Z m -1.35048,0 v -1.350478 h 1.35048 v 1.350478 z m 0,-2.735406 v -1.378038 h 1.35048 v 1.378038 z m 0,-1.378038 v -1.384928 h 1.35048 v 1.384928 z m 0,-2.762967 v -1.384928 h 1.35048 v 1.384928 z m 0,-1.384928 v -1.384928 h 1.35048 v 1.384928 z m -1.38493,-2.735406 v -1.384928 h 1.38493 v 1.384928 z m 1.38493,10.996745 v 1.364258 h -1.38493 V 65.45533 Z m -1.38493,0 v -1.350478 h 1.38493 v 1.350478 z m 0,-4.113444 v -1.384928 h 1.38493 v 1.384928 z m -1.37804,-6.883301 v -1.384928 h 1.37804 v 1.384928 z m 0,10.996745 v -1.350478 h 1.37804 v 1.350478 z m 0,-1.350478 v -1.384928 h 1.37804 v 1.384928 z m 0,-2.762966 v -1.384928 h 1.37804 v 1.384928 z m 0,-1.384928 v -1.378039 h 1.37804 v 1.378039 z m 0,-4.147895 v -1.350478 h 1.37804 v 1.350478 z m -1.38493,8.295789 v -1.384928 h 1.38493 v 1.384928 z m 0,-1.384928 v -1.378038 h 1.38493 v 1.378038 z m 0,-1.378038 v -1.384928 h 1.38493 v 1.384928 z m 0,-1.384928 v -1.378039 h 1.38493 v 1.378039 z m 0,-1.378039 v -1.384928 h 1.38493 v 1.384928 z m 0,-1.384928 v -1.384928 h 1.38493 v 1.384928 z m 0,-1.384928 v -1.350478 h 1.38493 v 1.350478 z"
         style="font-style:normal;font-variant:normal;font-weight:normal;font-stretch:normal;font-size:14.11111069px;font-family:'Karmatic Arcade';-inkscape-font-specification:'Karmatic Arcade';fill:#ffffff;stroke-width:0.26458332"
         id="path3831"
         inkscape:connector-curvature="0" />
      <path
         d="m 208.41194,58.578919 v -1.384928 h 1.37804 v 1.384928 z m 0,-1.384928 v -1.384928 h 1.37804 v 1.384928 z m 0,-1.384928 v -1.350478 h 1.37804 v 1.350478 z m -1.38492,-1.350478 v -1.384928 h 1.38492 v 1.384928 z m 0,4.120334 v -1.384928 h 1.38492 v 1.384928 z m 0,-1.384928 v -1.384928 h 1.38492 v 1.384928 z m 0,-1.384928 v -1.350478 h 1.38492 v 1.350478 z m -1.37804,-1.350478 v -1.384928 h 1.37804 v 1.384928 z m 1.37804,10.996745 v 1.364258 h -1.37804 V 65.45533 Z m -1.37804,0 v -1.350478 h 1.37804 v 1.350478 z m 0,-1.350478 v -1.384928 h 1.37804 v 1.384928 z m 0,-1.384928 v -1.378038 h 1.37804 v 1.378038 z m 0,-1.378038 v -1.384928 h 1.37804 v 1.384928 z m 0,-1.384928 v -1.378039 h 1.37804 v 1.378039 z m 0,-1.378039 v -1.384928 h 1.37804 v 1.384928 z m 0,-1.384928 v -1.384928 h 1.37804 v 1.384928 z m -1.38493,-2.735406 v -1.384928 h 1.38493 v 1.384928 z m 1.38493,10.996745 v 1.364258 h -1.38493 V 65.45533 Z m -1.38493,0 v -1.350478 h 1.38493 v 1.350478 z m 0,-1.350478 v -1.384928 h 1.38493 v 1.384928 z m 0,-1.384928 v -1.378038 h 1.38493 v 1.378038 z m 0,-1.378038 v -1.384928 h 1.38493 v 1.384928 z m 0,-1.384928 v -1.378039 h 1.38493 v 1.378039 z m 0,-1.378039 v -1.384928 h 1.38493 v 1.384928 z m 0,-1.384928 v -1.384928 h 1.38493 v 1.384928 z m -1.38493,-2.735406 v -1.384928 h 1.38493 v 1.384928 z m 1.38493,10.996745 v 1.364258 h -1.38493 V 65.45533 Z m -1.38493,0 v -1.350478 h 1.38493 v 1.350478 z m -1.35048,-10.996745 v -1.384928 h 1.35048 v 1.384928 z m 1.35048,10.996745 v 1.364258 h -1.35048 V 65.45533 Z m -1.35048,0 v -1.350478 h 1.35048 v 1.350478 z m -1.38492,-10.996745 v -1.384928 h 1.38492 v 1.384928 z m 0,10.996745 v -1.350478 h 1.38492 v 1.350478 z m 0,-1.350478 v -1.384928 h 1.38492 v 1.384928 z m 0,-1.384928 v -1.378038 h 1.38492 v 1.378038 z m 0,-1.378038 v -1.384928 h 1.38492 v 1.384928 z m 0,-1.384928 v -1.378039 h 1.38492 v 1.378039 z m 0,-1.378039 v -1.384928 h 1.38492 v 1.384928 z m 0,-1.384928 v -1.384928 h 1.38492 v 1.384928 z m -1.37804,-2.735406 v -1.384928 h 1.37804 v 1.384928 z m 0,2.735406 v -1.384928 h 1.37804 v 1.384928 z m -1.38493,-2.735406 v -1.384928 h 1.38493 v 1.384928 z m 0,2.735406 v -1.384928 h 1.38493 v 1.384928 z m 0,-1.384928 v -1.350478 h 1.38493 v 1.350478 z"
         style="font-style:normal;font-variant:normal;font-weight:normal;font-stretch:normal;font-size:14.11111069px;font-family:'Karmatic Arcade';-inkscape-font-specification:'Karmatic Arcade';fill:#ffffff;stroke-width:0.26458332"
         id="path3833"
         inkscape:connector-curvature="0" />
    </g>
  </g>
</svg>
